Grandstander-MediumItalic.ufo
<glyph name="exclam" format="2">
  <advance width="708.0"/>
  <unicode hex="0021"/>
  <outline>
    <contour>
      <point x="396.0" y="405.0" type="curve"/>
      <point x="472.5" y="668.0"/>
      <point x="677.5" y="1299.5"/>
      <point x="741.0" y="1460.5" type="curve"/>
      <point x="472.5" y="1472.5" type="line"/>
      <point x="394.0" y="1223.0"/>
      <point x="267.5" y="733.0"/>
      <point x="196.0" y="415.5" type="curve"/>
      <point x="240.0" y="409.5"/>
      <point x="352.5" y="405.0"/>
    </contour>
    <contour>
      <point x="209.0" y="-27.0" type="curve" smooth="yes"/>
      <point x="317.0" y="-27.0"/>
      <point x="418.5" y="55.0"/>
      <point x="418.5" y="162.0" type="curve" smooth="yes"/>
      <point x="418.5" y="241.0"/>
      <point x="357.5" y="300.0"/>
      <point x="269.5" y="300.0" type="curve" smooth="yes"/>
      <point x="155.5" y="300.0"/>
      <point x="55.0" y="220.5"/>
      <point x="55.0" y="106.5" type="curve" smooth="yes"/>
      <point x="55.0" y="31.0"/>
      <point x="112.5" y="-27.0"/>
    </contour>
  </outline>
</glyph>
<glyph name="quotedbl" format="2">
  <advance width="764.0"/>
  <unicode hex="0022"/>
  <outline>
    <contour>
      <point x="444.0" y="1037.5" type="curve"/>
      <point x="485.5" y="1127.0"/>
      <point x="536.0" y="1280.5"/>
      <point x="568.0" y="1397.0" type="curve" smooth="yes"/>
      <point x="575.0" y="1422.0"/>
      <point x="578.5" y="1442.5"/>
      <point x="579.0" y="1456.0" type="curve"/>
      <point x="558.5" y="1459.0"/>
      <point x="535.0" y="1460.0"/>
      <point x="511.0" y="1460.0" type="curve" smooth="yes"/>
      <point x="463.0" y="1460.0"/>
      <point x="423.0" y="1454.0"/>
      <point x="380.5" y="1445.0" type="curve"/>
      <point x="360.5" y="1368.5"/>
      <point x="322.5" y="1169.0"/>
      <point x="315.5" y="1043.5" type="curve"/>
      <point x="334.5" y="1039.0"/>
      <point x="405.0" y="1037.5"/>
    </contour>
    <contour>
      <point x="576.5" y="1037.5" type="curve"/>
      <point x="599.0" y="1037.0"/>
      <point x="643.5" y="1039.0"/>
      <point x="710.5" y="1046.5" type="curve"/>
      <point x="758.5" y="1147.0"/>
      <point x="845.0" y="1338.5"/>
      <point x="866.0" y="1422.0" type="curve" smooth="yes"/>
      <point x="868.5" y="1432.0"/>
      <point x="870.5" y="1441.0"/>
      <point x="871.5" y="1448.5" type="curve"/>
      <point x="824.5" y="1454.5"/>
      <point x="738.0" y="1456.5"/>
      <point x="680.0" y="1456.0" type="curve"/>
      <point x="669.5" y="1425.0"/>
      <point x="646.5" y="1347.0"/>
      <point x="630.5" y="1285.5" type="curve" smooth="yes"/>
      <point x="612.5" y="1218.5"/>
      <point x="584.0" y="1085.0"/>
    </contour>
  </outline>
</glyph>
<glyph name="numbersign" format="2">
  <advance width="1511.0"/>
  <unicode hex="0023"/>
  <outline>
    <contour>
      <point x="140.5" y="845.0" type="curve"/>
      <point x="339.5" y="848.0"/>
      <point x="620.5" y="858.5"/>
      <point x="904.0" y="870.5" type="curve" smooth="yes"/>
      <point x="1134.0" y="880.5"/>
      <point x="1371.0" y="891.0"/>
      <point x="1569.0" y="896.0" type="curve"/>
      <point x="1587.5" y="933.5"/>
      <point x="1631.0" y="1067.5"/>
      <point x="1642.0" y="1107.0" type="curve"/>
      <point x="1422.0" y="1104.5"/>
      <point x="1164.0" y="1090.5"/>
      <point x="901.5" y="1075.0" type="curve" smooth="yes"/>
      <point x="665.5" y="1061.0"/>
      <point x="396.5" y="1045.0"/>
      <point x="203.0" y="1040.5" type="curve"/>
      <point x="194.5" y="1019.5"/>
      <point x="154.5" y="896.5"/>
    </contour>
    <contour>
      <point x="1377.0" y="410.5" type="curve"/>
      <point x="1393.5" y="442.5"/>
      <point x="1447.5" y="576.5"/>
      <point x="1460.0" y="622.5" type="curve"/>
      <point x="1292.5" y="630.0"/>
      <point x="1117.5" y="634.0"/>
      <point x="942.0" y="635.5" type="curve" smooth="yes"/>
      <point x="792.0" y="637.0"/>
      <point x="641.5" y="637.0"/>
      <point x="492.0" y="634.5" type="curve" smooth="yes"/>
      <point x="344.5" y="631.5"/>
      <point x="200.0" y="627.5"/>
      <point x="62.0" y="621.5" type="curve"/>
      <point x="49.0" y="592.0"/>
      <point x="7.0" y="472.5"/>
      <point x="-2.5" y="437.0" type="curve"/>
      <point x="82.5" y="442.0"/>
      <point x="178.5" y="444.0"/>
      <point x="281.0" y="444.0" type="curve" smooth="yes"/>
      <point x="433.5" y="444.0"/>
      <point x="603.5" y="442.5"/>
      <point x="772.0" y="435.5" type="curve" smooth="yes"/>
      <point x="981.0" y="427.0"/>
      <point x="1191.0" y="417.0"/>
    </contour>
    <contour>
      <point x="241.5" y="8.0" type="curve"/>
      <point x="288.0" y="8.0"/>
      <point x="435.5" y="18.0"/>
      <point x="473.0" y="25.0" type="curve"/>
      <point x="598.5" y="491.5"/>
      <point x="807.0" y="1184.5"/>
      <point x="903.5" y="1476.0" type="curve"/>
      <point x="832.0" y="1476.0"/>
      <point x="726.5" y="1474.0"/>
      <point x="693.5" y="1467.5" type="curve"/>
      <point x="553.0" y="1077.0"/>
      <point x="373.0" y="498.5"/>
    </contour>
    <contour>
      <point x="797.5" y="67.5" type="curve"/>
      <point x="838.0" y="67.5"/>
      <point x="993.0" y="89.5"/>
      <point x="1031.0" y="96.5" type="curve"/>
      <point x="1081.5" y="392.5"/>
      <point x="1162.0" y="745.5"/>
      <point x="1246.0" y="1059.0" type="curve" smooth="yes"/>
      <point x="1287.5" y="1214.0"/>
      <point x="1329.0" y="1359.5"/>
      <point x="1368.0" y="1483.0" type="curve"/>
      <point x="1327.0" y="1483.0"/>
      <point x="1197.5" y="1474.5"/>
      <point x="1167.0" y="1469.5" type="curve"/>
      <point x="1099.5" y="1269.5"/>
      <point x="1035.5" y="1055.0"/>
      <point x="976.5" y="835.5" type="curve" smooth="yes"/>
      <point x="908.5" y="581.5"/>
      <point x="846.5" y="318.0"/>
    </contour>
  </outline>
</glyph>
<glyph name="dollar" format="2">
  <advance width="1027.0"/>
  <unicode hex="0024"/>
  <anchor x="398.5" y="79.0" name="bottom"/>
  <anchor x="709.0" y="1255.0" name="top"/>
  <outline>
    <contour>
      <point x="442.0" y="-82.0" type="line"/>
      <point x="459.5" y="-21.5"/>
      <point x="495.5" y="100.5"/>
      <point x="509.5" y="144.5" type="curve"/>
      <point x="304.5" y="156.5" type="line"/>
      <point x="289.0" y="122.5"/>
      <point x="227.0" y="-51.5"/>
      <point x="219.0" y="-81.5" type="curve"/>
    </contour>
    <contour>
      <point x="607.0" y="1210.0" type="curve"/>
      <point x="795.0" y="1211.0" type="line"/>
      <point x="808.5" y="1258.0"/>
      <point x="839.0" y="1370.0"/>
      <point x="851.0" y="1416.0" type="curve"/>
      <point x="668.0" y="1408.5" type="line"/>
      <point x="657.0" y="1374.0"/>
      <point x="618.5" y="1247.0"/>
    </contour>
    <component base="s" xOffset="60.0" yOffset="144.0"/>
  </outline>
</glyph>
<glyph name="percent" format="2">
  <advance width="1385.0"/>
  <unicode hex="0025"/>
  <outline>
    <contour>
      <point x="82.5" y="-26.5" type="curve"/>
      <point x="372.5" y="214.0"/>
      <point x="1159.5" y="971.5"/>
      <point x="1476.0" y="1317.0" type="curve"/>
      <point x="1458.5" y="1353.5"/>
      <point x="1410.5" y="1410.5"/>
      <point x="1365.0" y="1432.5" type="curve"/>
      <point x="1061.5" y="1089.5"/>
      <point x="341.0" y="391.0"/>
      <point x="-28.0" y="68.5" type="curve"/>
      <point x="-6.0" y="42.5"/>
      <point x="57.0" y="-8.0"/>
    </contour>
    <contour>
      <point x="964.0" y="247.5" type="curve" smooth="yes"/>
      <point x="899.0" y="247.5"/>
      <point x="869.0" y="281.0"/>
      <point x="869.0" y="333.5" type="curve" smooth="yes"/>
      <point x="869.0" y="424.5"/>
      <point x="944.0" y="499.5"/>
      <point x="1031.5" y="499.5" type="curve" smooth="yes"/>
      <point x="1090.5" y="499.5"/>
      <point x="1128.0" y="471.0"/>
      <point x="1128.0" y="417.5" type="curve" smooth="yes"/>
      <point x="1128.0" y="328.5"/>
      <point x="1054.0" y="247.5"/>
    </contour>
    <contour>
      <point x="936.5" y="111.0" type="curve" smooth="yes"/>
      <point x="1132.5" y="111.0"/>
      <point x="1269.5" y="251.5"/>
      <point x="1269.5" y="443.0" type="curve" smooth="yes"/>
      <point x="1269.5" y="560.0"/>
      <point x="1198.5" y="634.0"/>
      <point x="1059.5" y="634.0" type="curve" smooth="yes"/>
      <point x="881.5" y="634.0"/>
      <point x="719.0" y="474.5"/>
      <point x="719.0" y="296.0" type="curve" smooth="yes"/>
      <point x="719.0" y="174.5"/>
      <point x="812.0" y="111.0"/>
    </contour>
    <contour>
      <point x="483.0" y="773.5" type="curve" smooth="yes"/>
      <point x="665.5" y="773.5"/>
      <point x="823.5" y="937.5"/>
      <point x="823.5" y="1116.5" type="curve" smooth="yes"/>
      <point x="823.5" y="1235.5"/>
      <point x="730.0" y="1305.0"/>
      <point x="596.0" y="1305.0" type="curve" smooth="yes"/>
      <point x="417.5" y="1305.0"/>
      <point x="257.5" y="1154.5"/>
      <point x="257.5" y="976.5" type="curve" smooth="yes"/>
      <point x="257.5" y="853.0"/>
      <point x="336.5" y="773.5"/>
    </contour>
    <contour>
      <point x="512.5" y="925.5" type="curve" smooth="yes"/>
      <point x="453.0" y="925.5"/>
      <point x="414.5" y="951.0"/>
      <point x="414.5" y="1004.0" type="curve" smooth="yes"/>
      <point x="414.5" y="1095.5"/>
      <point x="486.0" y="1170.5"/>
      <point x="586.5" y="1170.5" type="curve" smooth="yes"/>
      <point x="641.5" y="1170.5"/>
      <point x="671.5" y="1139.0"/>
      <point x="671.5" y="1088.0" type="curve" smooth="yes"/>
      <point x="671.5" y="999.5"/>
      <point x="609.0" y="925.5"/>
    </contour>
  </outline>
</glyph>
<glyph name="ampersand" format="2">
  <advance width="1395.0"/>
  <unicode hex="0026"/>
  <outline>
    <contour>
      <point x="445.5" y="-105.0" type="curve" smooth="yes"/>
      <point x="714.0" y="-105.0"/>
      <point x="904.0" y="42.5"/>
      <point x="969.5" y="116.5" type="curve"/>
      <point x="992.5" y="73.0"/>
      <point x="1047.5" y="-19.0"/>
      <point x="1079.0" y="-65.0" type="curve"/>
      <point x="1130.0" y="-39.0"/>
      <point x="1207.5" y="32.0"/>
      <point x="1247.5" y="78.0" type="curve"/>
      <point x="1213.0" y="132.5"/>
      <point x="1164.0" y="209.0"/>
      <point x="1123.5" y="264.0" type="curve"/>
      <point x="1195.0" y="333.5"/>
      <point x="1311.5" y="455.0"/>
      <point x="1332.0" y="494.0" type="curve"/>
      <point x="1304.0" y="534.0"/>
      <point x="1231.0" y="585.5"/>
      <point x="1193.5" y="605.5" type="curve"/>
      <point x="1173.0" y="573.0"/>
      <point x="1069.5" y="445.5"/>
      <point x="1023.0" y="403.0" type="curve"/>
      <point x="952.5" y="509.0"/>
      <point x="823.5" y="704.5"/>
      <point x="766.0" y="787.0" type="curve"/>
      <point x="937.0" y="877.5"/>
      <point x="1089.0" y="1007.0"/>
      <point x="1089.0" y="1192.0" type="curve" smooth="yes"/>
      <point x="1089.0" y="1322.0"/>
      <point x="989.5" y="1412.0"/>
      <point x="825.0" y="1412.0" type="curve" smooth="yes"/>
      <point x="611.5" y="1412.0"/>
      <point x="433.5" y="1287.0"/>
      <point x="433.5" y="1083.5" type="curve" smooth="yes"/>
      <point x="433.5" y="988.5"/>
      <point x="485.0" y="894.5"/>
      <point x="529.0" y="839.5" type="curve"/>
      <point x="283.0" y="721.5"/>
      <point x="32.0" y="539.5"/>
      <point x="32.0" y="252.5" type="curve" smooth="yes"/>
      <point x="32.0" y="43.5"/>
      <point x="175.0" y="-105.0"/>
    </contour>
    <contour>
      <point x="481.0" y="77.5" type="curve" smooth="yes"/>
      <point x="335.0" y="77.5"/>
      <point x="252.5" y="155.0"/>
      <point x="252.5" y="276.0" type="curve" smooth="yes"/>
      <point x="252.5" y="487.5"/>
      <point x="444.5" y="603.5"/>
      <point x="617.0" y="703.0" type="curve"/>
      <point x="678.0" y="597.0"/>
      <point x="802.5" y="383.5"/>
      <point x="876.0" y="273.5" type="curve"/>
      <point x="822.5" y="217.0"/>
      <point x="681.5" y="77.5"/>
    </contour>
    <contour>
      <point x="682.5" y="912.0" type="curve"/>
      <point x="653.5" y="954.0"/>
      <point x="628.0" y="1018.5"/>
      <point x="628.0" y="1082.5" type="curve" smooth="yes"/>
      <point x="628.0" y="1185.0"/>
      <point x="701.0" y="1258.0"/>
      <point x="799.5" y="1258.0" type="curve" smooth="yes"/>
      <point x="867.5" y="1258.0"/>
      <point x="897.5" y="1226.5"/>
      <point x="897.5" y="1180.5" type="curve" smooth="yes"/>
      <point x="897.5" y="1075.0"/>
      <point x="784.0" y="970.5"/>
    </contour>
  </outline>
</glyph>
<glyph name="quotesingle" format="2">
  <advance width="462.0"/>
  <unicode hex="0027"/>
  <outline>
    <contour>
      <point x="556.0" y="1382.0" type="curve" smooth="yes"/>
      <point x="563.5" y="1411.5"/>
      <point x="570.5" y="1439.5"/>
      <point x="573.5" y="1455.5" type="curve"/>
      <point x="550.0" y="1458.5"/>
      <point x="524.5" y="1460.0"/>
      <point x="497.0" y="1460.0" type="curve" smooth="yes"/>
      <point x="452.5" y="1460.0"/>
      <point x="404.5" y="1456.0"/>
      <point x="358.5" y="1448.0" type="curve"/>
      <point x="338.5" y="1362.0"/>
      <point x="305.5" y="1115.5"/>
      <point x="292.0" y="1008.5" type="curve"/>
      <point x="315.5" y="1006.0"/>
      <point x="338.5" y="1003.5"/>
      <point x="362.5" y="1003.5" type="curve" smooth="yes"/>
      <point x="381.5" y="1003.5"/>
      <point x="401.5" y="1004.5"/>
      <point x="426.0" y="1007.0" type="curve"/>
      <point x="473.0" y="1113.0"/>
      <point x="528.0" y="1273.0"/>
    </contour>
  </outline>
</glyph>
<glyph name="parenleft" format="2">
  <advance width="677.0"/>
  <unicode hex="0028"/>
  <outline>
    <contour>
      <point x="88.5" y="-503.5" type="curve"/>
      <point x="137.5" y="-483.5"/>
      <point x="264.0" y="-412.0"/>
      <point x="312.5" y="-380.5" type="curve"/>
      <point x="264.5" y="-290.5"/>
      <point x="240.0" y="-108.5"/>
      <point x="240.0" y="48.5" type="curve" smooth="yes"/>
      <point x="240.0" y="545.5"/>
      <point x="473.5" y="1052.0"/>
      <point x="804.0" y="1480.5" type="curve"/>
      <point x="762.0" y="1506.0"/>
      <point x="673.5" y="1538.0"/>
      <point x="596.5" y="1550.0" type="curve"/>
      <point x="252.5" y="1152.0"/>
      <point x="-0.5" y="552.5"/>
      <point x="-0.5" y="9.5" type="curve" smooth="yes"/>
      <point x="-0.5" y="-171.5"/>
      <point x="28.5" y="-395.5"/>
    </contour>
  </outline>
</glyph>
<glyph name="parenright" format="2">
  <advance width="651.0"/>
  <unicode hex="0029"/>
  <outline>
    <contour>
      <point x="409.0" y="1033.5" type="curve" smooth="yes"/>
      <point x="409.0" y="570.5"/>
      <point x="171.5" y="-20.5"/>
      <point x="-147.5" y="-359.0" type="curve"/>
      <point x="-122.0" y="-389.0"/>
      <point x="-10.0" y="-448.0"/>
      <point x="34.5" y="-463.0" type="curve"/>
      <point x="367.5" y="-131.5"/>
      <point x="644.5" y="536.0"/>
      <point x="644.5" y="1021.0" type="curve" smooth="yes"/>
      <point x="644.5" y="1211.5"/>
      <point x="613.0" y="1416.0"/>
      <point x="547.0" y="1549.0" type="curve"/>
      <point x="473.0" y="1533.5"/>
      <point x="395.5" y="1504.5"/>
      <point x="329.5" y="1472.0" type="curve"/>
      <point x="380.0" y="1378.5"/>
      <point x="409.0" y="1206.0"/>
    </contour>
  </outline>
</glyph>
<glyph name="asterisk" format="2">
  <advance width="946.5"/>
  <unicode hex="002A"/>
  <outline>
    <contour>
      <point x="883.5" y="978.0" type="curve"/>
      <point x="910.0" y="1003.0"/>
      <point x="998.5" y="1096.0"/>
      <point x="1020.0" y="1131.0" type="curve"/>
      <point x="938.0" y="1184.0"/>
      <point x="793.5" y="1255.5"/>
      <point x="709.5" y="1293.5" type="curve"/>
      <point x="634.5" y="1356.5"/>
      <point x="484.0" y="1463.0"/>
      <point x="412.5" y="1512.0" type="curve"/>
      <point x="379.5" y="1483.0"/>
      <point x="304.5" y="1396.5"/>
      <point x="277.0" y="1357.5" type="curve"/>
      <point x="360.5" y="1305.0"/>
      <point x="515.5" y="1229.5"/>
      <point x="604.5" y="1189.5" type="curve"/>
      <point x="675.5" y="1125.5"/>
      <point x="805.0" y="1026.0"/>
    </contour>
    <contour>
      <point x="561.5" y="863.0" type="curve" smooth="yes"/>
      <point x="601.0" y="863.0"/>
      <point x="640.0" y="866.5"/>
      <point x="657.5" y="869.5" type="curve"/>
      <point x="679.5" y="957.5"/>
      <point x="717.0" y="1145.5"/>
      <point x="737.5" y="1249.0" type="curve"/>
      <point x="771.0" y="1339.5"/>
      <point x="813.0" y="1467.5"/>
      <point x="842.5" y="1579.0" type="curve"/>
      <point x="826.5" y="1582.5"/>
      <point x="790.0" y="1585.0"/>
      <point x="752.5" y="1585.0" type="curve" smooth="yes"/>
      <point x="715.0" y="1585.0"/>
      <point x="676.5" y="1582.5"/>
      <point x="657.0" y="1579.0" type="curve"/>
      <point x="635.5" y="1488.0"/>
      <point x="609.5" y="1359.0"/>
      <point x="592.0" y="1249.0" type="curve"/>
      <point x="547.5" y="1124.0"/>
      <point x="495.0" y="971.0"/>
      <point x="466.0" y="869.5" type="curve"/>
      <point x="482.0" y="866.0"/>
      <point x="522.0" y="863.0"/>
    </contour>
    <contour>
      <point x="280.5" y="959.0" type="curve"/>
      <point x="400.0" y="1017.0"/>
      <point x="560.5" y="1100.0"/>
      <point x="676.0" y="1162.5" type="curve"/>
      <point x="786.0" y="1207.0"/>
      <point x="988.5" y="1297.5"/>
      <point x="1094.5" y="1348.5" type="curve"/>
      <point x="1089.5" y="1387.5"/>
      <point x="1056.0" y="1484.5"/>
      <point x="1040.5" y="1510.5" type="curve"/>
      <point x="941.5" y="1460.5"/>
      <point x="758.0" y="1358.5"/>
      <point x="653.5" y="1295.0" type="curve"/>
      <point x="540.0" y="1251.0"/>
      <point x="336.0" y="1172.5"/>
      <point x="226.0" y="1119.5" type="curve"/>
      <point x="230.5" y="1087.5"/>
      <point x="269.0" y="980.0"/>
    </contour>
  </outline>
</glyph>
<glyph name="plus" format="2">
  <advance width="1050.0"/>
  <unicode hex="002B"/>
  <outline>
    <contour>
      <point x="971.0" y="633.5" type="curve"/>
      <point x="980.0" y="656.5"/>
      <point x="1019.0" y="768.0"/>
      <point x="1037.0" y="843.5" type="curve"/>
      <point x="922.5" y="825.0"/>
      <point x="687.5" y="813.0"/>
      <point x="454.5" y="813.0" type="curve" smooth="yes"/>
      <point x="309.5" y="813.0"/>
      <point x="175.5" y="817.5"/>
      <point x="116.0" y="824.5" type="curve"/>
      <point x="108.0" y="797.0"/>
      <point x="79.0" y="662.5"/>
      <point x="77.0" y="628.0" type="curve"/>
      <point x="183.5" y="613.5"/>
      <point x="375.5" y="603.5"/>
      <point x="541.0" y="603.5" type="curve" smooth="yes"/>
      <point x="732.5" y="603.5"/>
      <point x="884.0" y="615.5"/>
    </contour>
    <contour>
      <point x="754.5" y="1180.5" type="curve"/>
      <point x="734.0" y="1181.0"/>
      <point x="556.0" y="1175.0"/>
      <point x="529.0" y="1173.5" type="curve"/>
      <point x="514.5" y="1034.5"/>
      <point x="468.0" y="766.0"/>
      <point x="408.5" y="546.5" type="curve" smooth="yes"/>
      <point x="381.0" y="444.0"/>
      <point x="351.0" y="347.0"/>
      <point x="321.0" y="269.5" type="curve"/>
      <point x="352.0" y="267.0"/>
      <point x="492.0" y="262.5"/>
      <point x="521.0" y="264.0" type="curve"/>
      <point x="574.0" y="388.0"/>
      <point x="623.0" y="539.5"/>
      <point x="661.5" y="682.0" type="curve" smooth="yes"/>
      <point x="714.0" y="877.0"/>
      <point x="748.5" y="1066.0"/>
    </contour>
  </outline>
</glyph>
<glyph name="comma" format="2">
  <advance width="667.0"/>
  <unicode hex="002C"/>
  <outline>
    <contour>
      <point x="163.0" y="-272.0" type="curve"/>
      <point x="301.0" y="-183.0"/>
      <point x="422.0" y="6.0"/>
      <point x="422.0" y="151.5" type="curve" smooth="yes"/>
      <point x="422.0" y="261.5"/>
      <point x="341.5" y="313.5"/>
      <point x="243.5" y="313.5" type="curve" smooth="yes"/>
      <point x="113.0" y="313.5"/>
      <point x="12.0" y="237.0"/>
      <point x="12.0" y="118.5" type="curve" smooth="yes"/>
      <point x="12.0" y="51.5"/>
      <point x="45.5" y="0.0"/>
      <point x="119.5" y="0.0" type="curve" smooth="yes"/>
      <point x="179.0" y="0.0"/>
      <point x="214.5" y="27.0"/>
      <point x="230.0" y="55.0" type="curve"/>
      <point x="230.5" y="52.5"/>
      <point x="230.0" y="48.0"/>
      <point x="229.5" y="44.5" type="curve" smooth="yes"/>
      <point x="224.5" y="-7.5"/>
      <point x="108.5" y="-123.0"/>
      <point x="46.5" y="-161.5" type="curve"/>
      <point x="65.0" y="-217.5"/>
      <point x="144.0" y="-264.0"/>
    </contour>
  </outline>
</glyph>
<glyph name="hyphen" format="2">
  <advance width="898.5"/>
  <unicode hex="002D"/>
  <outline>
    <contour>
      <point x="915.0" y="787.0" type="curve"/>
      <point x="839.0" y="795.0"/>
      <point x="724.5" y="797.5"/>
      <point x="582.0" y="797.5" type="curve" smooth="yes"/>
      <point x="414.0" y="797.5"/>
      <point x="246.0" y="785.5"/>
      <point x="116.5" y="772.0" type="curve"/>
      <point x="101.5" y="737.0"/>
      <point x="62.5" y="619.5"/>
      <point x="49.5" y="564.5" type="curve"/>
      <point x="233.5" y="576.0"/>
      <point x="696.5" y="588.5"/>
      <point x="871.0" y="588.5" type="curve"/>
      <point x="886.0" y="642.0"/>
      <point x="908.0" y="725.5"/>
    </contour>
  </outline>
</glyph>
<glyph name="period" format="2">
  <advance width="632.0"/>
  <unicode hex="002E"/>
  <outline>
    <contour>
      <point x="222.5" y="300.0" type="curve" smooth="yes"/>
      <point x="109.5" y="300.0"/>
      <point x="6.0" y="220.5"/>
      <point x="6.0" y="101.5" type="curve" smooth="yes"/>
      <point x="6.0" y="24.5"/>
      <point x="77.5" y="-38.0"/>
      <point x="160.5" y="-38.0" type="curve" smooth="yes"/>
      <point x="271.5" y="-38.0"/>
      <point x="366.0" y="43.0"/>
      <point x="366.0" y="166.5" type="curve" smooth="yes"/>
      <point x="366.0" y="241.0"/>
      <point x="303.5" y="300.0"/>
    </contour>
  </outline>
</glyph>
<glyph name="zero" format="2">
  <advance width="1087.0"/>
  <unicode hex="0030"/>
  <outline>
    <contour>
      <point x="407.5" y="-32.0" type="curve" smooth="yes"/>
      <point x="772.0" y="-32.0"/>
      <point x="1035.0" y="543.5"/>
      <point x="1035.0" y="979.5" type="curve" smooth="yes"/>
      <point x="1035.0" y="1204.0"/>
      <point x="949.5" y="1338.0"/>
      <point x="741.0" y="1338.0" type="curve" smooth="yes"/>
      <point x="378.0" y="1338.0"/>
      <point x="113.0" y="804.0"/>
      <point x="113.0" y="372.0" type="curve" smooth="yes"/>
      <point x="113.0" y="131.5"/>
      <point x="198.0" y="-32.0"/>
    </contour>
    <contour>
      <point x="452.0" y="193.5" type="curve" smooth="yes"/>
      <point x="372.0" y="193.5"/>
      <point x="330.5" y="261.5"/>
      <point x="330.5" y="407.0" type="curve" smooth="yes"/>
      <point x="330.5" y="648.0"/>
      <point x="503.0" y="1134.0"/>
      <point x="702.5" y="1134.0" type="curve" smooth="yes"/>
      <point x="788.5" y="1134.0"/>
      <point x="821.5" y="1049.5"/>
      <point x="821.5" y="913.0" type="curve" smooth="yes"/>
      <point x="821.5" y="662.0"/>
      <point x="651.5" y="193.5"/>
    </contour>
  </outline>
</glyph>
<glyph name="one" format="2">
  <advance width="809.0"/>
  <unicode hex="0031"/>
  <outline>
    <contour>
      <point x="410.5" y="204.5" type="curve"/>
      <point x="449.5" y="319.0"/>
      <point x="488.5" y="444.5"/>
      <point x="518.5" y="558.0" type="curve" smooth="yes"/>
      <point x="617.5" y="930.5"/>
      <point x="694.0" y="1268.0"/>
      <point x="699.0" y="1304.5" type="curve"/>
      <point x="663.5" y="1310.5"/>
      <point x="578.0" y="1314.5"/>
      <point x="531.5" y="1314.5" type="curve"/>
      <point x="431.0" y="1246.0"/>
      <point x="206.0" y="1066.5"/>
      <point x="159.5" y="1028.5" type="curve"/>
      <point x="171.5" y="975.0"/>
      <point x="202.5" y="893.5"/>
      <point x="222.0" y="860.5" type="curve"/>
      <point x="248.0" y="883.5"/>
      <point x="417.5" y="1020.5"/>
      <point x="452.5" y="1045.5" type="curve"/>
      <point x="418.5" y="919.5"/>
      <point x="247.5" y="295.5"/>
      <point x="222.0" y="197.0" type="curve"/>
      <point x="186.0" y="195.0"/>
      <point x="43.5" y="182.0"/>
      <point x="-1.5" y="173.5" type="curve"/>
      <point x="-17.5" y="140.0"/>
      <point x="-47.0" y="35.0"/>
      <point x="-52.0" y="-12.0" type="curve"/>
      <point x="23.0" y="-4.5"/>
      <point x="493.5" y="9.0"/>
      <point x="555.0" y="9.0" type="curve"/>
      <point x="573.0" y="47.0"/>
      <point x="610.0" y="162.5"/>
      <point x="619.0" y="194.0" type="curve"/>
      <point x="587.5" y="199.0"/>
      <point x="476.5" y="204.5"/>
    </contour>
  </outline>
</glyph>
<glyph name="two" format="2">
  <advance width="995.0"/>
  <unicode hex="0032"/>
  <outline>
    <contour>
      <point x="836.5" y="260.0" type="curve"/>
      <point x="732.5" y="255.5"/>
      <point x="402.0" y="228.0"/>
      <point x="319.0" y="218.0" type="curve"/>
      <point x="364.0" y="254.0"/>
      <point x="547.0" y="421.0"/>
      <point x="707.5" y="577.0" type="curve" smooth="yes"/>
      <point x="869.5" y="734.5"/>
      <point x="1046.5" y="961.0"/>
      <point x="1046.5" y="1148.0" type="curve" smooth="yes"/>
      <point x="1046.5" y="1278.5"/>
      <point x="937.5" y="1364.0"/>
      <point x="779.5" y="1364.0" type="curve" smooth="yes"/>
      <point x="561.0" y="1364.0"/>
      <point x="324.5" y="1221.0"/>
      <point x="191.0" y="1022.5" type="curve"/>
      <point x="220.0" y="990.0"/>
      <point x="305.5" y="925.5"/>
      <point x="342.0" y="901.0" type="curve"/>
      <point x="438.5" y="1038.5"/>
      <point x="571.0" y="1148.0"/>
      <point x="710.5" y="1148.0" type="curve" smooth="yes"/>
      <point x="769.0" y="1148.0"/>
      <point x="817.0" y="1124.0"/>
      <point x="817.0" y="1067.0" type="curve" smooth="yes"/>
      <point x="817.0" y="936.5"/>
      <point x="564.5" y="692.0"/>
      <point x="421.0" y="557.0" type="curve" smooth="yes"/>
      <point x="253.0" y="399.5"/>
      <point x="92.5" y="258.5"/>
      <point x="6.5" y="190.5" type="curve"/>
      <point x="-7.0" y="119.0"/>
      <point x="-14.0" y="5.0"/>
      <point x="-15.0" y="-17.0" type="curve"/>
      <point x="787.5" y="27.0" type="line"/>
      <point x="798.5" y="58.0"/>
      <point x="834.0" y="190.0"/>
    </contour>
  </outline>
</glyph>
<glyph name="three" format="2">
  <advance width="1032.0"/>
  <unicode hex="0033"/>
  <outline>
    <contour>
      <point x="373.5" y="-3.0" type="curve" smooth="yes"/>
      <point x="685.5" y="-3.0"/>
      <point x="928.5" y="173.5"/>
      <point x="928.5" y="457.5" type="curve" smooth="yes"/>
      <point x="928.5" y="607.5"/>
      <point x="832.0" y="706.0"/>
      <point x="687.0" y="725.5" type="curve"/>
      <point x="860.5" y="764.0"/>
      <point x="1025.0" y="898.0"/>
      <point x="1025.0" y="1083.5" type="curve" smooth="yes"/>
      <point x="1025.0" y="1241.5"/>
      <point x="916.5" y="1335.0"/>
      <point x="738.5" y="1335.0" type="curve" smooth="yes"/>
      <point x="489.0" y="1335.0"/>
      <point x="291.5" y="1200.5"/>
      <point x="215.5" y="1128.5" type="curve"/>
      <point x="224.5" y="1111.5"/>
      <point x="280.5" y="1041.0"/>
      <point x="331.5" y="993.5" type="curve"/>
      <point x="406.5" y="1064.0"/>
      <point x="545.5" y="1140.0"/>
      <point x="669.5" y="1140.0" type="curve" smooth="yes"/>
      <point x="762.0" y="1140.0"/>
      <point x="793.0" y="1092.5"/>
      <point x="793.0" y="1032.0" type="curve" smooth="yes"/>
      <point x="793.0" y="863.5"/>
      <point x="537.0" y="772.0"/>
      <point x="352.5" y="772.0" type="curve"/>
      <point x="335.0" y="706.0"/>
      <point x="326.5" y="638.0"/>
      <point x="326.5" y="602.0" type="curve"/>
      <point x="578.0" y="602.0"/>
      <point x="710.5" y="560.5"/>
      <point x="710.5" y="431.5" type="curve" smooth="yes"/>
      <point x="710.5" y="286.5"/>
      <point x="570.5" y="183.0"/>
      <point x="409.0" y="183.0" type="curve" smooth="yes"/>
      <point x="283.5" y="183.0"/>
      <point x="226.0" y="249.0"/>
      <point x="220.5" y="346.0" type="curve"/>
      <point x="153.0" y="324.5"/>
      <point x="61.0" y="280.5"/>
      <point x="4.5" y="243.5" type="curve"/>
      <point x="15.5" y="89.5"/>
      <point x="162.0" y="-3.0"/>
    </contour>
  </outline>
</glyph>
<glyph name="four" format="2">
  <advance width="1104.0"/>
  <unicode hex="0034"/>
  <outline>
    <contour>
      <point x="976.0" y="360.5" type="curve"/>
      <point x="994.5" y="428.5"/>
      <point x="1014.0" y="538.0"/>
      <point x="1014.5" y="556.5" type="curve"/>
      <point x="996.0" y="557.0"/>
      <point x="876.0" y="554.5"/>
      <point x="807.5" y="552.0" type="curve"/>
      <point x="889.5" y="848.5"/>
      <point x="1028.0" y="1287.5"/>
      <point x="1046.0" y="1341.5" type="curve"/>
      <point x="997.0" y="1342.0"/>
      <point x="859.0" y="1335.5"/>
      <point x="824.5" y="1331.5" type="curve"/>
      <point x="736.0" y="1254.0"/>
      <point x="245.0" y="691.5"/>
      <point x="98.5" y="494.5" type="curve"/>
      <point x="91.5" y="437.0"/>
      <point x="84.0" y="353.5"/>
      <point x="83.0" y="297.0" type="curve"/>
      <point x="135.5" y="303.5"/>
      <point x="378.0" y="331.0"/>
      <point x="545.0" y="343.0" type="curve"/>
      <point x="511.0" y="244.0"/>
      <point x="470.0" y="115.0"/>
      <point x="436.5" y="-11.0" type="curve"/>
      <point x="474.0" y="-10.5"/>
      <point x="615.0" y="-0.5"/>
      <point x="667.5" y="8.5" type="curve"/>
      <point x="677.0" y="53.0"/>
      <point x="706.0" y="174.0"/>
      <point x="755.0" y="356.5" type="curve"/>
      <point x="823.0" y="359.0"/>
      <point x="914.0" y="360.5"/>
    </contour>
    <contour>
      <point x="792.5" y="1066.0" type="curve"/>
      <point x="752.5" y="973.0"/>
      <point x="643.0" y="624.0"/>
      <point x="620.0" y="541.5" type="curve"/>
      <point x="552.5" y="539.5"/>
      <point x="354.0" y="518.0"/>
      <point x="324.5" y="513.5" type="curve"/>
      <point x="365.5" y="576.5"/>
      <point x="674.5" y="938.5"/>
    </contour>
  </outline>
</glyph>
<glyph name="five" format="2">
  <advance width="1137.0"/>
  <unicode hex="0035"/>
  <outline>
    <contour>
      <point x="13.0" y="205.0" type="curve"/>
      <point x="89.0" y="63.0"/>
      <point x="275.5" y="6.5"/>
      <point x="454.5" y="6.5" type="curve" smooth="yes"/>
      <point x="807.5" y="6.5"/>
      <point x="1084.5" y="277.5"/>
      <point x="1084.5" y="625.0" type="curve" smooth="yes"/>
      <point x="1084.5" y="812.5"/>
      <point x="992.0" y="949.5"/>
      <point x="803.0" y="949.5" type="curve" smooth="yes"/>
      <point x="658.0" y="949.5"/>
      <point x="536.5" y="858.0"/>
      <point x="500.5" y="794.0" type="curve"/>
      <point x="512.0" y="838.0"/>
      <point x="544.0" y="994.5"/>
      <point x="557.5" y="1079.0" type="curve"/>
      <point x="638.5" y="1094.0"/>
      <point x="882.5" y="1121.5"/>
      <point x="1114.0" y="1135.0" type="curve"/>
      <point x="1116.5" y="1184.5"/>
      <point x="1118.5" y="1291.5"/>
      <point x="1116.0" y="1326.5" type="curve"/>
      <point x="952.5" y="1313.5"/>
      <point x="518.0" y="1252.5"/>
      <point x="352.0" y="1217.5" type="curve"/>
      <point x="323.0" y="1001.5"/>
      <point x="282.5" y="789.0"/>
      <point x="225.0" y="573.5" type="curve"/>
      <point x="246.0" y="572.5"/>
      <point x="297.5" y="571.5"/>
      <point x="324.0" y="571.5" type="curve" smooth="yes"/>
      <point x="374.5" y="571.5"/>
      <point x="409.5" y="574.5"/>
      <point x="437.0" y="578.5" type="curve"/>
      <point x="458.5" y="640.5"/>
      <point x="568.5" y="773.5"/>
      <point x="724.0" y="773.5" type="curve" smooth="yes"/>
      <point x="832.0" y="773.5"/>
      <point x="872.0" y="695.5"/>
      <point x="872.0" y="594.5" type="curve" smooth="yes"/>
      <point x="872.0" y="382.5"/>
      <point x="711.0" y="209.0"/>
      <point x="493.0" y="209.0" type="curve" smooth="yes"/>
      <point x="321.0" y="209.0"/>
      <point x="242.0" y="291.5"/>
      <point x="214.0" y="360.0" type="curve"/>
      <point x="175.5" y="338.5"/>
      <point x="57.0" y="255.0"/>
    </contour>
  </outline>
</glyph>
<glyph name="six" format="2">
  <advance width="1154.0"/>
  <unicode hex="0036"/>
  <outline>
    <contour>
      <point x="1054.5" y="1193.5" type="curve"/>
      <point x="1051.5" y="1247.5"/>
      <point x="1013.0" y="1348.5"/>
      <point x="989.0" y="1368.5" type="curve"/>
      <point x="514.5" y="1216.0"/>
      <point x="113.0" y="778.5"/>
      <point x="113.0" y="325.5" type="curve" smooth="yes"/>
      <point x="113.0" y="127.0"/>
      <point x="236.5" y="-9.0"/>
      <point x="464.0" y="-9.0" type="curve" smooth="yes"/>
      <point x="802.5" y="-9.0"/>
      <point x="1056.0" y="233.5"/>
      <point x="1056.0" y="552.5" type="curve" smooth="yes"/>
      <point x="1056.0" y="724.5"/>
      <point x="948.5" y="835.5"/>
      <point x="783.5" y="835.5" type="curve" smooth="yes"/>
      <point x="643.0" y="835.5"/>
      <point x="502.5" y="775.5"/>
      <point x="412.5" y="681.0" type="curve"/>
      <point x="509.0" y="847.0"/>
      <point x="765.5" y="1096.5"/>
    </contour>
    <contour>
      <point x="429.0" y="541.0" type="curve" smooth="yes"/>
      <point x="498.5" y="605.0"/>
      <point x="606.0" y="652.0"/>
      <point x="708.5" y="652.0" type="curve" smooth="yes"/>
      <point x="804.5" y="652.0"/>
      <point x="844.5" y="597.5"/>
      <point x="844.5" y="514.0" type="curve" smooth="yes"/>
      <point x="844.5" y="337.0"/>
      <point x="692.0" y="194.0"/>
      <point x="516.5" y="194.0" type="curve" smooth="yes"/>
      <point x="401.5" y="194.0"/>
      <point x="336.5" y="251.5"/>
      <point x="336.5" y="345.0" type="curve" smooth="yes"/>
      <point x="336.5" y="418.5"/>
      <point x="371.5" y="488.0"/>
    </contour>
  </outline>
</glyph>
<glyph name="seven" format="2">
  <advance width="1012.0"/>
  <unicode hex="0037"/>
  <outline>
    <contour>
      <point x="252.0" y="-26.5" type="curve"/>
      <point x="475.0" y="346.0"/>
      <point x="676.5" y="652.5"/>
      <point x="1168.0" y="1182.0" type="curve"/>
      <point x="1171.0" y="1207.0"/>
      <point x="1184.0" y="1343.0"/>
      <point x="1183.0" y="1370.0" type="curve"/>
      <point x="1010.5" y="1370.0"/>
      <point x="591.5" y="1303.5"/>
      <point x="297.5" y="1240.5" type="curve"/>
      <point x="285.5" y="1196.0"/>
      <point x="260.5" y="1047.0"/>
      <point x="259.0" y="1011.0" type="curve"/>
      <point x="302.0" y="1023.5"/>
      <point x="605.5" y="1096.0"/>
      <point x="882.5" y="1135.0" type="curve"/>
      <point x="593.5" y="880.0"/>
      <point x="215.5" y="382.5"/>
      <point x="10.5" y="53.5" type="curve"/>
      <point x="25.5" y="46.5"/>
      <point x="184.5" y="-10.0"/>
    </contour>
  </outline>
</glyph>
<glyph name="eight" format="2">
  <advance width="1243.0"/>
  <unicode hex="0038"/>
  <outline>
    <contour>
      <point x="520.0" y="-10.0" type="curve" smooth="yes"/>
      <point x="826.5" y="-10.0"/>
      <point x="1098.0" y="174.5"/>
      <point x="1098.0" y="449.5" type="curve" smooth="yes"/>
      <point x="1098.0" y="596.0"/>
      <point x="1014.0" y="687.0"/>
      <point x="918.5" y="702.5" type="curve"/>
      <point x="1085.0" y="747.5"/>
      <point x="1212.0" y="906.5"/>
      <point x="1212.0" y="1094.5" type="curve" smooth="yes"/>
      <point x="1212.0" y="1279.5"/>
      <point x="1062.0" y="1373.5"/>
      <point x="844.0" y="1373.5" type="curve" smooth="yes"/>
      <point x="536.0" y="1373.5"/>
      <point x="288.5" y="1224.5"/>
      <point x="288.5" y="944.0" type="curve" smooth="yes"/>
      <point x="288.5" y="838.0"/>
      <point x="363.0" y="755.5"/>
      <point x="421.5" y="733.0" type="curve"/>
      <point x="238.5" y="679.0"/>
      <point x="71.5" y="508.0"/>
      <point x="71.5" y="289.5" type="curve" smooth="yes"/>
      <point x="71.5" y="96.5"/>
      <point x="229.0" y="-10.0"/>
    </contour>
    <contour>
      <point x="536.5" y="185.0" type="curve" smooth="yes"/>
      <point x="418.5" y="185.0"/>
      <point x="310.5" y="221.5"/>
      <point x="310.5" y="343.0" type="curve" smooth="yes"/>
      <point x="310.5" y="522.5"/>
      <point x="475.5" y="604.5"/>
      <point x="653.0" y="604.5" type="curve" smooth="yes"/>
      <point x="786.0" y="604.5"/>
      <point x="874.0" y="564.5"/>
      <point x="874.0" y="457.0" type="curve" smooth="yes"/>
      <point x="874.0" y="284.0"/>
      <point x="722.0" y="185.0"/>
    </contour>
    <contour>
      <point x="703.0" y="808.5" type="curve" smooth="yes"/>
      <point x="581.5" y="808.5"/>
      <point x="512.0" y="853.0"/>
      <point x="512.0" y="958.5" type="curve" smooth="yes"/>
      <point x="512.0" y="1113.5"/>
      <point x="642.0" y="1194.5"/>
      <point x="801.0" y="1194.5" type="curve" smooth="yes"/>
      <point x="923.5" y="1194.5"/>
      <point x="990.0" y="1151.0"/>
      <point x="990.0" y="1050.5" type="curve" smooth="yes"/>
      <point x="990.0" y="903.0"/>
      <point x="852.0" y="808.5"/>
    </contour>
  </outline>
</glyph>
<glyph name="nine" format="2">
  <advance width="1067.0"/>
  <unicode hex="0039"/>
  <outline>
    <contour>
      <point x="704.0" y="16.5" type="curve"/>
      <point x="859.5" y="282.5"/>
      <point x="1084.5" y="785.0"/>
      <point x="1084.5" y="1048.5" type="curve" smooth="yes"/>
      <point x="1084.5" y="1248.0"/>
      <point x="971.5" y="1364.0"/>
      <point x="739.5" y="1364.0" type="curve" smooth="yes"/>
      <point x="417.5" y="1364.0"/>
      <point x="156.5" y="1132.5"/>
      <point x="156.5" y="801.5" type="curve" smooth="yes"/>
      <point x="156.5" y="608.5"/>
      <point x="253.0" y="480.5"/>
      <point x="461.0" y="480.5" type="curve" smooth="yes"/>
      <point x="614.5" y="480.5"/>
      <point x="713.5" y="543.5"/>
      <point x="756.5" y="597.5" type="curve"/>
      <point x="683.0" y="358.5"/>
      <point x="485.5" y="66.5"/>
      <point x="431.5" y="-1.0" type="curve"/>
      <point x="532.0" y="-1.0"/>
      <point x="650.5" y="6.0"/>
    </contour>
    <contour>
      <point x="714.0" y="1189.5" type="curve" smooth="yes"/>
      <point x="817.0" y="1189.5"/>
      <point x="870.5" y="1135.5"/>
      <point x="870.5" y="1042.5" type="curve" smooth="yes"/>
      <point x="870.5" y="850.5"/>
      <point x="730.5" y="680.5"/>
      <point x="533.0" y="680.5" type="curve" smooth="yes"/>
      <point x="433.0" y="680.5"/>
      <point x="379.0" y="747.5"/>
      <point x="379.0" y="848.5" type="curve" smooth="yes"/>
      <point x="379.0" y="1043.5"/>
      <point x="518.0" y="1189.5"/>
    </contour>
  </outline>
</glyph>
<glyph name="colon" format="2">
  <advance width="564.0"/>
  <unicode hex="003A"/>
  <outline>
    <contour>
      <point x="149.5" y="-9.5" type="curve" smooth="yes"/>
      <point x="242.5" y="-9.5"/>
      <point x="318.5" y="54.5"/>
      <point x="318.5" y="145.5" type="curve" smooth="yes"/>
      <point x="318.5" y="241.0"/>
      <point x="249.5" y="319.5"/>
      <point x="147.5" y="319.5" type="curve" smooth="yes"/>
      <point x="51.5" y="319.5"/>
      <point x="-28.0" y="237.0"/>
      <point x="-28.0" y="145.0" type="curve" smooth="yes"/>
      <point x="-28.0" y="59.0"/>
      <point x="54.0" y="-9.5"/>
    </contour>
    <component base="period" xOffset="146.0" yOffset="708.5"/>
  </outline>
</glyph>
<glyph name="semicolon" format="2">
  <advance width="593.0"/>
  <unicode hex="003B"/>
  <outline>
    <contour>
      <point x="393.5" y="984.0" type="curve" smooth="yes"/>
      <point x="280.5" y="984.0"/>
      <point x="177.0" y="904.5"/>
      <point x="177.0" y="785.5" type="curve" smooth="yes"/>
      <point x="177.0" y="708.5"/>
      <point x="248.5" y="646.0"/>
      <point x="331.5" y="646.0" type="curve" smooth="yes"/>
      <point x="442.5" y="646.0"/>
      <point x="537.0" y="727.0"/>
      <point x="537.0" y="850.5" type="curve" smooth="yes"/>
      <point x="537.0" y="925.0"/>
      <point x="474.5" y="984.0"/>
    </contour>
    <contour>
      <point x="94.5" y="-313.5" type="curve"/>
      <point x="227.5" y="-227.0"/>
      <point x="346.0" y="-43.0"/>
      <point x="346.0" y="97.5" type="curve" smooth="yes"/>
      <point x="346.0" y="203.0"/>
      <point x="268.0" y="253.5"/>
      <point x="173.0" y="253.5" type="curve" smooth="yes"/>
      <point x="47.5" y="253.5"/>
      <point x="-49.5" y="179.0"/>
      <point x="-49.5" y="65.5" type="curve" smooth="yes"/>
      <point x="-49.5" y="0.5"/>
      <point x="-17.5" y="-49.0"/>
      <point x="54.5" y="-49.0" type="curve" smooth="yes"/>
      <point x="113.5" y="-49.0"/>
      <point x="148.5" y="-22.0"/>
      <point x="163.0" y="6.0" type="curve"/>
      <point x="163.5" y="3.5"/>
      <point x="163.0" y="-0.5"/>
      <point x="162.5" y="-4.0" type="curve" smooth="yes"/>
      <point x="158.0" y="-55.5"/>
      <point x="44.5" y="-170.5"/>
      <point x="-16.5" y="-208.5" type="curve"/>
      <point x="1.0" y="-261.5"/>
      <point x="76.0" y="-305.5"/>
    </contour>
  </outline>
</glyph>
<glyph name="less" format="2">
  <advance width="807.0"/>
  <unicode hex="003C"/>
  <outline>
    <contour>
      <point x="812.5" y="1120.5" type="curve"/>
      <point x="714.0" y="1068.5"/>
      <point x="343.5" y="806.0"/>
      <point x="94.5" y="621.0" type="curve"/>
      <point x="44.5" y="450.5" type="line"/>
      <point x="245.0" y="382.0"/>
      <point x="442.0" y="294.0"/>
      <point x="618.0" y="210.0" type="curve"/>
      <point x="645.5" y="257.5"/>
      <point x="685.5" y="340.0"/>
      <point x="699.5" y="386.5" type="curve"/>
      <point x="643.5" y="426.5"/>
      <point x="336.5" y="550.5"/>
      <point x="208.0" y="595.5" type="curve"/>
      <point x="234.0" y="531.5" type="line"/>
      <point x="473.5" y="695.5"/>
      <point x="671.5" y="824.0"/>
      <point x="917.0" y="978.0" type="curve"/>
      <point x="913.5" y="1021.0"/>
      <point x="853.5" y="1090.5"/>
    </contour>
  </outline>
</glyph>
<glyph name="equal" format="2">
  <advance width="1050.0"/>
  <unicode hex="003D"/>
  <outline>
    <contour>
      <point x="211.5" y="1052.5" type="curve"/>
      <point x="191.5" y="1024.5"/>
      <point x="153.0" y="910.5"/>
      <point x="141.0" y="867.0" type="curve"/>
      <point x="308.0" y="877.5"/>
      <point x="933.0" y="898.5"/>
      <point x="1115.0" y="900.0" type="curve"/>
      <point x="1122.5" y="930.0"/>
      <point x="1151.0" y="1079.5"/>
      <point x="1154.5" y="1113.0" type="curve"/>
      <point x="919.5" y="1113.0"/>
      <point x="363.0" y="1081.5"/>
    </contour>
    <contour>
      <point x="57.5" y="616.0" type="curve"/>
      <point x="43.5" y="572.0"/>
      <point x="15.5" y="463.0"/>
      <point x="13.0" y="435.5" type="curve"/>
      <point x="228.0" y="440.5"/>
      <point x="828.0" y="437.0"/>
      <point x="995.5" y="437.0" type="curve"/>
      <point x="1004.0" y="467.0"/>
      <point x="1030.5" y="605.5"/>
      <point x="1033.5" y="639.5" type="curve"/>
      <point x="959.5" y="644.0"/>
      <point x="852.5" y="647.0"/>
      <point x="734.5" y="647.0" type="curve" smooth="yes"/>
      <point x="517.5" y="647.0"/>
      <point x="256.0" y="636.5"/>
    </contour>
  </outline>
</glyph>
<glyph name="greater" format="2">
  <advance width="790.0"/>
  <unicode hex="003E"/>
  <outline>
    <contour>
      <point x="209.5" y="989.0" type="curve"/>
      <point x="323.0" y="909.5"/>
      <point x="567.5" y="726.5"/>
      <point x="652.0" y="656.0" type="curve"/>
      <point x="655.0" y="732.5" type="line"/>
      <point x="432.0" y="619.5"/>
      <point x="40.5" y="413.5"/>
      <point x="-2.0" y="393.0" type="curve"/>
      <point x="-2.0" y="354.5"/>
      <point x="28.0" y="263.0"/>
      <point x="40.0" y="231.5" type="curve"/>
      <point x="82.0" y="241.5"/>
      <point x="476.5" y="418.5"/>
      <point x="782.0" y="564.0" type="curve"/>
      <point x="831.5" y="763.0" type="line"/>
      <point x="663.0" y="907.0"/>
      <point x="421.5" y="1098.0"/>
      <point x="372.0" y="1112.0" type="curve"/>
      <point x="326.5" y="1090.5"/>
      <point x="252.0" y="1029.5"/>
    </contour>
  </outline>
</glyph>
<glyph name="question" format="2">
  <advance width="1036.0"/>
  <unicode hex="003F"/>
  <outline>
    <contour>
      <point x="616.0" y="422.5" type="curve"/>
      <point x="666.5" y="607.5"/>
      <point x="769.5" y="714.0"/>
      <point x="876.0" y="785.0" type="curve" smooth="yes"/>
      <point x="1033.0" y="890.0"/>
      <point x="1139.5" y="1009.0"/>
      <point x="1139.5" y="1204.5" type="curve" smooth="yes"/>
      <point x="1139.5" y="1385.5"/>
      <point x="1001.5" y="1472.0"/>
      <point x="779.0" y="1472.0" type="curve" smooth="yes"/>
      <point x="543.5" y="1472.0"/>
      <point x="329.5" y="1359.5"/>
      <point x="204.5" y="1129.5" type="curve"/>
      <point x="377.0" y="1025.0" type="line"/>
      <point x="454.5" y="1142.5"/>
      <point x="548.0" y="1263.5"/>
      <point x="736.0" y="1263.5" type="curve" smooth="yes"/>
      <point x="838.5" y="1263.5"/>
      <point x="886.0" y="1224.5"/>
      <point x="886.0" y="1147.5" type="curve" smooth="yes"/>
      <point x="886.0" y="1039.5"/>
      <point x="805.5" y="955.5"/>
      <point x="682.0" y="877.5" type="curve" smooth="yes"/>
      <point x="508.0" y="766.0"/>
      <point x="420.0" y="611.0"/>
      <point x="373.5" y="437.0" type="curve"/>
      <point x="453.0" y="427.5"/>
      <point x="518.0" y="422.5"/>
    </contour>
    <contour>
      <point x="402.5" y="-10.0" type="curve" smooth="yes"/>
      <point x="506.5" y="-10.0"/>
      <point x="611.0" y="75.0"/>
      <point x="611.0" y="180.0" type="curve" smooth="yes"/>
      <point x="611.0" y="251.5"/>
      <point x="556.0" y="300.0"/>
      <point x="466.0" y="300.0" type="curve" smooth="yes"/>
      <point x="371.0" y="300.0"/>
      <point x="263.0" y="232.5"/>
      <point x="263.0" y="119.5" type="curve" smooth="yes"/>
      <point x="263.0" y="39.0"/>
      <point x="320.5" y="-10.0"/>
    </contour>
  </outline>
</glyph>
<glyph name="at" format="2">
  <advance width="1920.0"/>
  <unicode hex="0040"/>
  <outline>
    <contour>
      <point x="758.0" y="-41.0" type="curve" smooth="yes"/>
      <point x="1057.0" y="-41.0"/>
      <point x="1276.0" y="52.0"/>
      <point x="1386.0" y="178.0" type="curve"/>
      <point x="1253.5" y="301.0" type="line"/>
      <point x="1170.0" y="213.0"/>
      <point x="1028.5" y="134.0"/>
      <point x="802.5" y="134.0" type="curve" smooth="yes"/>
      <point x="497.5" y="134.0"/>
      <point x="320.5" y="287.0"/>
      <point x="320.5" y="548.5" type="curve" smooth="yes"/>
      <point x="320.5" y="1005.0"/>
      <point x="762.5" y="1316.0"/>
      <point x="1235.0" y="1316.0" type="curve" smooth="yes"/>
      <point x="1549.5" y="1316.0"/>
      <point x="1716.5" y="1177.5"/>
      <point x="1716.5" y="906.5" type="curve" smooth="yes"/>
      <point x="1716.5" y="734.5"/>
      <point x="1639.5" y="527.5"/>
      <point x="1505.0" y="527.5" type="curve" smooth="yes"/>
      <point x="1439.0" y="527.5"/>
      <point x="1416.0" y="556.0"/>
      <point x="1416.0" y="634.0" type="curve" smooth="yes"/>
      <point x="1416.0" y="667.5"/>
      <point x="1431.0" y="931.0"/>
      <point x="1448.0" y="1119.5" type="curve"/>
      <point x="1407.5" y="1117.5"/>
      <point x="1319.0" y="1113.5"/>
      <point x="1283.5" y="1112.0" type="curve"/>
      <point x="1279.5" y="1093.0"/>
      <point x="1273.5" y="1055.0"/>
      <point x="1271.5" y="1030.0" type="curve"/>
      <point x="1241.0" y="1061.0"/>
      <point x="1172.5" y="1089.5"/>
      <point x="1072.0" y="1089.5" type="curve" smooth="yes"/>
      <point x="818.5" y="1089.5"/>
      <point x="593.5" y="870.5"/>
      <point x="593.5" y="613.5" type="curve" smooth="yes"/>
      <point x="593.5" y="454.0"/>
      <point x="693.0" y="353.0"/>
      <point x="881.0" y="353.0" type="curve" smooth="yes"/>
      <point x="1033.0" y="353.0"/>
      <point x="1184.0" y="415.5"/>
      <point x="1254.0" y="523.0" type="curve"/>
      <point x="1256.0" y="414.5"/>
      <point x="1348.5" y="353.0"/>
      <point x="1469.5" y="353.0" type="curve" smooth="yes"/>
      <point x="1746.0" y="353.0"/>
      <point x="1914.5" y="624.0"/>
      <point x="1914.5" y="934.5" type="curve" smooth="yes"/>
      <point x="1914.5" y="1295.0"/>
      <point x="1662.0" y="1497.0"/>
      <point x="1252.0" y="1497.0" type="curve" smooth="yes"/>
      <point x="644.0" y="1497.0"/>
      <point x="99.0" y="1081.5"/>
      <point x="99.0" y="505.5" type="curve" smooth="yes"/>
      <point x="99.0" y="161.5"/>
      <point x="362.5" y="-41.0"/>
    </contour>
    <contour>
      <point x="948.5" y="534.0" type="curve" smooth="yes"/>
      <point x="868.0" y="534.0"/>
      <point x="807.0" y="579.0"/>
      <point x="807.0" y="661.5" type="curve" smooth="yes"/>
      <point x="807.0" y="798.0"/>
      <point x="916.0" y="918.5"/>
      <point x="1090.0" y="918.5" type="curve" smooth="yes"/>
      <point x="1163.5" y="918.5"/>
      <point x="1223.0" y="897.5"/>
      <point x="1253.5" y="869.5" type="curve"/>
      <point x="1243.0" y="685.0" type="line"/>
      <point x="1175.5" y="596.5"/>
      <point x="1075.0" y="534.0"/>
    </contour>
  </outline>
</glyph>
<glyph name="A" format="2">
  <advance width="1101.5"/>
  <unicode hex="0041"/>
  <anchor x="480.0" y="0.0" name="bottom"/>
  <anchor x="808.0" y="2.5" name="ogonek"/>
  <anchor x="852.0" y="1330.0" name="top"/>
  <outline>
    <contour>
      <point x="176.5" y="-15.0" type="curve"/>
      <point x="212.0" y="74.0"/>
      <point x="290.0" y="248.0"/>
      <point x="368.0" y="408.0" type="curve"/>
      <point x="408.0" y="416.0"/>
      <point x="636.0" y="434.0"/>
      <point x="742.5" y="435.0" type="curve"/>
      <point x="716.5" y="329.0"/>
      <point x="662.5" y="80.0"/>
      <point x="644.5" y="-15.0" type="curve"/>
      <point x="722.5" y="-15.0"/>
      <point x="847.5" y="-8.0"/>
      <point x="903.5" y="1.0" type="curve"/>
      <point x="1040.0" y="702.0"/>
      <point x="1092.0" y="1089.0"/>
      <point x="1102.5" y="1323.0" type="curve"/>
      <point x="1048.0" y="1330.0"/>
      <point x="988.0" y="1333.5"/>
      <point x="929.5" y="1333.5" type="curve" smooth="yes"/>
      <point x="807.5" y="1333.5"/>
      <point x="672.0" y="1319.0"/>
      <point x="569.0" y="1305.0" type="curve"/>
      <point x="386.5" y="968.0"/>
      <point x="18.5" y="218.0"/>
      <point x="-79.5" y="-4.5" type="curve"/>
      <point x="-19.0" y="-9.5"/>
      <point x="120.5" y="-15.0"/>
    </contour>
    <contour>
      <point x="457.0" y="616.5" type="curve"/>
      <point x="549.5" y="817.5"/>
      <point x="657.0" y="1042.0"/>
      <point x="692.5" y="1113.0" type="curve"/>
      <point x="723.0" y="1117.0"/>
      <point x="840.0" y="1126.0"/>
      <point x="882.0" y="1126.0" type="curve"/>
      <point x="872.5" y="1036.0"/>
      <point x="807.0" y="718.0"/>
      <point x="792.0" y="644.0" type="curve"/>
      <point x="697.5" y="641.0"/>
      <point x="523.5" y="629.0"/>
    </contour>
  </outline>
</glyph>
<glyph name="B" format="2">
  <advance width="1174.0"/>
  <unicode hex="0042"/>
  <anchor x="444.585" y="0.0" name="bottom"/>
  <anchor x="790.507" y="1291.0" name="top"/>
  <outline>
    <contour>
      <point x="6.5" y="19.5" type="curve"/>
      <point x="61.5" y="8.0"/>
      <point x="147.0" y="3.0"/>
      <point x="231.5" y="3.0" type="curve" smooth="yes"/>
      <point x="649.5" y="3.0"/>
      <point x="1055.0" y="104.0"/>
      <point x="1055.0" y="457.0" type="curve" smooth="yes"/>
      <point x="1055.0" y="596.0"/>
      <point x="953.0" y="694.5"/>
      <point x="809.5" y="700.5" type="curve" smooth="yes"/>
      <point x="799.5" y="701.0"/>
      <point x="795.5" y="701.0"/>
      <point x="790.0" y="701.0" type="curve"/>
      <point x="948.0" y="732.0"/>
      <point x="1108.0" y="879.0"/>
      <point x="1108.0" y="1061.0" type="curve" smooth="yes"/>
      <point x="1108.0" y="1236.0"/>
      <point x="979.5" y="1306.0"/>
      <point x="790.5" y="1306.0" type="curve" smooth="yes"/>
      <point x="629.5" y="1306.0"/>
      <point x="460.0" y="1293.5"/>
      <point x="365.5" y="1285.0" type="curve"/>
      <point x="355.5" y="1249.5"/>
      <point x="55.0" y="201.0"/>
    </contour>
    <contour>
      <point x="311.0" y="226.5" type="curve"/>
      <point x="403.5" y="576.5" type="line"/>
      <point x="449.5" y="581.5"/>
      <point x="547.5" y="583.5"/>
      <point x="581.5" y="583.5" type="curve" smooth="yes"/>
      <point x="753.0" y="583.5"/>
      <point x="830.0" y="546.5"/>
      <point x="830.0" y="452.0" type="curve" smooth="yes"/>
      <point x="830.0" y="254.0"/>
      <point x="571.5" y="226.0"/>
      <point x="359.0" y="226.0" type="curve" smooth="yes"/>
      <point x="338.0" y="226.0"/>
      <point x="320.5" y="226.0"/>
    </contour>
    <contour>
      <point x="451.5" y="768.5" type="curve"/>
      <point x="541.0" y="1116.5" type="line"/>
      <point x="585.5" y="1122.5"/>
      <point x="664.0" y="1132.0"/>
      <point x="729.0" y="1132.0" type="curve" smooth="yes"/>
      <point x="826.0" y="1132.0"/>
      <point x="887.5" y="1100.5"/>
      <point x="887.5" y="1005.0" type="curve" smooth="yes"/>
      <point x="887.5" y="890.0"/>
      <point x="785.5" y="827.0"/>
      <point x="686.0" y="797.0" type="curve" smooth="yes"/>
      <point x="634.5" y="774.5"/>
      <point x="573.0" y="769.5"/>
    </contour>
  </outline>
</glyph>
<glyph name="C" format="2">
  <advance width="1137.0"/>
  <unicode hex="0043"/>
  <anchor x="411.7925" y="0.0" name="bottom"/>
  <anchor x="757.7535" y="1291.0" name="top"/>
  <outline>
    <contour>
      <point x="1027.0" y="237.0" type="curve"/>
      <point x="1009.0" y="288.5"/>
      <point x="939.5" y="383.0"/>
      <point x="897.0" y="418.5" type="curve"/>
      <point x="810.0" y="333.5"/>
      <point x="683.0" y="231.0"/>
      <point x="535.5" y="231.0" type="curve" smooth="yes"/>
      <point x="401.5" y="231.0"/>
      <point x="341.0" y="345.5"/>
      <point x="341.0" y="524.0" type="curve" smooth="yes"/>
      <point x="341.0" y="791.0"/>
      <point x="516.0" y="1111.5"/>
      <point x="768.5" y="1111.5" type="curve" smooth="yes"/>
      <point x="959.5" y="1111.5"/>
      <point x="994.0" y="971.0"/>
      <point x="998.5" y="936.0" type="curve"/>
      <point x="1056.0" y="967.0"/>
      <point x="1163.5" y="1037.0"/>
      <point x="1215.0" y="1081.5" type="curve"/>
      <point x="1169.5" y="1238.0"/>
      <point x="995.0" y="1326.0"/>
      <point x="802.0" y="1326.0" type="curve" smooth="yes"/>
      <point x="386.0" y="1326.0"/>
      <point x="72.5" y="916.0"/>
      <point x="72.5" y="468.0" type="curve" smooth="yes"/>
      <point x="72.5" y="209.5"/>
      <point x="210.5" y="-10.5"/>
      <point x="495.5" y="-10.5" type="curve" smooth="yes"/>
      <point x="716.0" y="-10.5"/>
      <point x="894.0" y="100.0"/>
    </contour>
  </outline>
</glyph>
<glyph name="D" format="2">
  <advance width="1198.0"/>
  <unicode hex="0044"/>
  <anchor x="456.585" y="0.0" name="bottom"/>
  <anchor x="384.5" y="646.0" name="center"/>
  <anchor x="716.0" y="1291.0" name="top"/>
  <outline>
    <contour>
      <point x="75.5" y="-30.5" type="curve"/>
      <point x="816.5" y="-19.0"/>
      <point x="1138.5" y="248.0"/>
      <point x="1138.5" y="813.5" type="curve" smooth="yes"/>
      <point x="1138.5" y="1105.5"/>
      <point x="1009.5" y="1325.0"/>
      <point x="643.0" y="1325.0" type="curve" smooth="yes"/>
      <point x="532.5" y="1325.0"/>
      <point x="384.5" y="1309.0"/>
      <point x="318.5" y="1299.0" type="curve"/>
      <point x="300.5" y="1210.0"/>
      <point x="110.5" y="198.5"/>
    </contour>
    <contour>
      <point x="364.5" y="217.0" type="curve"/>
      <point x="417.5" y="496.0"/>
      <point x="478.5" y="819.0"/>
      <point x="535.5" y="1113.5" type="curve"/>
      <point x="564.5" y="1115.5"/>
      <point x="618.5" y="1117.5"/>
      <point x="648.0" y="1117.5" type="curve" smooth="yes"/>
      <point x="837.0" y="1117.5"/>
      <point x="893.5" y="983.0"/>
      <point x="893.5" y="795.5" type="curve" smooth="yes"/>
      <point x="893.5" y="498.5"/>
      <point x="753.5" y="237.0"/>
    </contour>
  </outline>
</glyph>
<glyph name="E" format="2">
  <advance width="957.0"/>
  <unicode hex="0045"/>
  <anchor x="336.7925" y="0.0" name="bottom"/>
  <anchor x="590.0" y="0.0" name="ogonek"/>
  <anchor x="683.0" y="1316.0" name="top"/>
  <anchor x="223.7535" y="1291.0" name="topleft"/>
  <outline>
    <contour>
      <point x="689.0" y="-12.0" type="curve"/>
      <point x="705.0" y="15.5"/>
      <point x="758.0" y="153.0"/>
      <point x="781.0" y="233.5" type="curve"/>
      <point x="719.5" y="238.5"/>
      <point x="588.5" y="245.0"/>
      <point x="468.0" y="245.0" type="curve" smooth="yes"/>
      <point x="397.5" y="245.0"/>
      <point x="308.5" y="244.5"/>
      <point x="283.0" y="243.5" type="curve"/>
      <point x="305.5" y="327.5"/>
      <point x="375.5" y="583.0"/>
      <point x="387.5" y="623.5" type="curve"/>
      <point x="448.0" y="625.0"/>
      <point x="701.5" y="618.5"/>
      <point x="748.5" y="617.0" type="curve"/>
      <point x="800.5" y="816.0" type="line"/>
      <point x="711.0" y="815.0"/>
      <point x="518.0" y="807.5"/>
      <point x="441.5" y="806.0" type="curve"/>
      <point x="455.5" y="858.0"/>
      <point x="504.5" y="1035.0"/>
      <point x="522.5" y="1087.5" type="curve"/>
      <point x="1015.0" y="1126.5" type="line"/>
      <point x="1040.5" y="1197.0"/>
      <point x="1060.5" y="1255.0"/>
      <point x="1079.0" y="1324.0" type="curve"/>
      <point x="1024.0" y="1324.0"/>
      <point x="710.0" y="1313.5"/>
      <point x="329.0" y="1251.0" type="curve"/>
      <point x="301.0" y="1166.0"/>
      <point x="235.5" y="945.5"/>
      <point x="149.5" y="625.0" type="curve" smooth="yes"/>
      <point x="100.0" y="440.5"/>
      <point x="47.5" y="231.5"/>
      <point x="-2.0" y="16.5" type="curve"/>
      <point x="90.0" y="13.5"/>
      <point x="191.5" y="10.0"/>
      <point x="283.0" y="6.5" type="curve" smooth="yes"/>
      <point x="423.0" y="3.0"/>
      <point x="552.0" y="-3.5"/>
    </contour>
  </outline>
</glyph>
<glyph name="F" format="2">
  <advance width="949.0"/>
  <unicode hex="0046"/>
  <anchor x="322.7925" y="0.0" name="bottom"/>
  <anchor x="668.7535" y="1291.0" name="top"/>
  <outline>
    <contour>
      <point x="292.0" y="-13.0" type="line"/>
      <point x="342.5" y="175.5"/>
      <point x="392.5" y="418.5"/>
      <point x="424.5" y="587.5" type="curve"/>
      <point x="541.5" y="587.5"/>
      <point x="704.5" y="577.0"/>
      <point x="803.0" y="566.0" type="curve"/>
      <point x="826.0" y="627.0"/>
      <point x="848.0" y="700.5"/>
      <point x="861.5" y="760.0" type="curve"/>
      <point x="823.0" y="767.0"/>
      <point x="648.5" y="786.5"/>
      <point x="462.5" y="786.5" type="curve"/>
      <point x="483.5" y="882.5"/>
      <point x="514.0" y="1024.0"/>
      <point x="525.5" y="1091.5" type="curve"/>
      <point x="760.0" y="1091.5"/>
      <point x="941.0" y="1076.5"/>
      <point x="1015.0" y="1068.5" type="curve"/>
      <point x="1029.5" y="1122.5"/>
      <point x="1049.0" y="1209.5"/>
      <point x="1061.5" y="1280.0" type="curve"/>
      <point x="970.0" y="1295.5"/>
      <point x="864.0" y="1306.5"/>
      <point x="725.5" y="1308.5" type="curve" smooth="yes"/>
      <point x="616.0" y="1310.0"/>
      <point x="486.5" y="1309.5"/>
      <point x="338.5" y="1304.0" type="curve"/>
      <point x="252.5" y="898.5"/>
      <point x="146.0" y="429.5"/>
      <point x="37.0" y="2.5" type="curve"/>
    </contour>
  </outline>
</glyph>
<glyph name="G" format="2">
  <advance width="1275.0"/>
  <unicode hex="0047"/>
  <anchor x="495.585" y="0.0" name="bottom"/>
  <anchor x="841.507" y="1291.0" name="top"/>
  <outline>
    <contour>
      <point x="597.5" y="-48.0" type="curve" smooth="yes"/>
      <point x="939.0" y="-48.0"/>
      <point x="1123.0" y="183.5"/>
      <point x="1203.5" y="485.5" type="curve" smooth="yes"/>
      <point x="1217.5" y="538.5"/>
      <point x="1229.0" y="603.5"/>
      <point x="1234.0" y="657.0" type="curve"/>
      <point x="1084.0" y="694.5"/>
      <point x="819.5" y="724.5"/>
      <point x="674.5" y="729.5" type="curve"/>
      <point x="658.0" y="686.0"/>
      <point x="631.5" y="593.0"/>
      <point x="621.5" y="550.5" type="curve"/>
      <point x="710.5" y="546.5"/>
      <point x="919.5" y="517.5"/>
      <point x="971.5" y="505.5" type="curve"/>
      <point x="968.0" y="487.0"/>
      <point x="963.0" y="463.5"/>
      <point x="957.5" y="442.0" type="curve" smooth="yes"/>
      <point x="918.5" y="297.5"/>
      <point x="818.0" y="167.5"/>
      <point x="631.0" y="167.5" type="curve" smooth="yes"/>
      <point x="432.0" y="167.5"/>
      <point x="356.0" y="274.5"/>
      <point x="356.0" y="455.5" type="curve" smooth="yes"/>
      <point x="356.0" y="762.5"/>
      <point x="532.0" y="1106.0"/>
      <point x="822.5" y="1106.0" type="curve" smooth="yes"/>
      <point x="958.5" y="1106.0"/>
      <point x="1026.0" y="1057.0"/>
      <point x="1067.0" y="952.5" type="curve"/>
      <point x="1146.0" y="994.5"/>
      <point x="1253.5" y="1078.5"/>
      <point x="1290.0" y="1112.5" type="curve"/>
      <point x="1244.5" y="1232.0"/>
      <point x="1080.5" y="1338.0"/>
      <point x="860.5" y="1338.0" type="curve" smooth="yes"/>
      <point x="398.0" y="1338.0"/>
      <point x="110.0" y="906.0"/>
      <point x="110.0" y="426.5" type="curve" smooth="yes"/>
      <point x="110.0" y="127.5"/>
      <point x="281.5" y="-48.0"/>
    </contour>
  </outline>
</glyph>
<glyph name="H" format="2">
  <advance width="1094.0"/>
  <unicode hex="0048"/>
  <anchor x="434.7925" y="0.0" name="bottom"/>
  <anchor x="716.0" y="1063.0" name="center"/>
  <anchor x="735.7535" y="1291.0" name="top"/>
  <anchor x="223.507" y="1291.0" name="topleft"/>
  <outline>
    <contour>
      <point x="31.0" y="1.5" type="curve"/>
      <point x="88.5" y="1.5"/>
      <point x="231.0" y="7.0"/>
      <point x="278.5" y="13.0" type="curve"/>
      <point x="284.0" y="39.0"/>
      <point x="353.0" y="353.0"/>
      <point x="398.0" y="554.5" type="curve"/>
      <point x="463.5" y="554.5"/>
      <point x="669.5" y="559.5"/>
      <point x="739.0" y="561.5" type="curve"/>
      <point x="694.0" y="408.5"/>
      <point x="640.5" y="211.0"/>
      <point x="590.0" y="0.0" type="curve"/>
      <point x="671.5" y="0.0"/>
      <point x="776.0" y="3.0"/>
      <point x="815.0" y="7.0" type="curve"/>
      <point x="837.5" y="96.0"/>
      <point x="883.0" y="265.0"/>
      <point x="935.5" y="441.0" type="curve" smooth="yes"/>
      <point x="1028.0" y="760.0"/>
      <point x="1156.0" y="1175.0"/>
      <point x="1207.5" y="1299.0" type="curve"/>
      <point x="1177.5" y="1303.5"/>
      <point x="1106.5" y="1307.0"/>
      <point x="1043.0" y="1307.0" type="curve" smooth="yes"/>
      <point x="1012.0" y="1307.0"/>
      <point x="977.5" y="1305.5"/>
      <point x="960.0" y="1304.0" type="curve"/>
      <point x="909.5" y="1147.0"/>
      <point x="842.0" y="922.0"/>
      <point x="799.0" y="778.5" type="curve"/>
      <point x="730.0" y="777.0"/>
      <point x="519.5" y="768.0"/>
      <point x="444.0" y="760.0" type="curve"/>
      <point x="453.0" y="797.0"/>
      <point x="482.5" y="921.5"/>
      <point x="512.0" y="1036.5" type="curve" smooth="yes"/>
      <point x="533.5" y="1121.0"/>
      <point x="560.0" y="1225.0"/>
      <point x="577.5" y="1293.0" type="curve"/>
      <point x="516.0" y="1293.0"/>
      <point x="365.5" y="1285.0"/>
      <point x="339.5" y="1282.0" type="curve"/>
      <point x="322.5" y="1233.5"/>
      <point x="301.0" y="1159.5"/>
      <point x="277.5" y="1070.0" type="curve" smooth="yes"/>
      <point x="186.5" y="723.0"/>
      <point x="54.0" y="148.0"/>
    </contour>
  </outline>
</glyph>
<glyph name="I" format="2">
  <advance width="537.5"/>
  <unicode hex="0049"/>
  <anchor x="124.5" y="0.0" name="bottom"/>
  <anchor x="230.0" y="-12.0" name="ogonek"/>
  <anchor x="470.5" y="1291.0" name="top"/>
  <anchor x="231.0" y="1291.0" name="topleft"/>
  <outline>
    <contour>
      <point x="230.0" y="-12.0" type="curve"/>
      <point x="262.0" y="70.0"/>
      <point x="351.5" y="392.0"/>
      <point x="398.0" y="565.5" type="curve" smooth="yes"/>
      <point x="457.5" y="789.0"/>
      <point x="530.0" y="1085.5"/>
      <point x="584.5" y="1321.5" type="curve"/>
      <point x="524.0" y="1321.5"/>
      <point x="392.0" y="1318.0"/>
      <point x="357.5" y="1316.0" type="curve"/>
      <point x="282.5" y="1053.0"/>
      <point x="215.5" y="811.5"/>
      <point x="163.0" y="614.5" type="curve" smooth="yes"/>
      <point x="109.5" y="413.0"/>
      <point x="39.5" y="138.0"/>
      <point x="6.5" y="-2.0" type="curve"/>
      <point x="66.0" y="-10.5"/>
      <point x="173.5" y="-12.0"/>
    </contour>
  </outline>
</glyph>
<glyph name="J" format="2">
  <advance width="1178.0"/>
  <unicode hex="004A"/>
  <anchor x="446.585" y="0.0" name="bottom"/>
  <anchor x="1073.5" y="1291.0" name="top"/>
  <outline>
    <contour>
      <point x="461.0" y="-19.0" type="curve" smooth="yes"/>
      <point x="768.5" y="-19.0"/>
      <point x="965.0" y="180.5"/>
      <point x="1072.5" y="599.5" type="curve" smooth="yes"/>
      <point x="1120.5" y="785.0"/>
      <point x="1189.5" y="1124.5"/>
      <point x="1219.5" y="1296.0" type="curve"/>
      <point x="1186.0" y="1300.5"/>
      <point x="1149.0" y="1302.5"/>
      <point x="1103.0" y="1302.5" type="curve" smooth="yes"/>
      <point x="1059.0" y="1302.5"/>
      <point x="1004.5" y="1297.0"/>
      <point x="964.0" y="1289.0" type="curve"/>
      <point x="961.5" y="1267.0"/>
      <point x="878.5" y="811.0"/>
      <point x="823.5" y="604.5" type="curve" smooth="yes"/>
      <point x="758.0" y="360.0"/>
      <point x="662.5" y="213.5"/>
      <point x="507.5" y="213.5" type="curve" smooth="yes"/>
      <point x="358.0" y="213.5"/>
      <point x="297.5" y="351.5"/>
      <point x="297.5" y="514.5" type="curve"/>
      <point x="232.5" y="492.0"/>
      <point x="86.5" y="431.0"/>
      <point x="39.0" y="402.5" type="curve"/>
      <point x="44.5" y="152.0"/>
      <point x="190.5" y="-19.0"/>
    </contour>
  </outline>
</glyph>
<glyph name="K" format="2">
  <advance width="1088.0"/>
  <unicode hex="004B"/>
  <anchor x="415.585" y="0.0" name="bottom"/>
  <anchor x="761.507" y="1291.0" name="top"/>
  <outline>
    <contour>
      <point x="21.5" y="-32.0" type="curve"/>
      <point x="124.0" y="-22.0"/>
      <point x="248.0" y="-9.5"/>
      <point x="280.0" y="-7.0" type="curve"/>
      <point x="289.0" y="26.5"/>
      <point x="354.0" y="326.5"/>
      <point x="392.0" y="515.0" type="curve"/>
      <point x="413.5" y="524.0"/>
      <point x="455.0" y="544.5"/>
      <point x="481.0" y="561.5" type="curve"/>
      <point x="589.0" y="390.5"/>
      <point x="676.5" y="60.5"/>
      <point x="686.0" y="-1.5" type="curve"/>
      <point x="758.0" y="20.5"/>
      <point x="880.0" y="75.5"/>
      <point x="928.0" y="104.0" type="curve"/>
      <point x="914.0" y="177.5"/>
      <point x="791.5" y="502.0"/>
      <point x="665.5" y="688.5" type="curve"/>
      <point x="913.5" y="852.0"/>
      <point x="1146.0" y="1096.5"/>
      <point x="1206.5" y="1171.0" type="curve"/>
      <point x="1177.0" y="1188.5"/>
      <point x="1093.0" y="1246.0"/>
      <point x="1034.0" y="1299.0" type="curve"/>
      <point x="846.0" y="1072.0"/>
      <point x="589.5" y="862.5"/>
      <point x="441.5" y="763.5" type="curve"/>
      <point x="483.5" y="962.0"/>
      <point x="544.5" y="1232.5"/>
      <point x="558.0" y="1297.0" type="curve"/>
      <point x="536.0" y="1301.5"/>
      <point x="493.0" y="1305.5"/>
      <point x="446.0" y="1305.5" type="curve" smooth="yes"/>
      <point x="405.5" y="1305.5"/>
      <point x="354.5" y="1302.5"/>
      <point x="319.5" y="1296.0" type="curve"/>
      <point x="261.0" y="1014.5"/>
      <point x="93.5" y="258.0"/>
    </contour>
  </outline>
</glyph>
<glyph name="L" format="2">
  <advance width="961.0"/>
  <unicode hex="004C"/>
  <anchor x="338.585" y="0.0" name="bottom"/>
  <anchor x="511.68" y="646.0" name="center"/>
  <anchor x="488.0" y="1298.0" name="top"/>
  <anchor x="643.0" y="909.0" name="topright"/>
  <outline>
    <contour>
      <point x="3.5" y="16.5" type="curve"/>
      <point x="99.5" y="11.0"/>
      <point x="212.5" y="8.5"/>
      <point x="329.5" y="11.0" type="curve" smooth="yes"/>
      <point x="460.5" y="13.5"/>
      <point x="610.0" y="22.0"/>
      <point x="767.5" y="39.5" type="curve"/>
      <point x="788.5" y="108.5"/>
      <point x="818.5" y="229.5"/>
      <point x="824.5" y="272.5" type="curve"/>
      <point x="657.0" y="272.5"/>
      <point x="468.5" y="264.0"/>
      <point x="321.5" y="255.5" type="curve"/>
      <point x="340.0" y="309.0"/>
      <point x="364.5" y="389.0"/>
      <point x="391.5" y="482.0" type="curve" smooth="yes"/>
      <point x="479.5" y="774.5"/>
      <point x="575.5" y="1119.0"/>
      <point x="613.5" y="1292.0" type="curve"/>
      <point x="598.5" y="1295.0"/>
      <point x="543.0" y="1298.0"/>
      <point x="507.5" y="1298.0" type="curve" smooth="yes"/>
      <point x="445.5" y="1298.0"/>
      <point x="378.0" y="1292.0"/>
      <point x="349.5" y="1288.0" type="curve"/>
      <point x="317.5" y="1151.0"/>
      <point x="248.0" y="883.0"/>
      <point x="180.0" y="628.5" type="curve" smooth="yes"/>
      <point x="112.0" y="373.5"/>
      <point x="39.0" y="126.5"/>
    </contour>
  </outline>
</glyph>
<glyph name="M" format="2">
  <advance width="1435.5"/>
  <unicode hex="004D"/>
  <anchor x="562.5" y="0.0" name="bottom"/>
  <anchor x="908.5" y="1291.0" name="top"/>
  <outline>
    <contour>
      <point x="-20.0" y="-7.5" type="curve"/>
      <point x="60.0" y="-7.5"/>
      <point x="166.5" y="-5.0"/>
      <point x="222.5" y="-2.5" type="curve"/>
      <point x="239.5" y="59.5"/>
      <point x="384.5" y="603.0"/>
      <point x="472.0" y="931.5" type="curve"/>
      <point x="477.5" y="753.0"/>
      <point x="486.5" y="106.5"/>
      <point x="483.5" y="59.5" type="curve"/>
      <point x="510.0" y="52.0"/>
      <point x="594.0" y="44.5"/>
      <point x="649.5" y="46.5" type="curve"/>
      <point x="712.0" y="127.0"/>
      <point x="1076.5" y="695.5"/>
      <point x="1172.0" y="875.5" type="curve"/>
      <point x="1152.0" y="802.0"/>
      <point x="1101.5" y="614.5"/>
      <point x="1057.5" y="461.0" type="curve" smooth="yes"/>
      <point x="1010.0" y="295.0"/>
      <point x="959.5" y="127.0"/>
      <point x="917.5" y="9.5" type="curve"/>
      <point x="965.5" y="5.5"/>
      <point x="1068.5" y="-0.5"/>
      <point x="1143.0" y="-0.5" type="curve"/>
      <point x="1193.5" y="143.5"/>
      <point x="1279.0" y="429.5"/>
      <point x="1346.5" y="682.5" type="curve" smooth="yes"/>
      <point x="1406.5" y="906.5"/>
      <point x="1455.5" y="1121.5"/>
      <point x="1462.5" y="1245.5" type="curve"/>
      <point x="1400.0" y="1256.0"/>
      <point x="1255.0" y="1261.0"/>
      <point x="1189.5" y="1261.0" type="curve"/>
      <point x="1115.5" y="1110.0"/>
      <point x="776.0" y="537.0"/>
      <point x="661.5" y="343.5" type="curve"/>
      <point x="672.5" y="539.0"/>
      <point x="645.5" y="1226.5"/>
      <point x="644.5" y="1262.0" type="curve"/>
      <point x="631.0" y="1262.0"/>
      <point x="443.5" y="1260.5"/>
      <point x="342.5" y="1250.0" type="curve"/>
      <point x="252.5" y="966.0"/>
      <point x="61.0" y="295.0"/>
    </contour>
  </outline>
</glyph>
<glyph name="N" format="2">
  <advance width="1282.0"/>
  <unicode hex="004E"/>
  <anchor x="498.585" y="0.0" name="bottom"/>
  <anchor x="844.507" y="1291.0" name="top"/>
  <outline>
    <contour>
      <point x="301.5" y="-6.0" type="curve"/>
      <point x="337.0" y="126.5"/>
      <point x="497.0" y="781.0"/>
      <point x="518.5" y="898.0" type="curve"/>
      <point x="589.0" y="680.0"/>
      <point x="746.5" y="117.5"/>
      <point x="774.5" y="6.0" type="curve"/>
      <point x="804.0" y="1.0"/>
      <point x="849.0" y="-0.5"/>
      <point x="895.0" y="-0.5" type="curve" smooth="yes"/>
      <point x="927.5" y="-0.5"/>
      <point x="960.5" y="0.0"/>
      <point x="992.5" y="1.5" type="curve"/>
      <point x="1014.5" y="41.5"/>
      <point x="1081.5" y="252.0"/>
      <point x="1137.0" y="462.0" type="curve" smooth="yes"/>
      <point x="1198.5" y="696.0"/>
      <point x="1287.0" y="1053.5"/>
      <point x="1322.0" y="1226.5" type="curve"/>
      <point x="1281.5" y="1241.0"/>
      <point x="1152.0" y="1254.0"/>
      <point x="1085.0" y="1254.0" type="curve"/>
      <point x="880.5" y="338.5" type="line"/>
      <point x="826.5" y="582.0"/>
      <point x="728.0" y="966.0"/>
      <point x="616.0" y="1250.5" type="curve"/>
      <point x="555.5" y="1261.0"/>
      <point x="421.5" y="1269.0"/>
      <point x="376.0" y="1269.0" type="curve"/>
      <point x="356.5" y="1178.5"/>
      <point x="311.0" y="1002.0"/>
      <point x="264.5" y="828.5" type="curve" smooth="yes"/>
      <point x="182.0" y="517.0"/>
      <point x="59.5" y="56.5"/>
      <point x="46.5" y="6.0" type="curve"/>
      <point x="95.5" y="1.0"/>
      <point x="215.0" y="-7.0"/>
    </contour>
  </outline>
</glyph>
<glyph name="O" format="2">
  <advance width="1354.0"/>
  <unicode hex="004F"/>
  <anchor x="534.585" y="0.0" name="bottom"/>
  <anchor x="656.5" y="646.0" name="center"/>
  <anchor x="829.5" y="0.0" name="ogonek"/>
  <anchor x="880.507" y="1291.0" name="top"/>
  <anchor x="223.507" y="1291.0" name="topleft"/>
  <anchor x="1181.5" y="1181.5" name="topright"/>
  <outline>
    <contour>
      <point x="561.5" y="-51.0" type="curve" smooth="yes"/>
      <point x="1041.5" y="-51.0"/>
      <point x="1289.5" y="321.5"/>
      <point x="1289.5" y="824.5" type="curve" smooth="yes"/>
      <point x="1289.5" y="1101.0"/>
      <point x="1176.5" y="1320.0"/>
      <point x="843.0" y="1320.0" type="curve" smooth="yes"/>
      <point x="375.0" y="1320.0"/>
      <point x="104.0" y="933.5"/>
      <point x="104.0" y="423.5" type="curve" smooth="yes"/>
      <point x="104.0" y="148.5"/>
      <point x="243.5" y="-51.0"/>
    </contour>
    <contour>
      <point x="592.0" y="188.5" type="curve" smooth="yes"/>
      <point x="416.5" y="188.5"/>
      <point x="350.0" y="326.0"/>
      <point x="350.0" y="486.0" type="curve" smooth="yes"/>
      <point x="350.0" y="825.5"/>
      <point x="515.0" y="1117.0"/>
      <point x="827.5" y="1117.0" type="curve" smooth="yes"/>
      <point x="1012.0" y="1117.0"/>
      <point x="1064.5" y="961.0"/>
      <point x="1064.5" y="802.5" type="curve" smooth="yes"/>
      <point x="1064.5" y="464.5"/>
      <point x="901.0" y="188.5"/>
    </contour>
  </outline>
</glyph>
<glyph name="P" format="2">
  <advance width="1010.0"/>
  <unicode hex="0050"/>
  <anchor x="352.7925" y="0.0" name="bottom"/>
  <anchor x="698.7535" y="1291.0" name="top"/>
  <outline>
    <contour>
      <point x="-27.0" y="-15.0" type="curve"/>
      <point x="25.5" y="-18.5"/>
      <point x="164.5" y="-21.0"/>
      <point x="216.5" y="-21.0" type="curve"/>
      <point x="273.5" y="165.5"/>
      <point x="373.0" y="506.0"/>
      <point x="393.0" y="580.5" type="curve"/>
      <point x="432.5" y="572.0"/>
      <point x="502.5" y="565.5"/>
      <point x="548.0" y="565.5" type="curve" smooth="yes"/>
      <point x="851.0" y="565.5"/>
      <point x="1079.5" y="736.5"/>
      <point x="1079.5" y="1019.0" type="curve" smooth="yes"/>
      <point x="1079.5" y="1198.0"/>
      <point x="948.5" y="1288.0"/>
      <point x="735.5" y="1288.0" type="curve" smooth="yes"/>
      <point x="590.5" y="1288.0"/>
      <point x="467.5" y="1274.0"/>
      <point x="354.0" y="1252.0" type="curve"/>
      <point x="225.0" y="865.5"/>
      <point x="32.5" y="197.5"/>
    </contour>
    <contour>
      <point x="443.5" y="780.5" type="curve"/>
      <point x="454.5" y="818.5"/>
      <point x="529.0" y="1078.0"/>
      <point x="532.5" y="1098.0" type="curve"/>
      <point x="600.0" y="1106.5"/>
      <point x="661.5" y="1111.0"/>
      <point x="708.0" y="1111.0" type="curve" smooth="yes"/>
      <point x="807.5" y="1111.0"/>
      <point x="867.5" y="1075.0"/>
      <point x="867.5" y="976.0" type="curve" smooth="yes"/>
      <point x="867.5" y="841.5"/>
      <point x="743.0" y="767.0"/>
      <point x="582.5" y="767.0" type="curve" smooth="yes"/>
      <point x="529.0" y="767.0"/>
      <point x="480.0" y="773.0"/>
    </contour>
  </outline>
</glyph>
<glyph name="Q" format="2">
  <advance width="1291.0"/>
  <unicode hex="0051"/>
  <anchor x="503.585" y="0.0" name="bottom"/>
  <anchor x="849.507" y="1291.0" name="top"/>
  <outline>
    <contour>
      <point x="964.0" y="-109.0" type="curve"/>
      <point x="1016.5" y="-71.0"/>
      <point x="1082.5" y="-10.5"/>
      <point x="1124.0" y="38.5" type="curve"/>
      <point x="1055.5" y="66.5"/>
      <point x="984.5" y="110.0"/>
      <point x="946.5" y="167.0" type="curve"/>
      <point x="1152.0" y="309.0"/>
      <point x="1250.5" y="598.0"/>
      <point x="1250.5" y="868.0" type="curve" smooth="yes"/>
      <point x="1250.5" y="1123.5"/>
      <point x="1133.0" y="1299.0"/>
      <point x="831.0" y="1299.0" type="curve" smooth="yes"/>
      <point x="414.5" y="1299.0"/>
      <point x="118.5" y="871.5"/>
      <point x="118.5" y="426.5" type="curve" smooth="yes"/>
      <point x="118.5" y="179.0"/>
      <point x="236.5" y="-6.5"/>
      <point x="502.5" y="-6.5" type="curve" smooth="yes"/>
      <point x="640.0" y="-6.5"/>
      <point x="737.5" y="46.0"/>
      <point x="773.0" y="71.0" type="curve"/>
      <point x="796.0" y="32.0"/>
      <point x="909.5" y="-84.5"/>
    </contour>
    <contour>
      <point x="696.5" y="248.5" type="curve"/>
      <point x="679.5" y="235.0"/>
      <point x="634.5" y="201.5"/>
      <point x="556.5" y="201.5" type="curve" smooth="yes"/>
      <point x="404.5" y="201.5"/>
      <point x="357.5" y="310.5"/>
      <point x="357.5" y="455.5" type="curve" smooth="yes"/>
      <point x="357.5" y="781.5"/>
      <point x="524.0" y="1106.0"/>
      <point x="813.5" y="1106.0" type="curve" smooth="yes"/>
      <point x="978.5" y="1106.0"/>
      <point x="1037.0" y="1004.0"/>
      <point x="1037.0" y="844.0" type="curve" smooth="yes"/>
      <point x="1037.0" y="671.0"/>
      <point x="980.5" y="432.0"/>
      <point x="859.0" y="320.5" type="curve"/>
      <point x="814.5" y="383.5"/>
      <point x="789.0" y="489.0"/>
      <point x="777.0" y="558.0" type="curve"/>
      <point x="729.5" y="533.5"/>
      <point x="643.0" y="483.0"/>
      <point x="609.5" y="459.5" type="curve"/>
      <point x="622.0" y="391.0"/>
      <point x="662.0" y="289.0"/>
    </contour>
  </outline>
</glyph>
<glyph name="R" format="2">
  <advance width="1094.0"/>
  <unicode hex="0052"/>
  <anchor x="404.585" y="0.0" name="bottom"/>
  <anchor x="694.0" y="1326.0" name="top"/>
  <outline>
    <contour>
      <point x="16.0" y="-26.5" type="curve"/>
      <point x="98.5" y="-26.5"/>
      <point x="213.0" y="-23.5"/>
      <point x="275.5" y="-11.0" type="curve"/>
      <point x="309.0" y="139.5"/>
      <point x="387.0" y="527.5"/>
      <point x="396.5" y="591.5" type="curve"/>
      <point x="433.0" y="592.0"/>
      <point x="523.0" y="600.0"/>
      <point x="594.5" y="617.5" type="curve"/>
      <point x="624.0" y="508.5"/>
      <point x="633.5" y="184.5"/>
      <point x="633.5" y="-18.0" type="curve"/>
      <point x="659.0" y="-16.5"/>
      <point x="798.5" y="16.5"/>
      <point x="881.0" y="55.5" type="curve"/>
      <point x="877.5" y="169.5"/>
      <point x="841.5" y="547.0"/>
      <point x="800.5" y="673.0" type="curve"/>
      <point x="977.0" y="742.0"/>
      <point x="1088.5" y="854.5"/>
      <point x="1088.5" y="1045.0" type="curve" smooth="yes"/>
      <point x="1088.5" y="1251.5"/>
      <point x="945.0" y="1326.0"/>
      <point x="726.0" y="1326.0" type="curve" smooth="yes"/>
      <point x="593.5" y="1326.0"/>
      <point x="404.0" y="1315.5"/>
      <point x="301.0" y="1303.0" type="curve"/>
      <point x="207.5" y="847.0"/>
      <point x="96.5" y="309.0"/>
    </contour>
    <contour>
      <point x="428.0" y="777.5" type="curve"/>
      <point x="436.5" y="825.5"/>
      <point x="482.0" y="1079.0"/>
      <point x="491.0" y="1137.0" type="curve"/>
      <point x="517.0" y="1140.0"/>
      <point x="637.5" y="1150.0"/>
      <point x="680.5" y="1150.0" type="curve" smooth="yes"/>
      <point x="799.0" y="1150.0"/>
      <point x="869.5" y="1120.5"/>
      <point x="869.5" y="1012.5" type="curve" smooth="yes"/>
      <point x="869.5" y="869.5"/>
      <point x="764.5" y="826.5"/>
      <point x="604.5" y="796.0" type="curve" smooth="yes"/>
      <point x="531.5" y="783.0"/>
      <point x="480.5" y="777.5"/>
    </contour>
  </outline>
</glyph>
<glyph name="S" format="2">
  <advance width="1152.0"/>
  <unicode hex="0053"/>
  <anchor x="471.5" y="0.0" name="bottom"/>
  <anchor x="734.0" y="1328.0" name="top"/>
  <outline>
    <contour>
      <point x="471.5" y="-13.5" type="curve" smooth="yes"/>
      <point x="769.5" y="-13.5"/>
      <point x="1048.5" y="152.0"/>
      <point x="1048.5" y="461.5" type="curve" smooth="yes"/>
      <point x="1048.5" y="681.5"/>
      <point x="869.0" y="763.5"/>
      <point x="648.5" y="839.5" type="curve" smooth="yes"/>
      <point x="561.5" y="867.5"/>
      <point x="486.5" y="903.5"/>
      <point x="486.5" y="990.0" type="curve" smooth="yes"/>
      <point x="486.5" y="1108.5"/>
      <point x="600.5" y="1165.5"/>
      <point x="725.0" y="1165.5" type="curve" smooth="yes"/>
      <point x="882.5" y="1165.5"/>
      <point x="979.5" y="1081.0"/>
      <point x="1025.0" y="1015.5" type="curve"/>
      <point x="1072.5" y="1044.5"/>
      <point x="1145.5" y="1119.5"/>
      <point x="1188.5" y="1176.0" type="curve"/>
      <point x="1124.0" y="1274.0"/>
      <point x="942.0" y="1349.0"/>
      <point x="741.5" y="1349.0" type="curve" smooth="yes"/>
      <point x="475.5" y="1349.0"/>
      <point x="247.0" y="1215.5"/>
      <point x="247.0" y="953.5" type="curve" smooth="yes"/>
      <point x="247.0" y="778.5"/>
      <point x="382.5" y="697.5"/>
      <point x="568.0" y="629.0" type="curve" smooth="yes"/>
      <point x="722.5" y="576.0"/>
      <point x="807.0" y="518.5"/>
      <point x="807.0" y="412.5" type="curve" smooth="yes"/>
      <point x="807.0" y="261.5"/>
      <point x="664.5" y="179.5"/>
      <point x="511.5" y="179.5" type="curve" smooth="yes"/>
      <point x="327.5" y="179.5"/>
      <point x="237.5" y="334.0"/>
      <point x="192.5" y="418.0" type="curve"/>
      <point x="141.5" y="394.5"/>
      <point x="16.5" y="283.0"/>
      <point x="-6.0" y="259.0" type="curve"/>
      <point x="57.0" y="120.0"/>
      <point x="239.0" y="-13.5"/>
    </contour>
  </outline>
</glyph>
<glyph name="T" format="2">
  <advance width="1039.0"/>
  <unicode hex="0054"/>
  <anchor x="400.0" y="0.0" name="bottom"/>
  <anchor x="550.8399999999999" y="646.0" name="center"/>
  <anchor x="723.507" y="1291.0" name="top"/>
  <outline>
    <contour>
      <point x="204.5" y="1105.5" type="curve"/>
      <point x="300.5" y="1108.0"/>
      <point x="464.5" y="1113.5"/>
      <point x="566.5" y="1118.0" type="curve"/>
      <point x="555.5" y="1078.0"/>
      <point x="541.0" y="1026.0"/>
      <point x="525.0" y="966.0" type="curve" smooth="yes"/>
      <point x="447.0" y="676.0"/>
      <point x="325.0" y="184.0"/>
      <point x="281.5" y="-14.0" type="curve"/>
      <point x="340.0" y="-14.0"/>
      <point x="478.0" y="-7.0"/>
      <point x="540.0" y="2.5" type="curve"/>
      <point x="554.0" y="67.5"/>
      <point x="759.0" y="949.0"/>
      <point x="800.0" y="1121.0" type="curve"/>
      <point x="900.0" y="1119.5"/>
      <point x="1084.5" y="1117.5"/>
      <point x="1138.5" y="1116.0" type="curve"/>
      <point x="1157.0" y="1156.0"/>
      <point x="1184.0" y="1236.5"/>
      <point x="1203.5" y="1316.5" type="curve"/>
      <point x="1093.0" y="1331.5"/>
      <point x="951.5" y="1336.5"/>
      <point x="805.5" y="1336.5" type="curve" smooth="yes"/>
      <point x="607.0" y="1336.5"/>
      <point x="399.5" y="1327.0"/>
      <point x="245.5" y="1317.5" type="curve"/>
      <point x="237.0" y="1285.5"/>
      <point x="208.0" y="1152.5"/>
    </contour>
  </outline>
</glyph>
<glyph name="U" format="2">
  <advance width="1212.0"/>
  <unicode hex="0055"/>
  <anchor x="463.585" y="0.0" name="bottom"/>
  <anchor x="667.0" y="0.0" name="ogonek"/>
  <anchor x="838.5" y="1321.5" name="top"/>
  <anchor x="1233.5" y="1174.0" name="topright"/>
  <outline>
    <contour>
      <point x="489.5" y="-35.0" type="curve" smooth="yes"/>
      <point x="904.5" y="-35.0"/>
      <point x="1065.5" y="361.5"/>
      <point x="1208.5" y="887.5" type="curve" smooth="yes"/>
      <point x="1248.0" y="1033.0"/>
      <point x="1280.0" y="1193.5"/>
      <point x="1293.0" y="1306.0" type="curve"/>
      <point x="1267.0" y="1314.5"/>
      <point x="1125.5" y="1329.0"/>
      <point x="1044.5" y="1329.0" type="curve"/>
      <point x="1027.0" y="1194.5"/>
      <point x="947.0" y="862.5"/>
      <point x="909.0" y="719.0" type="curve" smooth="yes"/>
      <point x="830.5" y="422.0"/>
      <point x="718.0" y="245.0"/>
      <point x="556.5" y="245.0" type="curve" smooth="yes"/>
      <point x="454.0" y="245.0"/>
      <point x="403.0" y="309.5"/>
      <point x="403.0" y="437.0" type="curve" smooth="yes"/>
      <point x="403.0" y="533.0"/>
      <point x="444.0" y="713.0"/>
      <point x="495.0" y="898.0" type="curve" smooth="yes"/>
      <point x="538.0" y="1057.0"/>
      <point x="592.5" y="1222.5"/>
      <point x="637.5" y="1348.5" type="curve"/>
      <point x="600.0" y="1353.5"/>
      <point x="548.0" y="1357.5"/>
      <point x="495.0" y="1357.5" type="curve" smooth="yes"/>
      <point x="456.0" y="1357.5"/>
      <point x="410.0" y="1354.0"/>
      <point x="369.0" y="1349.5" type="curve"/>
      <point x="320.0" y="1196.0"/>
      <point x="273.5" y="1043.5"/>
      <point x="237.5" y="902.5" type="curve" smooth="yes"/>
      <point x="181.5" y="683.0"/>
      <point x="145.0" y="494.5"/>
      <point x="145.0" y="345.0" type="curve" smooth="yes"/>
      <point x="145.0" y="103.5"/>
      <point x="237.0" y="-35.0"/>
    </contour>
  </outline>
</glyph>
<glyph name="V" format="2">
  <advance width="1174.5"/>
  <unicode hex="0056"/>
  <anchor x="445.2925" y="0.0" name="bottom"/>
  <anchor x="791.2535" y="1291.0" name="top"/>
  <outline>
    <contour>
      <point x="473.0" y="-20.5" type="curve" smooth="yes"/>
      <point x="528.5" y="-20.5"/>
      <point x="578.5" y="-19.5"/>
      <point x="610.5" y="-16.0" type="curve"/>
      <point x="643.5" y="36.5"/>
      <point x="994.0" y="623.0"/>
      <point x="1326.0" y="1313.5" type="curve"/>
      <point x="1257.5" y="1343.0"/>
      <point x="1149.0" y="1360.0"/>
      <point x="1067.5" y="1362.5" type="curve"/>
      <point x="1049.5" y="1312.5"/>
      <point x="767.0" y="679.5"/>
      <point x="531.5" y="245.5" type="curve"/>
      <point x="543.0" y="601.5"/>
      <point x="540.0" y="1206.5"/>
      <point x="540.0" y="1360.0" type="curve"/>
      <point x="476.0" y="1360.0"/>
      <point x="345.5" y="1346.0"/>
      <point x="270.5" y="1324.0" type="curve"/>
      <point x="270.5" y="1068.0"/>
      <point x="284.5" y="249.5"/>
      <point x="321.0" y="-10.0" type="curve"/>
      <point x="352.0" y="-16.0"/>
      <point x="414.0" y="-20.5"/>
    </contour>
  </outline>
</glyph>
<glyph name="W" format="2">
  <advance width="1344.0"/>
  <unicode hex="0057"/>
  <anchor x="529.585" y="0.0" name="bottom"/>
  <anchor x="875.507" y="1291.0" name="top"/>
  <outline>
    <contour>
      <point x="705.0" y="-16.0" type="curve"/>
      <point x="942.0" y="6.5" type="line"/>
      <point x="988.5" y="90.5"/>
      <point x="1309.5" y="772.5"/>
      <point x="1469.5" y="1371.5" type="curve"/>
      <point x="1222.5" y="1347.0" type="line"/>
      <point x="1150.5" y="1078.5"/>
      <point x="992.0" y="597.0"/>
      <point x="867.0" y="300.5" type="curve"/>
      <point x="872.0" y="459.5"/>
      <point x="880.0" y="853.0"/>
      <point x="883.5" y="906.5" type="curve"/>
      <point x="707.0" y="894.5" type="line"/>
      <point x="669.0" y="839.5"/>
      <point x="421.0" y="507.5"/>
      <point x="334.5" y="356.5" type="curve"/>
      <point x="407.5" y="671.5"/>
      <point x="509.0" y="1033.5"/>
      <point x="591.5" y="1340.0" type="curve"/>
      <point x="333.5" y="1350.0" type="line"/>
      <point x="203.5" y="865.0"/>
      <point x="124.0" y="385.5"/>
      <point x="60.0" y="6.5" type="curve"/>
      <point x="298.0" y="-2.5" type="line"/>
      <point x="347.0" y="69.0"/>
      <point x="637.5" y="480.0"/>
      <point x="698.0" y="579.0" type="curve"/>
      <point x="693.5" y="464.0"/>
      <point x="699.0" y="138.0"/>
    </contour>
  </outline>
</glyph>
<glyph name="X" format="2">
  <advance width="1183.0"/>
  <unicode hex="0058"/>
  <anchor x="453.2925" y="0.0" name="bottom"/>
  <anchor x="799.2535" y="1291.0" name="top"/>
  <outline>
    <contour>
      <point x="526.5" y="672.5" type="curve"/>
      <point x="412.0" y="535.5"/>
      <point x="147.5" y="243.0"/>
      <point x="-52.0" y="47.5" type="curve"/>
      <point x="37.5" y="14.5"/>
      <point x="123.5" y="-6.5"/>
      <point x="203.5" y="-15.0" type="curve"/>
      <point x="231.5" y="13.5"/>
      <point x="541.5" y="339.0"/>
      <point x="624.5" y="453.0" type="curve"/>
      <point x="686.0" y="276.5"/>
      <point x="729.5" y="79.5"/>
      <point x="748.0" y="-34.5" type="curve"/>
      <point x="817.0" y="-24.0"/>
      <point x="919.5" y="4.5"/>
      <point x="994.5" y="45.5" type="curve"/>
      <point x="965.0" y="174.5"/>
      <point x="849.0" y="524.0"/>
      <point x="786.0" y="656.0" type="curve"/>
      <point x="891.5" y="756.0"/>
      <point x="1173.0" y="1046.5"/>
      <point x="1301.5" y="1232.5" type="curve"/>
      <point x="1269.5" y="1263.0"/>
      <point x="1148.5" y="1306.5"/>
      <point x="1057.5" y="1318.0" type="curve"/>
      <point x="1010.0" y="1230.0"/>
      <point x="858.0" y="1002.0"/>
      <point x="708.5" y="837.5" type="curve"/>
      <point x="657.0" y="1022.0"/>
      <point x="588.5" y="1255.5"/>
      <point x="549.5" y="1337.5" type="curve"/>
      <point x="479.0" y="1327.5"/>
      <point x="338.0" y="1283.5"/>
      <point x="265.5" y="1252.0" type="curve"/>
      <point x="299.5" y="1196.0"/>
      <point x="453.5" y="911.5"/>
    </contour>
  </outline>
</glyph>
<glyph name="Y" format="2">
  <advance width="1065.0"/>
  <unicode hex="0059"/>
  <anchor x="411.0" y="0.0" name="bottom"/>
  <anchor x="757.0" y="1291.0" name="top"/>
  <anchor x="244.0" y="1291.0" name="topleft"/>
  <outline>
    <contour>
      <point x="442.5" y="536.0" type="curve"/>
      <point x="399.5" y="420.5"/>
      <point x="337.0" y="202.5"/>
      <point x="285.5" y="7.0" type="curve"/>
      <point x="320.0" y="0.5"/>
      <point x="371.5" y="-3.5"/>
      <point x="420.0" y="-3.5" type="curve" smooth="yes"/>
      <point x="465.0" y="-3.5"/>
      <point x="509.0" y="0.5"/>
      <point x="526.0" y="5.0" type="curve"/>
      <point x="532.5" y="30.0"/>
      <point x="565.5" y="156.0"/>
      <point x="588.5" y="245.0" type="curve" smooth="yes"/>
      <point x="607.5" y="317.5"/>
      <point x="646.5" y="467.0"/>
      <point x="667.5" y="551.5" type="curve"/>
      <point x="904.0" y="859.0"/>
      <point x="1105.0" y="1097.5"/>
      <point x="1223.0" y="1216.5" type="curve"/>
      <point x="1179.0" y="1250.5"/>
      <point x="1083.5" y="1294.0"/>
      <point x="1001.5" y="1306.0" type="curve"/>
      <point x="916.5" y="1216.5"/>
      <point x="656.0" y="864.5"/>
      <point x="597.0" y="781.5" type="curve"/>
      <point x="565.0" y="912.0"/>
      <point x="516.0" y="1265.5"/>
      <point x="510.5" y="1321.5" type="curve"/>
      <point x="449.5" y="1319.0"/>
      <point x="364.0" y="1305.5"/>
      <point x="263.0" y="1271.0" type="curve"/>
      <point x="290.0" y="1099.0"/>
      <point x="389.0" y="659.0"/>
    </contour>
  </outline>
</glyph>
<glyph name="Z" format="2">
  <advance width="1044.0"/>
  <unicode hex="005A"/>
  <anchor x="379.585" y="0.0" name="bottom"/>
  <anchor x="552.68" y="646.0" name="center"/>
  <anchor x="725.507" y="1291.0" name="top"/>
  <outline>
    <contour>
      <point x="818.5" y="-14.0" type="curve"/>
      <point x="829.5" y="7.5"/>
      <point x="851.5" y="65.5"/>
      <point x="867.0" y="119.5" type="curve" smooth="yes"/>
      <point x="880.0" y="165.5"/>
      <point x="891.5" y="213.5"/>
      <point x="896.5" y="241.0" type="curve"/>
      <point x="818.0" y="237.5"/>
      <point x="730.5" y="234.5"/>
      <point x="651.0" y="234.5" type="curve" smooth="yes"/>
      <point x="511.5" y="234.5"/>
      <point x="379.5" y="239.0"/>
      <point x="312.0" y="245.5" type="curve"/>
      <point x="438.5" y="357.5"/>
      <point x="951.5" y="883.0"/>
      <point x="1150.5" y="1133.0" type="curve"/>
      <point x="1157.5" y="1148.5"/>
      <point x="1170.5" y="1189.5"/>
      <point x="1182.5" y="1235.0" type="curve" smooth="yes"/>
      <point x="1191.0" y="1267.5"/>
      <point x="1200.0" y="1306.5"/>
      <point x="1202.0" y="1330.0" type="curve"/>
      <point x="1167.0" y="1332.0"/>
      <point x="1050.0" y="1331.5"/>
      <point x="1013.5" y="1331.0" type="curve" smooth="yes"/>
      <point x="818.5" y="1328.0"/>
      <point x="525.0" y="1306.5"/>
      <point x="366.0" y="1294.0" type="curve"/>
      <point x="357.0" y="1271.0"/>
      <point x="345.5" y="1233.5"/>
      <point x="335.0" y="1193.0" type="curve" smooth="yes"/>
      <point x="325.5" y="1157.0"/>
      <point x="316.5" y="1114.0"/>
      <point x="312.0" y="1089.0" type="curve"/>
      <point x="500.0" y="1103.0"/>
      <point x="810.0" y="1123.0"/>
      <point x="878.5" y="1123.5" type="curve"/>
      <point x="763.5" y="985.0"/>
      <point x="247.0" y="435.5"/>
      <point x="26.0" y="242.0" type="curve"/>
      <point x="11.5" y="188.0"/>
      <point x="-17.0" y="69.0"/>
      <point x="-26.0" y="22.0" type="curve"/>
      <point x="302.0" y="-4.0"/>
      <point x="582.5" y="-14.0"/>
    </contour>
  </outline>
</glyph>
<glyph name="bracketleft" format="2">
  <advance width="735.0"/>
  <unicode hex="005B"/>
  <outline>
    <contour>
      <point x="72.5" y="-526.5" type="curve" smooth="yes"/>
      <point x="191.5" y="-526.5"/>
      <point x="296.0" y="-520.5"/>
      <point x="363.5" y="-513.5" type="curve"/>
      <point x="378.5" y="-477.5"/>
      <point x="412.5" y="-377.5"/>
      <point x="427.0" y="-327.5" type="curve"/>
      <point x="380.5" y="-328.5"/>
      <point x="300.0" y="-328.0"/>
      <point x="238.0" y="-327.0" type="curve" smooth="yes"/>
      <point x="168.5" y="-325.5"/>
      <point x="110.0" y="-324.0"/>
      <point x="92.5" y="-321.5" type="curve"/>
      <point x="123.5" y="-154.5"/>
      <point x="194.5" y="141.0"/>
      <point x="275.5" y="443.0" type="curve" smooth="yes"/>
      <point x="372.0" y="803.0"/>
      <point x="485.5" y="1179.0"/>
      <point x="585.0" y="1434.5" type="curve"/>
      <point x="710.0" y="1445.5"/>
      <point x="889.0" y="1458.5"/>
      <point x="949.0" y="1458.5" type="curve"/>
      <point x="956.0" y="1473.0"/>
      <point x="971.0" y="1506.0"/>
      <point x="986.0" y="1544.5" type="curve" smooth="yes"/>
      <point x="997.0" y="1574.0"/>
      <point x="1007.0" y="1604.5"/>
      <point x="1013.5" y="1632.0" type="curve"/>
      <point x="825.5" y="1631.0"/>
      <point x="556.0" y="1614.0"/>
      <point x="415.5" y="1588.0" type="curve"/>
      <point x="319.0" y="1362.5"/>
      <point x="188.0" y="964.0"/>
      <point x="71.5" y="529.5" type="curve" smooth="yes"/>
      <point x="-23.5" y="176.0"/>
      <point x="-109.0" y="-198.5"/>
      <point x="-161.0" y="-519.0" type="curve"/>
      <point x="-84.0" y="-524.0"/>
      <point x="-4.0" y="-526.5"/>
    </contour>
  </outline>
</glyph>
<glyph name="backslash" format="2">
  <advance width="725.0"/>
  <unicode hex="005C"/>
  <outline>
    <contour>
      <point x="582.5" y="-6.0" type="curve"/>
      <point x="484.0" y="430.0"/>
      <point x="420.0" y="1072.0"/>
      <point x="420.0" y="1471.0" type="curve"/>
      <point x="339.0" y="1466.0"/>
      <point x="244.5" y="1442.5"/>
      <point x="206.5" y="1410.5" type="curve"/>
      <point x="218.5" y="867.5"/>
      <point x="266.0" y="381.5"/>
      <point x="365.0" y="-98.5" type="curve"/>
      <point x="428.5" y="-84.0"/>
      <point x="505.5" y="-52.0"/>
    </contour>
  </outline>
</glyph>
<glyph name="bracketright" format="2">
  <advance width="619.0"/>
  <unicode hex="005D"/>
  <outline>
    <contour>
      <point x="650.5" y="532.5" type="curve" smooth="yes"/>
      <point x="766.5" y="966.0"/>
      <point x="834.5" y="1346.0"/>
      <point x="852.0" y="1610.0" type="curve"/>
      <point x="732.0" y="1630.5"/>
      <point x="614.0" y="1638.0"/>
      <point x="478.0" y="1638.0" type="curve" smooth="yes"/>
      <point x="437.5" y="1638.0"/>
      <point x="386.0" y="1637.5"/>
      <point x="348.0" y="1636.5" type="curve"/>
      <point x="333.0" y="1601.0"/>
      <point x="313.0" y="1537.0"/>
      <point x="299.0" y="1487.5" type="curve"/>
      <point x="301.5" y="1477.0"/>
      <point x="311.5" y="1467.0"/>
      <point x="326.5" y="1458.0" type="curve" smooth="yes"/>
      <point x="407.5" y="1457.0"/>
      <point x="527.5" y="1455.0"/>
      <point x="606.0" y="1447.5" type="curve"/>
      <point x="595.5" y="1289.5"/>
      <point x="517.5" y="916.5"/>
      <point x="415.0" y="534.0" type="curve" smooth="yes"/>
      <point x="333.5" y="230.5"/>
      <point x="236.0" y="-80.5"/>
      <point x="146.5" y="-295.5" type="curve"/>
      <point x="103.0" y="-306.0"/>
      <point x="-85.5" y="-322.5"/>
      <point x="-162.0" y="-322.5" type="curve"/>
      <point x="-174.0" y="-365.5"/>
      <point x="-198.0" y="-457.0"/>
      <point x="-209.0" y="-507.5" type="curve"/>
      <point x="-82.0" y="-507.5"/>
      <point x="151.0" y="-499.0"/>
      <point x="315.5" y="-465.5" type="curve"/>
      <point x="429.0" y="-194.0"/>
      <point x="552.5" y="167.0"/>
    </contour>
  </outline>
</glyph>
<glyph name="asciicircum" format="2">
  <advance width="1032.0"/>
  <unicode hex="005E"/>
  <outline>
    <contour>
      <point x="869.0" y="1325.0" type="curve"/>
      <point x="853.0" y="1330.5"/>
      <point x="817.0" y="1334.0"/>
      <point x="777.5" y="1334.0" type="curve" smooth="yes"/>
      <point x="741.5" y="1334.0"/>
      <point x="703.0" y="1331.0"/>
      <point x="676.0" y="1326.0" type="curve"/>
      <point x="531.0" y="1217.0"/>
      <point x="265.0" y="976.0"/>
      <point x="105.0" y="812.0" type="curve"/>
      <point x="143.0" y="763.0"/>
      <point x="211.0" y="729.5"/>
      <point x="264.0" y="718.0" type="curve"/>
      <point x="362.5" y="828.5"/>
      <point x="637.5" y="1088.5"/>
      <point x="812.0" y="1209.5" type="curve"/>
      <point x="707.5" y="1212.0" type="line"/>
      <point x="777.5" y="1108.5"/>
      <point x="873.0" y="853.0"/>
      <point x="883.0" y="732.5" type="curve"/>
      <point x="970.5" y="750.0"/>
      <point x="1035.5" y="773.5"/>
      <point x="1079.0" y="805.0" type="curve"/>
      <point x="1049.0" y="995.0"/>
      <point x="937.0" y="1227.0"/>
    </contour>
  </outline>
</glyph>
<glyph name="underscore" format="2">
  <advance width="1549.0"/>
  <unicode hex="005F"/>
  <outline>
    <contour>
      <point x="224.5" y="17.5" type="curve" smooth="yes"/>
      <point x="158.0" y="17.5"/>
      <point x="-2.5" y="17.5"/>
      <point x="-60.0" y="19.5" type="curve"/>
      <point x="-71.0" y="-33.5"/>
      <point x="-91.5" y="-150.0"/>
      <point x="-95.0" y="-179.5" type="curve"/>
      <point x="260.5" y="-186.0"/>
      <point x="682.0" y="-189.5"/>
      <point x="920.0" y="-189.5" type="curve" smooth="yes"/>
      <point x="1098.5" y="-189.5"/>
      <point x="1223.0" y="-187.0"/>
      <point x="1294.5" y="-184.0" type="curve"/>
      <point x="1315.5" y="-134.5"/>
      <point x="1344.5" y="-49.5"/>
      <point x="1369.0" y="42.0" type="curve"/>
      <point x="1159.5" y="33.0"/>
      <point x="672.0" y="17.5"/>
    </contour>
  </outline>
</glyph>
<glyph name="a" format="2">
  <advance width="1295.0"/>
  <unicode hex="0061"/>
  <anchor x="475.5" y="0.0" name="bottom"/>
  <anchor x="1055.0" y="5.0" name="ogonek"/>
  <anchor x="749.0" y="1063.0" name="top"/>
  <outline>
    <contour>
      <point x="398.0" y="-19.5" type="curve" smooth="yes"/>
      <point x="603.0" y="-19.5"/>
      <point x="787.5" y="77.5"/>
      <point x="843.5" y="162.0" type="curve"/>
      <point x="843.5" y="49.5"/>
      <point x="892.5" y="-5.5"/>
      <point x="995.5" y="-5.5" type="curve" smooth="yes"/>
      <point x="1093.5" y="-5.5"/>
      <point x="1181.0" y="50.0"/>
      <point x="1217.0" y="145.5" type="curve"/>
      <point x="1152.0" y="283.5" type="line"/>
      <point x="1129.0" y="227.0"/>
      <point x="1094.5" y="194.5"/>
      <point x="1054.0" y="194.5" type="curve" smooth="yes"/>
      <point x="1027.5" y="194.5"/>
      <point x="1013.5" y="203.0"/>
      <point x="1013.5" y="241.5" type="curve" smooth="yes"/>
      <point x="1013.5" y="312.5"/>
      <point x="1040.5" y="414.5"/>
      <point x="1068.0" y="512.0" type="curve" smooth="yes"/>
      <point x="1089.5" y="590.5"/>
      <point x="1105.0" y="670.5"/>
      <point x="1105.0" y="736.5" type="curve" smooth="yes"/>
      <point x="1105.0" y="967.0"/>
      <point x="948.0" y="1065.5"/>
      <point x="697.5" y="1065.5" type="curve" smooth="yes"/>
      <point x="482.5" y="1065.5"/>
      <point x="281.5" y="974.0"/>
      <point x="159.5" y="845.5" type="curve"/>
      <point x="315.0" y="722.0" type="line"/>
      <point x="385.0" y="803.0"/>
      <point x="516.0" y="875.0"/>
      <point x="656.5" y="875.0" type="curve" smooth="yes"/>
      <point x="786.0" y="875.0"/>
      <point x="876.5" y="829.0"/>
      <point x="889.0" y="730.0" type="curve" smooth="yes"/>
      <point x="896.5" y="692.0"/>
      <point x="895.5" y="651.0"/>
      <point x="890.5" y="620.0" type="curve"/>
      <point x="863.0" y="636.5"/>
      <point x="731.5" y="670.0"/>
      <point x="609.5" y="670.0" type="curve" smooth="yes"/>
      <point x="314.5" y="670.0"/>
      <point x="22.5" y="559.5"/>
      <point x="22.5" y="267.0" type="curve" smooth="yes"/>
      <point x="22.5" y="64.5"/>
      <point x="168.5" y="-19.5"/>
    </contour>
    <contour>
      <point x="478.5" y="163.5" type="curve" smooth="yes"/>
      <point x="334.5" y="163.5"/>
      <point x="266.5" y="203.0"/>
      <point x="266.5" y="306.5" type="curve" smooth="yes"/>
      <point x="266.5" y="442.5"/>
      <point x="447.0" y="504.5"/>
      <point x="604.0" y="504.5" type="curve" smooth="yes"/>
      <point x="725.0" y="504.5"/>
      <point x="828.5" y="479.0"/>
      <point x="860.5" y="466.0" type="curve"/>
      <point x="846.0" y="417.5"/>
      <point x="831.5" y="361.0"/>
      <point x="815.0" y="292.5" type="curve"/>
      <point x="736.5" y="219.5"/>
      <point x="596.5" y="163.5"/>
    </contour>
  </outline>
</glyph>
<glyph name="b" format="2">
  <advance width="1200.0"/>
  <unicode hex="0062"/>
  <anchor x="447.7925" y="0.0" name="bottom"/>
  <anchor x="841.235" y="1470.0" name="top"/>
  <outline>
    <contour>
      <point x="44.0" y="-12.0" type="curve"/>
      <point x="104.5" y="-18.5"/>
      <point x="217.5" y="-19.5"/>
      <point x="288.0" y="-19.0" type="curve"/>
      <point x="292.0" y="5.0"/>
      <point x="308.0" y="74.5"/>
      <point x="317.5" y="113.5" type="curve"/>
      <point x="343.0" y="74.5"/>
      <point x="441.0" y="3.0"/>
      <point x="592.5" y="3.0" type="curve" smooth="yes"/>
      <point x="922.0" y="3.0"/>
      <point x="1109.5" y="278.5"/>
      <point x="1109.5" y="574.5" type="curve" smooth="yes"/>
      <point x="1109.5" y="803.0"/>
      <point x="1016.5" y="920.5"/>
      <point x="805.5" y="920.5" type="curve" smooth="yes"/>
      <point x="645.5" y="920.5"/>
      <point x="515.0" y="817.5"/>
      <point x="457.0" y="765.0" type="curve"/>
      <point x="510.0" y="1021.5"/>
      <point x="575.5" y="1297.0"/>
      <point x="611.5" y="1436.5" type="curve"/>
      <point x="494.5" y="1420.5"/>
      <point x="395.0" y="1405.0"/>
      <point x="376.0" y="1401.5" type="curve"/>
      <point x="319.0" y="1189.5"/>
      <point x="75.5" y="152.0"/>
    </contour>
    <contour>
      <point x="360.0" y="298.5" type="curve"/>
      <point x="367.0" y="330.5"/>
      <point x="408.0" y="526.0"/>
      <point x="414.5" y="558.5" type="curve"/>
      <point x="473.5" y="619.0"/>
      <point x="590.5" y="723.5"/>
      <point x="726.0" y="723.5" type="curve" smooth="yes"/>
      <point x="852.0" y="723.5"/>
      <point x="885.0" y="654.0"/>
      <point x="885.0" y="529.5" type="curve" smooth="yes"/>
      <point x="885.0" y="350.0"/>
      <point x="770.5" y="215.0"/>
      <point x="582.0" y="215.0" type="curve" smooth="yes"/>
      <point x="465.5" y="215.0"/>
      <point x="384.0" y="272.0"/>
    </contour>
  </outline>
</glyph>
<glyph name="c" format="2">
  <advance width="1026.0"/>
  <unicode hex="0063"/>
  <anchor x="401.0" y="0.0" name="bottom"/>
  <anchor x="650.2075" y="1063.0" name="top"/>
  <outline>
    <contour>
      <point x="890.0" y="209.0" type="curve"/>
      <point x="761.5" y="373.5" type="line"/>
      <point x="743.0" y="347.5"/>
      <point x="632.5" y="233.0"/>
      <point x="478.5" y="233.0" type="curve" smooth="yes"/>
      <point x="342.5" y="233.0"/>
      <point x="294.0" y="320.0"/>
      <point x="294.0" y="440.5" type="curve" smooth="yes"/>
      <point x="294.0" y="680.5"/>
      <point x="432.5" y="904.5"/>
      <point x="665.5" y="904.5" type="curve" smooth="yes"/>
      <point x="825.5" y="904.5"/>
      <point x="848.5" y="794.0"/>
      <point x="851.5" y="766.0" type="curve"/>
      <point x="1042.0" y="867.5" type="line"/>
      <point x="1009.5" y="995.5"/>
      <point x="876.5" y="1095.0"/>
      <point x="690.5" y="1095.0" type="curve" smooth="yes"/>
      <point x="318.0" y="1095.0"/>
      <point x="58.5" y="785.5"/>
      <point x="58.5" y="399.0" type="curve" smooth="yes"/>
      <point x="58.5" y="164.0"/>
      <point x="170.0" y="-8.0"/>
      <point x="420.0" y="-8.0" type="curve" smooth="yes"/>
      <point x="642.5" y="-8.0"/>
      <point x="820.5" y="109.0"/>
    </contour>
  </outline>
</glyph>
<glyph name="d" format="2">
  <advance width="1195.0"/>
  <unicode hex="0064"/>
  <anchor x="440.7925" y="0.0" name="bottom"/>
  <anchor x="1070.0" y="1199.5" name="center"/>
  <anchor x="834.235" y="1470.0" name="top"/>
  <anchor x="1247.5" y="1010.5" name="topright"/>
  <outline>
    <contour>
      <point x="710.0" y="3.0" type="curve"/>
      <point x="753.5" y="-1.5"/>
      <point x="874.0" y="-3.5"/>
      <point x="915.5" y="-3.5" type="curve"/>
      <point x="1044.5" y="486.0"/>
      <point x="1170.5" y="943.0"/>
      <point x="1331.0" y="1407.5" type="curve"/>
      <point x="1279.0" y="1420.5"/>
      <point x="1197.0" y="1427.0"/>
      <point x="1136.0" y="1427.0" type="curve"/>
      <point x="1105.0" y="1346.0"/>
      <point x="985.0" y="1002.0"/>
      <point x="941.5" y="844.5" type="curve"/>
      <point x="913.5" y="890.0"/>
      <point x="800.0" y="959.0"/>
      <point x="630.0" y="959.0" type="curve" smooth="yes"/>
      <point x="291.5" y="959.0"/>
      <point x="53.5" y="723.0"/>
      <point x="53.5" y="380.0" type="curve" smooth="yes"/>
      <point x="53.5" y="158.0"/>
      <point x="194.5" y="2.5"/>
      <point x="390.5" y="2.5" type="curve" smooth="yes"/>
      <point x="620.5" y="2.5"/>
      <point x="721.0" y="125.0"/>
      <point x="750.0" y="161.5" type="curve"/>
      <point x="741.0" y="129.0"/>
      <point x="717.0" y="35.5"/>
    </contour>
    <contour>
      <point x="476.0" y="223.0" type="curve" smooth="yes"/>
      <point x="360.0" y="223.0"/>
      <point x="281.5" y="291.0"/>
      <point x="281.5" y="432.0" type="curve" smooth="yes"/>
      <point x="281.5" y="635.0"/>
      <point x="421.5" y="761.5"/>
      <point x="624.5" y="761.5" type="curve" smooth="yes"/>
      <point x="748.5" y="761.5"/>
      <point x="846.5" y="702.5"/>
      <point x="881.0" y="661.5" type="curve"/>
      <point x="866.5" y="611.0"/>
      <point x="819.5" y="450.0"/>
      <point x="802.0" y="390.0" type="curve"/>
      <point x="755.5" y="340.5"/>
      <point x="633.5" y="223.0"/>
    </contour>
  </outline>
</glyph>
<glyph name="e" format="2">
  <advance width="1107.5"/>
  <unicode hex="0065"/>
  <anchor x="413.5" y="10.0" name="bottom"/>
  <anchor x="645.0" y="35.5" name="ogonek"/>
  <anchor x="732.5" y="1063.0" name="top"/>
  <outline>
    <contour>
      <point x="967.0" y="209.0" type="curve"/>
      <point x="951.5" y="268.5"/>
      <point x="866.5" y="374.0"/>
      <point x="852.5" y="387.5" type="curve"/>
      <point x="798.0" y="343.5"/>
      <point x="681.5" y="225.0"/>
      <point x="509.5" y="225.0" type="curve" smooth="yes"/>
      <point x="380.0" y="225.0"/>
      <point x="291.0" y="302.0"/>
      <point x="291.0" y="410.5" type="curve" smooth="yes"/>
      <point x="291.0" y="442.0"/>
      <point x="294.5" y="470.0"/>
      <point x="300.5" y="490.0" type="curve"/>
      <point x="367.0" y="500.0"/>
      <point x="527.5" y="512.5"/>
      <point x="651.0" y="515.0" type="curve" smooth="yes"/>
      <point x="749.5" y="517.5"/>
      <point x="990.0" y="516.0"/>
      <point x="1020.5" y="515.0" type="curve"/>
      <point x="1051.0" y="588.5"/>
      <point x="1067.5" y="666.5"/>
      <point x="1067.5" y="741.0" type="curve" smooth="yes"/>
      <point x="1067.5" y="943.5"/>
      <point x="945.5" y="1066.5"/>
      <point x="720.5" y="1066.5" type="curve" smooth="yes"/>
      <point x="349.5" y="1066.5"/>
      <point x="57.5" y="795.5"/>
      <point x="57.5" y="391.0" type="curve" smooth="yes"/>
      <point x="57.5" y="140.5"/>
      <point x="213.5" y="5.5"/>
      <point x="460.0" y="5.5" type="curve" smooth="yes"/>
      <point x="719.5" y="5.5"/>
      <point x="884.5" y="128.5"/>
    </contour>
    <contour>
      <point x="343.5" y="641.0" type="curve"/>
      <point x="376.5" y="798.5"/>
      <point x="532.0" y="907.5"/>
      <point x="691.0" y="907.5" type="curve" smooth="yes"/>
      <point x="814.5" y="907.5"/>
      <point x="863.0" y="831.0"/>
      <point x="864.0" y="747.5" type="curve" smooth="yes"/>
      <point x="864.0" y="719.0"/>
      <point x="861.0" y="687.5"/>
      <point x="854.5" y="664.5" type="curve"/>
      <point x="840.5" y="665.0"/>
      <point x="753.5" y="664.5"/>
      <point x="670.0" y="663.0" type="curve" smooth="yes"/>
      <point x="525.5" y="660.5"/>
      <point x="396.5" y="649.5"/>
    </contour>
  </outline>
</glyph>
<glyph name="f" format="2">
  <advance width="896.0"/>
  <unicode hex="0066"/>
  <anchor x="305.585" y="0.0" name="bottom"/>
  <anchor x="699.47" y="1470.0" name="top"/>
  <outline>
    <contour>
      <point x="149.5" y="-6.5" type="curve"/>
      <point x="222.0" y="-6.0"/>
      <point x="348.0" y="0.0"/>
      <point x="414.5" y="11.5" type="curve"/>
      <point x="416.5" y="85.0"/>
      <point x="444.5" y="436.0"/>
      <point x="455.5" y="529.0" type="curve"/>
      <point x="546.5" y="539.5"/>
      <point x="702.0" y="548.0"/>
      <point x="721.0" y="548.0" type="curve"/>
      <point x="737.5" y="607.5"/>
      <point x="756.5" y="690.5"/>
      <point x="763.5" y="743.5" type="curve"/>
      <point x="708.5" y="746.5"/>
      <point x="549.0" y="739.5"/>
      <point x="483.0" y="734.5" type="curve"/>
      <point x="488.5" y="777.5"/>
      <point x="499.5" y="844.5"/>
      <point x="511.5" y="890.0" type="curve" smooth="yes"/>
      <point x="545.5" y="1019.0"/>
      <point x="615.5" y="1132.5"/>
      <point x="742.0" y="1132.5" type="curve" smooth="yes"/>
      <point x="851.5" y="1132.5"/>
      <point x="884.5" y="1013.0"/>
      <point x="898.0" y="972.0" type="curve"/>
      <point x="930.0" y="1001.0"/>
      <point x="1029.0" y="1103.5"/>
      <point x="1076.0" y="1159.5" type="curve"/>
      <point x="1062.0" y="1216.0"/>
      <point x="988.5" y="1362.5"/>
      <point x="768.5" y="1362.5" type="curve" smooth="yes"/>
      <point x="512.5" y="1362.5"/>
      <point x="344.5" y="1151.5"/>
      <point x="280.0" y="910.5" type="curve" smooth="yes"/>
      <point x="262.5" y="844.5"/>
      <point x="248.5" y="769.0"/>
      <point x="239.0" y="699.0" type="curve"/>
      <point x="211.0" y="694.0"/>
      <point x="96.0" y="666.5"/>
      <point x="68.5" y="657.0" type="curve"/>
      <point x="54.0" y="600.5"/>
      <point x="42.5" y="498.5"/>
      <point x="42.0" y="452.5" type="curve"/>
      <point x="87.0" y="467.5"/>
      <point x="163.0" y="486.5"/>
      <point x="205.0" y="494.0" type="curve"/>
      <point x="184.5" y="340.5"/>
      <point x="151.0" y="12.0"/>
    </contour>
  </outline>
</glyph>
<glyph name="g" format="2">
  <advance width="1231.0"/>
  <unicode hex="0067"/>
  <anchor x="331.572" y="-530.0" name="bottom"/>
  <anchor x="758.415" y="1063.0" name="top"/>
  <outline>
    <contour>
      <point x="587.0" y="239.5" type="curve" smooth="yes"/>
      <point x="900.0" y="239.5"/>
      <point x="1138.5" y="430.0"/>
      <point x="1138.5" y="740.0" type="curve" smooth="yes"/>
      <point x="1138.5" y="789.0"/>
      <point x="1129.5" y="832.5"/>
      <point x="1112.0" y="870.5" type="curve"/>
      <point x="1168.5" y="927.5"/>
      <point x="1256.0" y="989.5"/>
      <point x="1300.0" y="1011.5" type="curve"/>
      <point x="1278.5" y="1047.5"/>
      <point x="1234.0" y="1129.0"/>
      <point x="1219.0" y="1162.5" type="curve"/>
      <point x="1154.5" y="1128.5"/>
      <point x="1064.0" y="1057.0"/>
      <point x="1005.5" y="990.0" type="curve"/>
      <point x="943.0" y="1032.5"/>
      <point x="855.5" y="1056.0"/>
      <point x="744.0" y="1056.0" type="curve" smooth="yes"/>
      <point x="427.5" y="1056.0"/>
      <point x="160.5" y="874.5"/>
      <point x="160.5" y="568.5" type="curve" smooth="yes"/>
      <point x="160.5" y="502.5"/>
      <point x="175.5" y="437.5"/>
      <point x="213.5" y="382.5" type="curve"/>
      <point x="132.5" y="352.5"/>
      <point x="62.0" y="281.0"/>
      <point x="62.0" y="198.5" type="curve" smooth="yes"/>
      <point x="62.0" y="157.0"/>
      <point x="83.5" y="116.5"/>
      <point x="133.5" y="85.5" type="curve"/>
      <point x="-14.5" y="29.5"/>
      <point x="-128.5" y="-78.0"/>
      <point x="-128.5" y="-230.5" type="curve" smooth="yes"/>
      <point x="-128.5" y="-425.0"/>
      <point x="65.0" y="-499.0"/>
      <point x="345.0" y="-499.0" type="curve" smooth="yes"/>
      <point x="674.5" y="-499.0"/>
      <point x="953.5" y="-388.5"/>
      <point x="953.5" y="-87.0" type="curve" smooth="yes"/>
      <point x="953.5" y="64.0"/>
      <point x="838.0" y="139.5"/>
      <point x="650.5" y="139.5" type="curve" smooth="yes"/>
      <point x="533.5" y="139.5"/>
      <point x="458.0" y="137.5"/>
      <point x="371.5" y="134.5" type="curve" smooth="yes"/>
      <point x="298.0" y="134.5"/>
      <point x="261.0" y="171.0"/>
      <point x="261.0" y="210.5" type="curve" smooth="yes"/>
      <point x="261.0" y="244.5"/>
      <point x="290.0" y="275.0"/>
      <point x="339.0" y="295.5" type="curve"/>
      <point x="398.5" y="261.5"/>
      <point x="479.5" y="239.5"/>
    </contour>
    <contour>
      <point x="380.5" y="-346.5" type="curve" smooth="yes"/>
      <point x="226.0" y="-346.5"/>
      <point x="113.5" y="-303.0"/>
      <point x="113.5" y="-205.5" type="curve" smooth="yes"/>
      <point x="113.5" y="-97.0"/>
      <point x="222.5" y="-37.5"/>
      <point x="333.5" y="-37.5" type="curve" smooth="yes"/>
      <point x="554.5" y="-37.5" type="line" smooth="yes"/>
      <point x="635.5" y="-37.5"/>
      <point x="717.0" y="-60.0"/>
      <point x="717.0" y="-144.5" type="curve" smooth="yes"/>
      <point x="717.0" y="-292.0"/>
      <point x="550.5" y="-346.5"/>
    </contour>
    <contour>
      <point x="603.0" y="424.0" type="curve" smooth="yes"/>
      <point x="479.5" y="424.0"/>
      <point x="406.5" y="493.5"/>
      <point x="406.5" y="598.5" type="curve" smooth="yes"/>
      <point x="406.5" y="776.0"/>
      <point x="556.0" y="874.0"/>
      <point x="729.0" y="874.0" type="curve" smooth="yes"/>
      <point x="848.5" y="874.0"/>
      <point x="918.0" y="802.5"/>
      <point x="918.0" y="699.0" type="curve" smooth="yes"/>
      <point x="918.0" y="527.0"/>
      <point x="782.0" y="424.0"/>
    </contour>
  </outline>
</glyph>
<glyph name="h" format="2">
  <advance width="1123.0"/>
  <unicode hex="0068"/>
  <anchor x="399.7925" y="0.0" name="bottom"/>
  <anchor x="517.5" y="1227.0" name="center"/>
  <anchor x="445.0" y="1405.0" name="top"/>
  <outline>
    <contour>
      <point x="203.0" y="-17.0" type="curve"/>
      <point x="245.0" y="78.5"/>
      <point x="323.5" y="322.0"/>
      <point x="382.5" y="538.5" type="curve"/>
      <point x="429.5" y="599.0"/>
      <point x="555.5" y="703.5"/>
      <point x="685.5" y="703.5" type="curve" smooth="yes"/>
      <point x="762.5" y="703.5"/>
      <point x="798.5" y="659.5"/>
      <point x="798.5" y="589.0" type="curve" smooth="yes"/>
      <point x="798.5" y="470.0"/>
      <point x="674.5" y="156.5"/>
      <point x="605.5" y="-1.0" type="curve"/>
      <point x="636.5" y="-7.5"/>
      <point x="678.0" y="-11.5"/>
      <point x="720.5" y="-11.5" type="curve" smooth="yes"/>
      <point x="760.0" y="-11.5"/>
      <point x="800.5" y="-9.0"/>
      <point x="837.5" y="-3.5" type="curve"/>
      <point x="924.5" y="202.5"/>
      <point x="1044.5" y="528.0"/>
      <point x="1044.5" y="689.0" type="curve" smooth="yes"/>
      <point x="1044.5" y="834.0"/>
      <point x="974.5" y="911.0"/>
      <point x="814.5" y="911.0" type="curve" smooth="yes"/>
      <point x="677.5" y="911.0"/>
      <point x="524.5" y="841.0"/>
      <point x="443.0" y="759.0" type="curve"/>
      <point x="511.0" y="1030.0"/>
      <point x="564.0" y="1292.0"/>
      <point x="573.5" y="1443.0" type="curve"/>
      <point x="529.5" y="1442.0"/>
      <point x="369.5" y="1418.0"/>
      <point x="348.0" y="1411.0" type="curve"/>
      <point x="305.5" y="1204.0"/>
      <point x="243.5" y="921.0"/>
      <point x="173.0" y="658.0" type="curve" smooth="yes"/>
      <point x="99.0" y="380.5"/>
      <point x="15.5" y="122.5"/>
      <point x="-36.0" y="-11.5" type="curve"/>
      <point x="-16.5" y="-19.0"/>
      <point x="32.0" y="-22.5"/>
      <point x="84.5" y="-22.5" type="curve" smooth="yes"/>
      <point x="130.0" y="-22.5"/>
      <point x="176.5" y="-20.5"/>
    </contour>
  </outline>
</glyph>
<glyph name="i" format="2">
  <advance width="610.0"/>
  <unicode hex="0069"/>
  <anchor x="160.0" y="0.0" name="bottom"/>
  <outline>
    <contour>
      <point x="255.5" y="0.0" type="curve"/>
      <point x="295.5" y="88.0"/>
      <point x="406.5" y="455.0"/>
      <point x="472.0" y="701.5" type="curve" smooth="yes"/>
      <point x="498.5" y="801.0"/>
      <point x="518.5" y="892.0"/>
      <point x="523.5" y="930.0" type="curve"/>
      <point x="471.5" y="930.0"/>
      <point x="352.5" y="923.5"/>
      <point x="301.0" y="918.5" type="curve"/>
      <point x="241.0" y="713.0"/>
      <point x="47.5" y="88.5"/>
      <point x="9.5" y="1.5" type="curve"/>
      <point x="45.5" y="-3.5"/>
      <point x="86.0" y="-6.0"/>
      <point x="128.0" y="-6.0" type="curve" smooth="yes"/>
      <point x="179.0" y="-6.0"/>
      <point x="233.5" y="-2.0"/>
    </contour>
    <contour>
      <point x="470.0" y="1071.5" type="curve" smooth="yes"/>
      <point x="575.5" y="1071.5"/>
      <point x="661.0" y="1165.0"/>
      <point x="661.0" y="1270.5" type="curve" smooth="yes"/>
      <point x="661.0" y="1338.0"/>
      <point x="611.0" y="1389.5"/>
      <point x="537.0" y="1389.5" type="curve" smooth="yes"/>
      <point x="425.0" y="1389.5"/>
      <point x="331.0" y="1299.5"/>
      <point x="331.0" y="1186.5" type="curve" smooth="yes"/>
      <point x="331.0" y="1117.5"/>
      <point x="387.5" y="1071.5"/>
    </contour>
  </outline>
</glyph>
<glyph name="j" format="2">
  <advance width="663.5"/>
  <unicode hex="006A"/>
  <outline>
    <contour>
      <point x="442.0" y="194.5" type="curve" smooth="yes"/>
      <point x="506.5" y="445.0"/>
      <point x="545.5" y="760.5"/>
      <point x="554.5" y="931.5" type="curve"/>
      <point x="301.5" y="918.0" type="line"/>
      <point x="285.5" y="695.5"/>
      <point x="237.5" y="403.5"/>
      <point x="178.5" y="181.0" type="curve" smooth="yes"/>
      <point x="124.5" y="-21.5"/>
      <point x="41.0" y="-277.0"/>
      <point x="-101.5" y="-277.0" type="curve" smooth="yes"/>
      <point x="-208.0" y="-277.0"/>
      <point x="-253.0" y="-172.0"/>
      <point x="-259.5" y="-78.0" type="curve"/>
      <point x="-325.0" y="-99.0"/>
      <point x="-429.0" y="-145.5"/>
      <point x="-502.0" y="-190.5" type="curve"/>
      <point x="-486.0" y="-367.5"/>
      <point x="-338.5" y="-487.5"/>
      <point x="-135.5" y="-487.5" type="curve" smooth="yes"/>
      <point x="181.5" y="-487.5"/>
      <point x="335.0" y="-225.5"/>
    </contour>
    <contour>
      <point x="492.5" y="1388.5" type="curve" smooth="yes"/>
      <point x="382.0" y="1388.5"/>
      <point x="287.5" y="1299.5"/>
      <point x="287.5" y="1194.0" type="curve" smooth="yes"/>
      <point x="287.5" y="1124.5"/>
      <point x="346.5" y="1070.0"/>
      <point x="430.0" y="1070.0" type="curve" smooth="yes"/>
      <point x="535.5" y="1070.0"/>
      <point x="639.0" y="1156.5"/>
      <point x="639.0" y="1257.0" type="curve" smooth="yes"/>
      <point x="639.0" y="1323.5"/>
      <point x="586.0" y="1388.5"/>
    </contour>
  </outline>
</glyph>
<glyph name="k" format="2">
  <advance width="1156.0"/>
  <unicode hex="006B"/>
  <anchor x="445.7925" y="0.0" name="bottom"/>
  <anchor x="839.235" y="1470.0" name="top"/>
  <outline>
    <contour>
      <point x="758.0" y="-45.5" type="curve"/>
      <point x="804.0" y="-33.5"/>
      <point x="960.5" y="23.0"/>
      <point x="994.0" y="41.0" type="curve"/>
      <point x="921.5" y="250.5"/>
      <point x="765.0" y="518.0"/>
      <point x="703.0" y="575.0" type="curve"/>
      <point x="803.0" y="638.5"/>
      <point x="1077.0" y="781.5"/>
      <point x="1189.0" y="838.0" type="curve"/>
      <point x="1174.0" y="880.5"/>
      <point x="1117.0" y="983.5"/>
      <point x="1082.0" y="1014.5" type="curve"/>
      <point x="927.5" y="938.5"/>
      <point x="578.5" y="762.5"/>
      <point x="432.5" y="631.0" type="curve"/>
      <point x="481.5" y="783.0"/>
      <point x="595.5" y="1168.5"/>
      <point x="672.0" y="1437.0" type="curve"/>
      <point x="639.0" y="1447.5"/>
      <point x="595.0" y="1452.0"/>
      <point x="547.5" y="1452.0" type="curve" smooth="yes"/>
      <point x="512.5" y="1452.0"/>
      <point x="476.0" y="1450.0"/>
      <point x="443.5" y="1447.5" type="curve"/>
      <point x="370.5" y="1222.5"/>
      <point x="50.5" y="175.0"/>
      <point x="-10.5" y="-25.0" type="curve"/>
      <point x="21.5" y="-29.5"/>
      <point x="65.0" y="-33.5"/>
      <point x="113.0" y="-33.5" type="curve" smooth="yes"/>
      <point x="150.5" y="-33.5"/>
      <point x="190.0" y="-31.0"/>
      <point x="227.0" y="-26.5" type="curve"/>
      <point x="246.5" y="30.0"/>
      <point x="311.5" y="230.5"/>
      <point x="345.0" y="346.0" type="curve"/>
      <point x="364.0" y="361.5"/>
      <point x="477.0" y="432.5"/>
      <point x="515.5" y="455.5" type="curve"/>
      <point x="588.0" y="386.5"/>
      <point x="725.5" y="71.5"/>
    </contour>
  </outline>
</glyph>
<glyph name="l" format="2">
  <advance width="645.0"/>
  <unicode hex="006C"/>
  <anchor x="165.585" y="0.0" name="bottom"/>
  <anchor x="362.528" y="735.0" name="center"/>
  <anchor x="559.47" y="1470.0" name="top"/>
  <anchor x="556.5" y="1032.5" name="topright"/>
  <outline>
    <contour>
      <point x="511.5" y="58.5" type="curve"/>
      <point x="507.5" y="78.5"/>
      <point x="476.0" y="218.5"/>
      <point x="466.0" y="243.0" type="curve"/>
      <point x="435.0" y="204.0"/>
      <point x="397.5" y="177.0"/>
      <point x="346.5" y="177.0" type="curve" smooth="yes"/>
      <point x="297.5" y="177.0"/>
      <point x="281.0" y="212.5"/>
      <point x="281.0" y="266.5" type="curve" smooth="yes"/>
      <point x="281.0" y="424.5"/>
      <point x="474.5" y="1011.5"/>
      <point x="615.5" y="1426.0" type="curve"/>
      <point x="571.5" y="1430.5"/>
      <point x="534.0" y="1433.0"/>
      <point x="493.5" y="1433.0" type="curve" smooth="yes"/>
      <point x="465.0" y="1433.0"/>
      <point x="427.5" y="1431.5"/>
      <point x="392.0" y="1429.0" type="curve"/>
      <point x="289.0" y="1121.0"/>
      <point x="46.0" y="390.5"/>
      <point x="46.0" y="159.0" type="curve" smooth="yes"/>
      <point x="46.0" y="36.0"/>
      <point x="113.0" y="-37.5"/>
      <point x="260.0" y="-37.5" type="curve" smooth="yes"/>
      <point x="375.0" y="-37.5"/>
      <point x="466.5" y="16.0"/>
    </contour>
  </outline>
</glyph>
<glyph name="m" format="2">
  <advance width="1858.0"/>
  <unicode hex="006D"/>
  <anchor x="786.585" y="0.0" name="bottom"/>
  <anchor x="1071.415" y="1063.0" name="top"/>
  <outline>
    <contour>
      <point x="25.0" y="-8.5" type="curve"/>
      <point x="54.5" y="-13.0"/>
      <point x="121.5" y="-16.5"/>
      <point x="184.0" y="-16.5" type="curve" smooth="yes"/>
      <point x="211.0" y="-16.5"/>
      <point x="256.5" y="-14.5"/>
      <point x="269.5" y="-13.5" type="curve"/>
      <point x="274.0" y="24.5"/>
      <point x="317.0" y="266.0"/>
      <point x="390.5" y="585.5" type="curve"/>
      <point x="424.0" y="673.0"/>
      <point x="589.0" y="831.0"/>
      <point x="724.5" y="831.0" type="curve" smooth="yes"/>
      <point x="815.5" y="831.0"/>
      <point x="849.0" y="781.5"/>
      <point x="849.0" y="677.0" type="curve" smooth="yes"/>
      <point x="849.0" y="534.0"/>
      <point x="776.0" y="243.0"/>
      <point x="704.0" y="-7.0" type="curve"/>
      <point x="724.5" y="-11.0"/>
      <point x="775.5" y="-13.0"/>
      <point x="822.5" y="-13.0" type="curve" smooth="yes"/>
      <point x="862.0" y="-13.0"/>
      <point x="903.5" y="-11.0"/>
      <point x="927.0" y="-9.0" type="curve"/>
      <point x="947.5" y="68.5"/>
      <point x="969.0" y="147.0"/>
      <point x="990.0" y="219.0" type="curve" smooth="yes"/>
      <point x="1081.0" y="539.5"/>
      <point x="1199.5" y="834.5"/>
      <point x="1426.0" y="834.5" type="curve" smooth="yes"/>
      <point x="1505.0" y="834.5"/>
      <point x="1540.5" y="785.5"/>
      <point x="1540.5" y="691.0" type="curve" smooth="yes"/>
      <point x="1540.5" y="527.0"/>
      <point x="1428.0" y="227.5"/>
      <point x="1329.5" y="-14.5" type="curve"/>
      <point x="1369.5" y="-18.5"/>
      <point x="1411.5" y="-20.0"/>
      <point x="1451.0" y="-20.0" type="curve" smooth="yes"/>
      <point x="1490.0" y="-20.0"/>
      <point x="1531.0" y="-18.0"/>
      <point x="1569.0" y="-14.5" type="curve"/>
      <point x="1662.5" y="252.0"/>
      <point x="1767.5" y="575.5"/>
      <point x="1767.5" y="774.0" type="curve" smooth="yes"/>
      <point x="1767.5" y="945.5"/>
      <point x="1685.5" y="1045.5"/>
      <point x="1494.5" y="1045.5" type="curve" smooth="yes"/>
      <point x="1270.0" y="1045.5"/>
      <point x="1107.0" y="872.0"/>
      <point x="1022.5" y="696.5" type="curve"/>
      <point x="1031.0" y="739.5"/>
      <point x="1037.0" y="786.5"/>
      <point x="1034.5" y="830.5" type="curve" smooth="yes"/>
      <point x="1025.5" y="939.0"/>
      <point x="966.0" y="1034.5"/>
      <point x="822.5" y="1034.5" type="curve" smooth="yes"/>
      <point x="609.0" y="1034.5"/>
      <point x="478.0" y="884.5"/>
      <point x="444.5" y="829.5" type="curve"/>
      <point x="451.5" y="859.5"/>
      <point x="480.0" y="984.5"/>
      <point x="491.5" y="1027.0" type="curve"/>
      <point x="441.0" y="1026.5"/>
      <point x="304.5" y="1010.0"/>
      <point x="253.0" y="996.0" type="curve"/>
      <point x="189.0" y="757.0"/>
      <point x="65.0" y="223.5"/>
    </contour>
  </outline>
</glyph>
<glyph name="n" format="2">
  <advance width="1330.0"/>
  <unicode hex="006E"/>
  <anchor x="522.585" y="0.0" name="bottom"/>
  <anchor x="807.415" y="1063.0" name="top"/>
  <outline>
    <contour>
      <point x="256.0" y="-13.0" type="curve"/>
      <point x="300.0" y="96.0"/>
      <point x="391.0" y="349.5"/>
      <point x="485.5" y="679.5" type="curve"/>
      <point x="569.5" y="743.0"/>
      <point x="728.0" y="839.0"/>
      <point x="886.5" y="839.0" type="curve" smooth="yes"/>
      <point x="991.5" y="839.0"/>
      <point x="1032.0" y="788.5"/>
      <point x="1032.0" y="702.0" type="curve" smooth="yes"/>
      <point x="1032.0" y="549.0"/>
      <point x="896.0" y="200.5"/>
      <point x="807.0" y="-3.0" type="curve"/>
      <point x="831.0" y="-6.5"/>
      <point x="880.0" y="-8.5"/>
      <point x="931.5" y="-8.5" type="curve" smooth="yes"/>
      <point x="981.0" y="-8.5"/>
      <point x="1029.5" y="-6.0"/>
      <point x="1052.5" y="-3.0" type="curve"/>
      <point x="1153.5" y="263.5"/>
      <point x="1280.5" y="636.0"/>
      <point x="1280.5" y="821.0" type="curve" smooth="yes"/>
      <point x="1280.5" y="977.5"/>
      <point x="1204.5" y="1060.0"/>
      <point x="1001.0" y="1060.0" type="curve" smooth="yes"/>
      <point x="832.5" y="1060.0"/>
      <point x="624.0" y="955.5"/>
      <point x="541.0" y="876.5" type="curve"/>
      <point x="555.0" y="920.5"/>
      <point x="580.5" y="1018.0"/>
      <point x="584.0" y="1038.5" type="curve"/>
      <point x="559.0" y="1043.0"/>
      <point x="522.0" y="1044.5"/>
      <point x="485.5" y="1044.5" type="curve" smooth="yes"/>
      <point x="430.5" y="1044.5"/>
      <point x="373.5" y="1040.5"/>
      <point x="333.5" y="1035.0" type="curve"/>
      <point x="195.0" y="519.0"/>
      <point x="100.0" y="216.5"/>
      <point x="15.0" y="-6.5" type="curve"/>
      <point x="38.0" y="-9.0"/>
      <point x="95.5" y="-12.0"/>
      <point x="134.5" y="-13.0" type="curve" smooth="yes"/>
      <point x="178.5" y="-14.0"/>
      <point x="224.5" y="-13.5"/>
    </contour>
  </outline>
</glyph>
<glyph name="o" format="2">
  <advance width="1171.0"/>
  <unicode hex="006F"/>
  <anchor x="433.5" y="0.0" name="bottom"/>
  <anchor x="575.5" y="532.0" name="center"/>
  <anchor x="649.0" y="0.0" name="ogonek"/>
  <anchor x="717.5" y="1063.0" name="top"/>
  <anchor x="985.0" y="941.0" name="topright"/>
  <outline>
    <contour>
      <point x="479.0" y="-28.0" type="curve" smooth="yes"/>
      <point x="868.0" y="-28.0"/>
      <point x="1100.0" y="274.0"/>
      <point x="1100.0" y="669.5" type="curve" smooth="yes"/>
      <point x="1100.0" y="915.0"/>
      <point x="984.5" y="1067.5"/>
      <point x="718.0" y="1067.5" type="curve" smooth="yes"/>
      <point x="320.5" y="1067.5"/>
      <point x="60.5" y="760.0"/>
      <point x="60.5" y="357.5" type="curve" smooth="yes"/>
      <point x="60.5" y="122.5"/>
      <point x="197.0" y="-28.0"/>
    </contour>
    <contour>
      <point x="508.5" y="187.0" type="curve" smooth="yes"/>
      <point x="367.5" y="187.0"/>
      <point x="298.0" y="283.5"/>
      <point x="298.0" y="418.0" type="curve" smooth="yes"/>
      <point x="298.0" y="651.5"/>
      <point x="443.5" y="887.5"/>
      <point x="678.0" y="887.5" type="curve" smooth="yes"/>
      <point x="822.0" y="887.5"/>
      <point x="883.5" y="788.5"/>
      <point x="883.5" y="648.0" type="curve" smooth="yes"/>
      <point x="883.5" y="411.5"/>
      <point x="743.5" y="187.0"/>
    </contour>
  </outline>
</glyph>
<glyph name="p" format="2">
  <advance width="1214.0"/>
  <unicode hex="0070"/>
  <anchor x="457.585" y="0.0" name="bottom"/>
  <anchor x="742.415" y="1063.0" name="top"/>
  <outline>
    <contour>
      <point x="-185.0" y="-442.0" type="curve"/>
      <point x="-137.5" y="-442.0"/>
      <point x="-27.5" y="-437.5"/>
      <point x="58.5" y="-421.0" type="curve"/>
      <point x="107.0" y="-299.5"/>
      <point x="249.5" y="121.5"/>
      <point x="272.0" y="198.0" type="curve"/>
      <point x="300.0" y="151.0"/>
      <point x="436.5" y="78.5"/>
      <point x="578.5" y="78.5" type="curve" smooth="yes"/>
      <point x="938.5" y="78.5"/>
      <point x="1168.0" y="369.5"/>
      <point x="1168.0" y="728.0" type="curve" smooth="yes"/>
      <point x="1168.0" y="940.5"/>
      <point x="1075.5" y="1076.5"/>
      <point x="857.0" y="1076.5" type="curve" smooth="yes"/>
      <point x="675.5" y="1076.5"/>
      <point x="539.0" y="976.5"/>
      <point x="484.5" y="923.5" type="curve"/>
      <point x="498.5" y="971.5"/>
      <point x="516.0" y="1041.0"/>
      <point x="522.5" y="1078.0" type="curve"/>
      <point x="446.0" y="1078.0"/>
      <point x="353.0" y="1069.5"/>
      <point x="285.0" y="1050.5" type="curve"/>
      <point x="216.0" y="793.5"/>
      <point x="2.5" y="75.0"/>
    </contour>
    <contour>
      <point x="592.5" y="313.5" type="curve" smooth="yes"/>
      <point x="443.5" y="313.5"/>
      <point x="369.0" y="385.5"/>
      <point x="340.0" y="421.0" type="curve"/>
      <point x="353.5" y="462.0"/>
      <point x="423.5" y="700.0"/>
      <point x="435.0" y="741.0" type="curve"/>
      <point x="482.0" y="786.0"/>
      <point x="609.5" y="878.5"/>
      <point x="758.5" y="878.5" type="curve" smooth="yes"/>
      <point x="888.5" y="878.5"/>
      <point x="934.5" y="813.0"/>
      <point x="934.5" y="693.0" type="curve" smooth="yes"/>
      <point x="934.5" y="477.0"/>
      <point x="814.5" y="313.5"/>
    </contour>
  </outline>
</glyph>
<glyph name="q" format="2">
  <advance width="1207.0"/>
  <unicode hex="0071"/>
  <anchor x="461.585" y="0.0" name="bottom"/>
  <anchor x="746.415" y="1063.0" name="top"/>
  <outline>
    <contour>
      <point x="816.5" y="-457.5" type="curve"/>
      <point x="833.5" y="-343.0"/>
      <point x="872.0" y="-112.0"/>
      <point x="933.5" y="117.5" type="curve" smooth="yes"/>
      <point x="1012.0" y="411.0"/>
      <point x="1136.0" y="777.5"/>
      <point x="1249.0" y="1057.5" type="curve"/>
      <point x="1184.5" y="1076.0"/>
      <point x="1110.0" y="1089.0"/>
      <point x="1043.5" y="1090.0" type="curve"/>
      <point x="1033.5" y="1070.5"/>
      <point x="1001.5" y="993.5"/>
      <point x="991.0" y="959.0" type="curve"/>
      <point x="932.5" y="1024.5"/>
      <point x="827.5" y="1085.0"/>
      <point x="670.5" y="1085.0" type="curve" smooth="yes"/>
      <point x="306.5" y="1085.0"/>
      <point x="102.0" y="785.5"/>
      <point x="102.0" y="395.0" type="curve" smooth="yes"/>
      <point x="102.0" y="178.0"/>
      <point x="196.0" y="23.0"/>
      <point x="424.5" y="23.0" type="curve" smooth="yes"/>
      <point x="575.5" y="23.0"/>
      <point x="683.0" y="89.5"/>
      <point x="722.5" y="133.5" type="curve"/>
      <point x="668.5" y="-67.5"/>
      <point x="618.0" y="-284.5"/>
      <point x="593.5" y="-445.5" type="curve"/>
      <point x="649.0" y="-451.5"/>
      <point x="729.0" y="-457.5"/>
    </contour>
    <contour>
      <point x="501.5" y="258.0" type="curve" smooth="yes"/>
      <point x="380.5" y="258.0"/>
      <point x="332.5" y="337.0"/>
      <point x="332.5" y="450.0" type="curve" smooth="yes"/>
      <point x="332.5" y="672.5"/>
      <point x="464.0" y="866.0"/>
      <point x="676.5" y="866.0" type="curve" smooth="yes"/>
      <point x="806.5" y="866.0"/>
      <point x="901.0" y="790.0"/>
      <point x="922.5" y="769.5" type="curve"/>
      <point x="890.5" y="684.5"/>
      <point x="809.0" y="446.0"/>
      <point x="783.5" y="363.5" type="curve"/>
      <point x="740.0" y="328.0"/>
      <point x="621.5" y="258.0"/>
    </contour>
  </outline>
</glyph>
<glyph name="r" format="2">
  <advance width="853.0"/>
  <unicode hex="0072"/>
  <anchor x="289.7925" y="0.0" name="bottom"/>
  <anchor x="574.2075" y="1063.0" name="top"/>
  <outline>
    <contour>
      <point x="396.0" y="889.5" type="curve"/>
      <point x="398.0" y="929.5"/>
      <point x="399.0" y="1016.0"/>
      <point x="399.0" y="1064.0" type="curve"/>
      <point x="375.0" y="1062.5"/>
      <point x="259.5" y="1041.5"/>
      <point x="187.0" y="1021.5" type="curve"/>
      <point x="183.5" y="745.0"/>
      <point x="95.5" y="302.0"/>
      <point x="16.0" y="-3.0" type="curve"/>
      <point x="99.0" y="-4.5"/>
      <point x="205.0" y="-3.0"/>
      <point x="276.5" y="5.0" type="curve"/>
      <point x="305.5" y="115.0"/>
      <point x="369.0" y="498.0"/>
      <point x="383.0" y="675.5" type="curve"/>
      <point x="467.5" y="765.0"/>
      <point x="596.0" y="832.0"/>
      <point x="706.5" y="832.0" type="curve" smooth="yes"/>
      <point x="775.0" y="832.0"/>
      <point x="818.0" y="813.0"/>
      <point x="845.5" y="800.0" type="curve"/>
      <point x="957.5" y="1040.0" type="line"/>
      <point x="930.0" y="1058.0"/>
      <point x="852.0" y="1072.5"/>
      <point x="785.0" y="1072.5" type="curve" smooth="yes"/>
      <point x="637.5" y="1072.5"/>
      <point x="477.5" y="986.0"/>
    </contour>
  </outline>
</glyph>
<glyph name="s" format="2">
  <advance width="991.5"/>
  <unicode hex="0073"/>
  <anchor x="338.5" y="-65.0" name="bottom"/>
  <anchor x="649.0" y="1111.0" name="top"/>
  <outline>
    <contour>
      <point x="363.0" y="-80.5" type="curve" smooth="yes"/>
      <point x="634.5" y="-80.5"/>
      <point x="882.5" y="59.0"/>
      <point x="882.5" y="320.5" type="curve" smooth="yes"/>
      <point x="882.5" y="481.5"/>
      <point x="764.5" y="583.5"/>
      <point x="602.0" y="647.0" type="curve" smooth="yes"/>
      <point x="488.5" y="693.0"/>
      <point x="424.0" y="737.5"/>
      <point x="424.0" y="802.5" type="curve" smooth="yes"/>
      <point x="424.0" y="902.0"/>
      <point x="555.5" y="936.5"/>
      <point x="652.5" y="936.5" type="curve" smooth="yes"/>
      <point x="749.5" y="936.5"/>
      <point x="834.5" y="887.0"/>
      <point x="883.5" y="843.5" type="curve"/>
      <point x="942.0" y="897.5"/>
      <point x="1008.0" y="982.5"/>
      <point x="1029.0" y="1018.5" type="curve"/>
      <point x="967.5" y="1071.0"/>
      <point x="836.0" y="1120.5"/>
      <point x="672.0" y="1120.5" type="curve" smooth="yes"/>
      <point x="444.5" y="1120.5"/>
      <point x="200.0" y="1014.0"/>
      <point x="200.0" y="783.5" type="curve" smooth="yes"/>
      <point x="200.0" y="631.5"/>
      <point x="300.0" y="552.5"/>
      <point x="453.5" y="487.5" type="curve" smooth="yes"/>
      <point x="572.5" y="438.0"/>
      <point x="651.0" y="385.0"/>
      <point x="651.0" y="299.5" type="curve" smooth="yes"/>
      <point x="651.0" y="180.5"/>
      <point x="529.5" y="122.5"/>
      <point x="407.5" y="122.5" type="curve" smooth="yes"/>
      <point x="281.0" y="122.5"/>
      <point x="164.5" y="214.5"/>
      <point x="100.5" y="307.5" type="curve"/>
      <point x="54.5" y="270.0"/>
      <point x="-50.0" y="142.5"/>
      <point x="-77.5" y="102.5" type="curve"/>
      <point x="-22.5" y="16.0"/>
      <point x="150.5" y="-80.5"/>
    </contour>
  </outline>
</glyph>
<glyph name="t" format="2">
  <advance width="964.0"/>
  <unicode hex="0074"/>
  <anchor x="476.5" y="-43.0" name="bottom"/>
  <anchor x="452.0" y="532.0" name="center"/>
  <anchor x="627.5" y="1428.5" name="top"/>
  <anchor x="774.0" y="1281.0" name="topright"/>
  <outline>
    <contour>
      <point x="779.0" y="152.5" type="curve"/>
      <point x="768.5" y="168.0"/>
      <point x="699.5" y="292.0"/>
      <point x="685.5" y="309.0" type="curve"/>
      <point x="657.0" y="257.0"/>
      <point x="601.0" y="165.0"/>
      <point x="522.5" y="165.0" type="curve" smooth="yes"/>
      <point x="466.5" y="165.0"/>
      <point x="451.0" y="203.5"/>
      <point x="451.0" y="266.5" type="curve" smooth="yes"/>
      <point x="451.0" y="386.0"/>
      <point x="562.5" y="763.0"/>
      <point x="609.5" y="900.5" type="curve"/>
      <point x="659.0" y="904.0"/>
      <point x="726.5" y="908.0"/>
      <point x="778.5" y="910.0" type="curve" smooth="yes"/>
      <point x="853.5" y="913.0"/>
      <point x="946.5" y="912.5"/>
      <point x="959.5" y="912.0" type="curve"/>
      <point x="974.0" y="964.5"/>
      <point x="994.5" y="1050.5"/>
      <point x="1000.0" y="1096.5" type="curve"/>
      <point x="985.0" y="1097.0"/>
      <point x="902.5" y="1099.5"/>
      <point x="811.5" y="1097.0" type="curve" smooth="yes"/>
      <point x="775.5" y="1096.0"/>
      <point x="705.5" y="1092.5"/>
      <point x="664.0" y="1090.5" type="curve"/>
      <point x="676.0" y="1137.0"/>
      <point x="688.0" y="1183.0"/>
      <point x="699.0" y="1224.0" type="curve" smooth="yes"/>
      <point x="725.5" y="1322.5"/>
      <point x="747.5" y="1417.0"/>
      <point x="749.5" y="1432.5" type="curve"/>
      <point x="525.5" y="1416.5" type="line"/>
      <point x="519.0" y="1382.0"/>
      <point x="506.0" y="1325.0"/>
      <point x="492.5" y="1270.5" type="curve" smooth="yes"/>
      <point x="476.5" y="1207.0"/>
      <point x="458.0" y="1139.0"/>
      <point x="439.5" y="1078.0" type="curve"/>
      <point x="341.5" y="1072.5"/>
      <point x="238.5" y="1060.0"/>
      <point x="160.0" y="1049.5" type="curve"/>
      <point x="154.5" y="1029.5"/>
      <point x="130.5" y="925.5"/>
      <point x="124.5" y="846.5" type="curve"/>
      <point x="155.5" y="853.5"/>
      <point x="262.5" y="871.0"/>
      <point x="388.0" y="883.0" type="curve"/>
      <point x="343.0" y="754.5"/>
      <point x="230.0" y="350.0"/>
      <point x="230.0" y="202.0" type="curve" smooth="yes"/>
      <point x="230.0" y="61.5"/>
      <point x="293.0" y="-43.0"/>
      <point x="452.5" y="-43.0" type="curve" smooth="yes"/>
      <point x="630.0" y="-43.0"/>
      <point x="726.5" y="64.0"/>
    </contour>
  </outline>
</glyph>
<glyph name="u" format="2">
  <advance width="1178.0"/>
  <unicode hex="0075"/>
  <anchor x="441.7925" y="0.0" name="bottom"/>
  <anchor x="675.0" y="0.0" name="ogonek"/>
  <anchor x="726.2075" y="1063.0" name="top"/>
  <anchor x="1095.5" y="921.0" name="topright"/>
  <outline>
    <contour>
      <point x="917.5" y="992.5" type="curve"/>
      <point x="908.5" y="870.0"/>
      <point x="886.5" y="748.5"/>
      <point x="854.0" y="630.0" type="curve" smooth="yes"/>
      <point x="776.5" y="345.5"/>
      <point x="655.0" y="166.5"/>
      <point x="499.5" y="166.5" type="curve" smooth="yes"/>
      <point x="397.0" y="166.5"/>
      <point x="345.0" y="234.0"/>
      <point x="345.0" y="370.0" type="curve" smooth="yes"/>
      <point x="345.0" y="541.0"/>
      <point x="426.5" y="803.0"/>
      <point x="507.5" y="1019.5" type="curve"/>
      <point x="479.0" y="1028.5"/>
      <point x="426.5" y="1034.5"/>
      <point x="377.5" y="1036.0" type="curve" smooth="yes"/>
      <point x="342.0" y="1037.5"/>
      <point x="294.0" y="1036.5"/>
      <point x="265.5" y="1035.0" type="curve"/>
      <point x="178.0" y="783.0"/>
      <point x="97.0" y="523.0"/>
      <point x="97.0" y="320.0" type="curve" smooth="yes"/>
      <point x="97.0" y="96.5"/>
      <point x="190.5" y="-52.5"/>
      <point x="452.0" y="-52.5" type="curve" smooth="yes"/>
      <point x="811.0" y="-52.5"/>
      <point x="994.0" y="255.0"/>
      <point x="1092.5" y="624.5" type="curve" smooth="yes"/>
      <point x="1125.0" y="747.0"/>
      <point x="1145.5" y="875.5"/>
      <point x="1158.5" y="998.0" type="curve"/>
      <point x="1132.5" y="1002.5"/>
      <point x="1080.5" y="1005.5"/>
      <point x="1042.5" y="1005.5" type="curve" smooth="yes"/>
      <point x="997.5" y="1005.5"/>
      <point x="943.5" y="1000.0"/>
    </contour>
  </outline>
</glyph>
<glyph name="v" format="2">
  <advance width="1007.0"/>
  <unicode hex="0076"/>
  <anchor x="361.585" y="0.0" name="bottom"/>
  <anchor x="646.415" y="1063.0" name="top"/>
  <outline>
    <contour>
      <point x="890.0" y="1091.0" type="curve"/>
      <point x="773.5" y="833.0"/>
      <point x="561.5" y="482.5"/>
      <point x="433.0" y="283.0" type="curve"/>
      <point x="404.0" y="451.0"/>
      <point x="377.0" y="854.0"/>
      <point x="377.0" y="1092.0" type="curve"/>
      <point x="319.5" y="1077.0"/>
      <point x="197.0" y="1048.5"/>
      <point x="161.0" y="1040.0" type="curve"/>
      <point x="173.0" y="726.0"/>
      <point x="205.0" y="308.0"/>
      <point x="270.0" y="2.5" type="curve"/>
      <point x="294.5" y="-1.0"/>
      <point x="331.5" y="-4.5"/>
      <point x="370.0" y="-4.5" type="curve" smooth="yes"/>
      <point x="408.5" y="-4.5"/>
      <point x="447.5" y="-2.0"/>
      <point x="474.5" y="2.5" type="curve"/>
      <point x="668.0" y="277.0"/>
      <point x="984.5" y="795.0"/>
      <point x="1103.5" y="1033.5" type="curve"/>
      <point x="1090.0" y="1039.5"/>
      <point x="992.5" y="1071.5"/>
    </contour>
  </outline>
</glyph>
<glyph name="w" format="2">
  <advance width="1520.0"/>
  <unicode hex="0077"/>
  <anchor x="617.585" y="0.0" name="bottom"/>
  <anchor x="902.415" y="1063.0" name="top"/>
  <outline>
    <contour>
      <point x="325.0" y="7.0" type="curve" smooth="yes"/>
      <point x="476.5" y="7.0"/>
      <point x="603.5" y="117.0"/>
      <point x="675.0" y="252.0" type="curve"/>
      <point x="691.0" y="123.0"/>
      <point x="744.0" y="14.5"/>
      <point x="900.5" y="14.5" type="curve" smooth="yes"/>
      <point x="1195.5" y="14.5"/>
      <point x="1373.0" y="376.5"/>
      <point x="1480.0" y="769.0" type="curve" smooth="yes"/>
      <point x="1499.5" y="840.5"/>
      <point x="1525.5" y="961.0"/>
      <point x="1540.5" y="1036.0" type="curve"/>
      <point x="1513.5" y="1038.5"/>
      <point x="1462.5" y="1041.5"/>
      <point x="1429.0" y="1041.5" type="curve" smooth="yes"/>
      <point x="1396.0" y="1041.5"/>
      <point x="1363.5" y="1041.5"/>
      <point x="1329.5" y="1041.0" type="curve"/>
      <point x="1311.0" y="963.0"/>
      <point x="1287.0" y="864.0"/>
      <point x="1268.5" y="795.5" type="curve" smooth="yes"/>
      <point x="1185.0" y="484.5"/>
      <point x="1064.5" y="209.5"/>
      <point x="924.5" y="209.5" type="curve" smooth="yes"/>
      <point x="861.5" y="209.5"/>
      <point x="838.0" y="259.0"/>
      <point x="838.0" y="343.0" type="curve" smooth="yes"/>
      <point x="838.0" y="463.0"/>
      <point x="882.0" y="630.5"/>
      <point x="990.0" y="1036.0" type="curve"/>
      <point x="942.0" y="1039.0"/>
      <point x="830.5" y="1040.5"/>
      <point x="784.0" y="1040.5" type="curve"/>
      <point x="765.0" y="959.0"/>
      <point x="739.0" y="854.5"/>
      <point x="718.5" y="778.0" type="curve" smooth="yes"/>
      <point x="636.5" y="473.5"/>
      <point x="520.5" y="232.5"/>
      <point x="393.5" y="232.5" type="curve" smooth="yes"/>
      <point x="334.5" y="232.5"/>
      <point x="310.0" y="280.0"/>
      <point x="310.0" y="358.0" type="curve" smooth="yes"/>
      <point x="310.0" y="507.0"/>
      <point x="413.0" y="820.0"/>
      <point x="497.5" y="1050.0" type="curve"/>
      <point x="434.0" y="1055.0"/>
      <point x="340.0" y="1059.0"/>
      <point x="277.5" y="1059.0" type="curve"/>
      <point x="180.0" y="795.5"/>
      <point x="83.0" y="510.0"/>
      <point x="83.0" y="299.0" type="curve" smooth="yes"/>
      <point x="83.0" y="125.5"/>
      <point x="148.5" y="7.0"/>
    </contour>
  </outline>
</glyph>
<glyph name="x" format="2">
  <advance width="1142.0"/>
  <unicode hex="0078"/>
  <anchor x="428.585" y="0.0" name="bottom"/>
  <anchor x="713.415" y="1063.0" name="top"/>
  <outline>
    <contour>
      <point x="96.0" y="-18.0" type="curve"/>
      <point x="189.0" y="51.5"/>
      <point x="405.5" y="255.5"/>
      <point x="578.0" y="424.5" type="curve"/>
      <point x="638.5" y="318.0"/>
      <point x="712.5" y="113.0"/>
      <point x="744.5" y="-18.0" type="curve"/>
      <point x="808.5" y="9.5"/>
      <point x="906.5" y="59.0"/>
      <point x="959.5" y="98.0" type="curve"/>
      <point x="906.0" y="251.0"/>
      <point x="821.5" y="461.5"/>
      <point x="754.0" y="585.5" type="curve"/>
      <point x="910.5" y="720.0"/>
      <point x="1116.0" y="941.0"/>
      <point x="1212.5" y="1057.5" type="curve"/>
      <point x="1173.5" y="1087.0"/>
      <point x="1079.0" y="1131.5"/>
      <point x="1024.0" y="1158.0" type="curve"/>
      <point x="918.0" y="1017.5"/>
      <point x="785.0" y="872.0"/>
      <point x="653.5" y="742.5" type="curve"/>
      <point x="615.5" y="840.5"/>
      <point x="450.5" y="1080.0"/>
      <point x="390.5" y="1155.5" type="curve"/>
      <point x="338.5" y="1130.0"/>
      <point x="212.0" y="1047.5"/>
      <point x="187.0" y="1023.0" type="curve"/>
      <point x="256.0" y="939.0"/>
      <point x="386.0" y="779.5"/>
      <point x="494.0" y="593.5" type="curve"/>
      <point x="342.0" y="458.0"/>
      <point x="31.0" y="186.0"/>
      <point x="-34.0" y="135.0" type="curve"/>
      <point x="-12.5" y="93.5"/>
      <point x="62.5" y="14.5"/>
    </contour>
  </outline>
</glyph>
<glyph name="y" format="2">
  <advance width="1079.0"/>
  <unicode hex="0079"/>
  <anchor x="397.585" y="0.0" name="bottom"/>
  <anchor x="682.415" y="1063.0" name="top"/>
  <outline>
    <contour>
      <point x="192.0" y="-527.5" type="curve" smooth="yes"/>
      <point x="517.5" y="-527.5"/>
      <point x="715.0" y="-288.5"/>
      <point x="824.5" y="56.0" type="curve" smooth="yes"/>
      <point x="898.0" y="287.0"/>
      <point x="975.0" y="538.0"/>
      <point x="1026.0" y="727.5" type="curve" smooth="yes"/>
      <point x="1048.0" y="810.0"/>
      <point x="1066.5" y="884.0"/>
      <point x="1080.5" y="946.5" type="curve"/>
      <point x="1039.5" y="956.5"/>
      <point x="996.0" y="961.0"/>
      <point x="949.5" y="961.0" type="curve" smooth="yes"/>
      <point x="924.0" y="961.0"/>
      <point x="898.0" y="959.5"/>
      <point x="873.0" y="957.0" type="curve"/>
      <point x="869.0" y="935.5"/>
      <point x="818.5" y="757.5"/>
      <point x="778.5" y="640.0" type="curve" smooth="yes"/>
      <point x="700.5" y="399.0"/>
      <point x="583.0" y="257.0"/>
      <point x="437.5" y="257.0" type="curve" smooth="yes"/>
      <point x="351.5" y="257.0"/>
      <point x="322.0" y="322.0"/>
      <point x="322.0" y="413.5" type="curve" smooth="yes"/>
      <point x="322.0" y="559.0"/>
      <point x="406.5" y="824.0"/>
      <point x="466.5" y="974.0" type="curve"/>
      <point x="449.0" y="978.5"/>
      <point x="391.5" y="981.5"/>
      <point x="338.0" y="981.5" type="curve" smooth="yes"/>
      <point x="296.0" y="981.5"/>
      <point x="255.0" y="979.5"/>
      <point x="234.5" y="975.5" type="curve"/>
      <point x="158.5" y="739.0"/>
      <point x="89.5" y="507.5"/>
      <point x="89.5" y="330.5" type="curve" smooth="yes"/>
      <point x="89.5" y="153.0"/>
      <point x="159.5" y="39.5"/>
      <point x="349.0" y="39.5" type="curve" smooth="yes"/>
      <point x="510.5" y="39.5"/>
      <point x="621.5" y="120.0"/>
      <point x="669.0" y="200.5" type="curve"/>
      <point x="597.5" y="-56.0"/>
      <point x="454.5" y="-315.0"/>
      <point x="231.0" y="-315.0" type="curve" smooth="yes"/>
      <point x="95.0" y="-315.0"/>
      <point x="-29.5" y="-238.5"/>
      <point x="-77.0" y="-197.0" type="curve"/>
      <point x="-116.5" y="-235.5"/>
      <point x="-206.0" y="-345.5"/>
      <point x="-235.5" y="-392.5" type="curve"/>
      <point x="-163.0" y="-453.5"/>
      <point x="0.0" y="-527.5"/>
    </contour>
  </outline>
</glyph>
<glyph name="z" format="2">
  <advance width="1074.0"/>
  <unicode hex="007A"/>
  <anchor x="365.0" y="0.0" name="bottom"/>
  <anchor x="507.0" y="532.0" name="center"/>
  <anchor x="649.0" y="1063.0" name="top"/>
  <outline>
    <contour>
      <point x="847.5" y="4.5" type="curve"/>
      <point x="861.5" y="32.5"/>
      <point x="910.5" y="193.5"/>
      <point x="917.0" y="219.0" type="curve"/>
      <point x="836.0" y="210.0"/>
      <point x="674.0" y="202.0"/>
      <point x="532.0" y="202.0" type="curve" smooth="yes"/>
      <point x="433.0" y="202.0"/>
      <point x="326.5" y="204.5"/>
      <point x="294.0" y="209.5" type="curve"/>
      <point x="400.5" y="313.5"/>
      <point x="902.0" y="744.5"/>
      <point x="1072.5" y="868.5" type="curve"/>
      <point x="1080.0" y="896.0"/>
      <point x="1111.0" y="1026.0"/>
      <point x="1111.0" y="1040.5" type="curve"/>
      <point x="995.5" y="1043.5"/>
      <point x="848.5" y="1044.5"/>
      <point x="722.0" y="1044.5" type="curve" smooth="yes"/>
      <point x="524.5" y="1044.5"/>
      <point x="311.5" y="1042.0"/>
      <point x="240.5" y="1042.0" type="curve"/>
      <point x="180.5" y="854.0" type="line"/>
      <point x="196.5" y="856.5"/>
      <point x="339.0" y="860.5"/>
      <point x="461.5" y="860.5" type="curve" smooth="yes"/>
      <point x="573.0" y="860.5"/>
      <point x="729.5" y="861.5"/>
      <point x="769.5" y="860.5" type="curve"/>
      <point x="626.0" y="751.5"/>
      <point x="118.5" y="326.0"/>
      <point x="-6.0" y="204.0" type="curve"/>
      <point x="-67.5" y="12.0" type="line"/>
      <point x="52.0" y="-2.0"/>
      <point x="230.5" y="-7.0"/>
      <point x="407.5" y="-7.0" type="curve" smooth="yes"/>
      <point x="571.5" y="-7.0"/>
      <point x="737.0" y="-1.5"/>
    </contour>
  </outline>
</glyph>
<glyph name="braceleft" format="2">
  <advance width="665.0"/>
  <unicode hex="007B"/>
  <outline>
    <contour>
      <point x="276.0" y="-410.5" type="curve"/>
      <point x="322.0" y="-360.0"/>
      <point x="361.0" y="-305.5"/>
      <point x="399.0" y="-249.0" type="curve"/>
      <point x="318.0" y="-231.5"/>
      <point x="281.0" y="-161.5"/>
      <point x="281.0" y="-73.5" type="curve" smooth="yes"/>
      <point x="281.0" y="16.5"/>
      <point x="316.0" y="91.5"/>
      <point x="352.5" y="166.0" type="curve" smooth="yes"/>
      <point x="388.0" y="238.0"/>
      <point x="420.5" y="309.5"/>
      <point x="420.5" y="392.0" type="curve" smooth="yes"/>
      <point x="420.5" y="530.0"/>
      <point x="301.5" y="584.0"/>
      <point x="176.5" y="594.5" type="curve"/>
      <point x="170.0" y="576.5" type="line"/>
      <point x="321.0" y="584.5"/>
      <point x="469.5" y="695.0"/>
      <point x="513.5" y="872.5" type="curve" smooth="yes"/>
      <point x="527.5" y="927.0"/>
      <point x="529.5" y="965.5"/>
      <point x="529.5" y="1003.0" type="curve" smooth="yes"/>
      <point x="529.5" y="1040.5"/>
      <point x="532.0" y="1077.5"/>
      <point x="545.5" y="1129.0" type="curve" smooth="yes"/>
      <point x="579.5" y="1257.0"/>
      <point x="686.5" y="1381.5"/>
      <point x="837.5" y="1404.0" type="curve"/>
      <point x="838.0" y="1450.5"/>
      <point x="834.5" y="1540.5"/>
      <point x="811.5" y="1570.0" type="curve"/>
      <point x="558.5" y="1551.5"/>
      <point x="388.5" y="1379.5"/>
      <point x="337.5" y="1178.0" type="curve" smooth="yes"/>
      <point x="325.5" y="1130.0"/>
      <point x="321.5" y="1094.0"/>
      <point x="320.5" y="1054.5" type="curve" smooth="yes"/>
      <point x="319.5" y="1017.5"/>
      <point x="317.5" y="977.5"/>
      <point x="310.5" y="922.5" type="curve" smooth="yes"/>
      <point x="293.5" y="785.5"/>
      <point x="224.0" y="691.5"/>
      <point x="86.5" y="670.5" type="curve"/>
      <point x="76.5" y="650.5"/>
      <point x="65.0" y="615.0"/>
      <point x="57.0" y="584.0" type="curve" smooth="yes"/>
      <point x="48.5" y="551.0"/>
      <point x="41.0" y="512.5"/>
      <point x="41.0" y="491.5" type="curve"/>
      <point x="144.0" y="468.5"/>
      <point x="204.5" y="418.5"/>
      <point x="204.5" y="339.0" type="curve" smooth="yes"/>
      <point x="204.5" y="253.0"/>
      <point x="172.0" y="188.0"/>
      <point x="138.5" y="121.0" type="curve" smooth="yes"/>
      <point x="103.0" y="50.0"/>
      <point x="66.0" y="-25.0"/>
      <point x="66.0" y="-132.5" type="curve" smooth="yes"/>
      <point x="66.0" y="-279.0"/>
      <point x="135.0" y="-392.0"/>
    </contour>
  </outline>
</glyph>
<glyph name="bar" format="2">
  <advance width="487.0"/>
  <unicode hex="007C"/>
  <outline>
    <contour>
      <point x="54.0" y="-557.0" type="curve"/>
      <point x="107.5" y="-432.5"/>
      <point x="185.5" y="-168.5"/>
      <point x="268.0" y="138.0" type="curve" smooth="yes"/>
      <point x="391.0" y="595.0"/>
      <point x="535.5" y="1186.0"/>
      <point x="611.5" y="1535.0" type="curve"/>
      <point x="551.0" y="1535.0"/>
      <point x="442.0" y="1530.0"/>
      <point x="406.5" y="1527.0" type="curve"/>
      <point x="279.0" y="1095.5"/>
      <point x="170.5" y="706.5"/>
      <point x="81.5" y="376.0" type="curve" smooth="yes"/>
      <point x="-25.0" y="-19.5"/>
      <point x="-102.0" y="-334.0"/>
      <point x="-150.0" y="-542.5" type="curve"/>
      <point x="-91.5" y="-554.5"/>
      <point x="-2.5" y="-557.0"/>
    </contour>
  </outline>
</glyph>
<glyph name="braceright" format="2">
  <advance width="614.0"/>
  <unicode hex="007D"/>
  <outline>
    <contour>
      <point x="-92.0" y="-417.0" type="curve"/>
      <point x="135.5" y="-390.5"/>
      <point x="324.0" y="-205.5"/>
      <point x="348.5" y="6.0" type="curve" smooth="yes"/>
      <point x="357.0" y="45.5"/>
      <point x="358.5" y="83.0"/>
      <point x="357.5" y="120.5" type="curve" smooth="yes"/>
      <point x="356.5" y="158.0"/>
      <point x="358.5" y="194.5"/>
      <point x="366.0" y="231.5" type="curve" smooth="yes"/>
      <point x="384.5" y="377.0"/>
      <point x="455.0" y="486.5"/>
      <point x="589.0" y="506.5" type="curve"/>
      <point x="604.5" y="525.5"/>
      <point x="619.0" y="563.0"/>
      <point x="627.5" y="594.5" type="curve" smooth="yes"/>
      <point x="635.5" y="623.0"/>
      <point x="637.0" y="657.5"/>
      <point x="637.0" y="689.5" type="curve"/>
      <point x="548.5" y="699.5"/>
      <point x="474.0" y="733.5"/>
      <point x="474.0" y="819.5" type="curve" smooth="yes"/>
      <point x="474.0" y="894.5"/>
      <point x="507.5" y="961.5"/>
      <point x="544.5" y="1033.5" type="curve" smooth="yes"/>
      <point x="586.5" y="1115.5"/>
      <point x="631.0" y="1203.0"/>
      <point x="631.0" y="1313.5" type="curve" smooth="yes"/>
      <point x="631.0" y="1450.5"/>
      <point x="564.5" y="1569.5"/>
      <point x="429.5" y="1592.5" type="curve"/>
      <point x="386.5" y="1552.0"/>
      <point x="323.5" y="1483.0"/>
      <point x="286.0" y="1433.5" type="curve"/>
      <point x="380.5" y="1414.5"/>
      <point x="413.5" y="1346.0"/>
      <point x="413.5" y="1259.5" type="curve" smooth="yes"/>
      <point x="413.5" y="1162.5"/>
      <point x="375.5" y="1086.5"/>
      <point x="338.0" y="1013.0" type="curve" smooth="yes"/>
      <point x="302.0" y="942.0"/>
      <point x="267.5" y="873.5"/>
      <point x="267.5" y="791.0" type="curve" smooth="yes"/>
      <point x="267.5" y="647.5"/>
      <point x="399.5" y="583.5"/>
      <point x="510.0" y="577.5" type="curve"/>
      <point x="520.0" y="604.0" type="line"/>
      <point x="359.5" y="601.5"/>
      <point x="192.5" y="451.5"/>
      <point x="169.0" y="259.0" type="curve" smooth="yes"/>
      <point x="161.0" y="214.0"/>
      <point x="161.0" y="179.0"/>
      <point x="162.5" y="144.0" type="curve" smooth="yes"/>
      <point x="164.0" y="109.5"/>
      <point x="164.0" y="75.5"/>
      <point x="156.5" y="33.5" type="curve" smooth="yes"/>
      <point x="135.0" y="-115.0"/>
      <point x="46.0" y="-212.5"/>
      <point x="-121.5" y="-253.5" type="curve"/>
      <point x="-121.5" y="-324.0"/>
      <point x="-107.0" y="-389.5"/>
    </contour>
  </outline>
</glyph>
<glyph name="asciitilde" format="2">
  <advance width="1115.0"/>
  <unicode hex="007E"/>
  <outline>
    <contour>
      <point x="221.5" y="741.0" type="curve"/>
      <point x="343.5" y="644.5" type="line"/>
      <point x="366.0" y="698.5"/>
      <point x="416.0" y="775.0"/>
      <point x="495.5" y="775.0" type="curve" smooth="yes"/>
      <point x="537.5" y="775.0"/>
      <point x="576.0" y="741.0"/>
      <point x="617.0" y="702.5" type="curve" smooth="yes"/>
      <point x="667.0" y="655.0"/>
      <point x="724.5" y="602.5"/>
      <point x="802.5" y="602.5" type="curve" smooth="yes"/>
      <point x="945.0" y="602.5"/>
      <point x="1025.5" y="741.0"/>
      <point x="1040.0" y="800.5" type="curve"/>
      <point x="911.0" y="874.0" type="line"/>
      <point x="892.0" y="813.5"/>
      <point x="852.5" y="758.5"/>
      <point x="792.5" y="758.5" type="curve" smooth="yes"/>
      <point x="738.0" y="758.5"/>
      <point x="698.5" y="795.5"/>
      <point x="658.5" y="835.5" type="curve" smooth="yes"/>
      <point x="613.0" y="880.5"/>
      <point x="562.0" y="926.0"/>
      <point x="484.0" y="926.0" type="curve" smooth="yes"/>
      <point x="357.0" y="926.0"/>
      <point x="252.0" y="827.0"/>
    </contour>
  </outline>
</glyph>
<glyph name="exclamdown" format="2">
  <advance width="708.0"/>
  <unicode hex="00A1"/>
  <outline>
    <contour>
      <point x="320.5" y="661.0" type="curve"/>
      <point x="244.0" y="398.0"/>
      <point x="39.0" y="-233.5"/>
      <point x="-24.5" y="-394.5" type="curve"/>
      <point x="244.0" y="-406.5" type="line"/>
      <point x="322.5" y="-157.0"/>
      <point x="449.0" y="333.0"/>
      <point x="520.5" y="650.5" type="curve"/>
      <point x="476.5" y="656.5"/>
      <point x="364.0" y="661.0"/>
    </contour>
    <contour>
      <point x="507.5" y="1093.0" type="curve" smooth="yes"/>
      <point x="399.5" y="1093.0"/>
      <point x="298.0" y="1011.0"/>
      <point x="298.0" y="904.0" type="curve" smooth="yes"/>
      <point x="298.0" y="825.0"/>
      <point x="359.0" y="766.0"/>
      <point x="447.0" y="766.0" type="curve" smooth="yes"/>
      <point x="561.0" y="766.0"/>
      <point x="661.5" y="845.5"/>
      <point x="661.5" y="959.5" type="curve" smooth="yes"/>
      <point x="661.5" y="1035.0"/>
      <point x="604.0" y="1093.0"/>
    </contour>
  </outline>
</glyph>
<glyph name="cent" format="2">
  <advance width="1026.0"/>
  <unicode hex="00A2"/>
  <anchor x="392.5" y="115.5" name="bottom"/>
  <anchor x="641.7075" y="1178.5" name="top"/>
  <outline>
    <contour>
      <point x="768.0" y="1316.0" type="curve"/>
      <point x="647.0" y="990.5"/>
      <point x="363.5" y="367.5"/>
      <point x="175.0" y="18.5" type="curve"/>
      <point x="206.5" y="0.5"/>
      <point x="259.0" y="-12.5"/>
      <point x="308.5" y="-16.0" type="curve"/>
      <point x="438.5" y="211.5"/>
      <point x="747.5" y="898.0"/>
      <point x="886.0" y="1299.5" type="curve"/>
      <point x="871.0" y="1308.0"/>
      <point x="808.0" y="1316.0"/>
    </contour>
    <component base="c" xOffset="-8.5" yOffset="115.5"/>
  </outline>
</glyph>
<glyph name="sterling" format="2">
  <advance width="1140.0"/>
  <unicode hex="00A3"/>
  <outline>
    <contour>
      <point x="210.0" y="552.5" type="curve" smooth="yes"/>
      <point x="390.0" y="552.5"/>
      <point x="722.5" y="570.5"/>
      <point x="817.0" y="596.5" type="curve"/>
      <point x="827.0" y="633.0"/>
      <point x="850.5" y="736.0"/>
      <point x="853.5" y="765.0" type="curve"/>
      <point x="759.0" y="746.0"/>
      <point x="439.5" y="729.0"/>
      <point x="256.0" y="729.0" type="curve" smooth="yes"/>
      <point x="206.5" y="729.0"/>
      <point x="165.5" y="730.0"/>
      <point x="136.0" y="732.5" type="curve"/>
      <point x="84.5" y="558.5" type="line"/>
      <point x="107.0" y="554.5"/>
      <point x="152.0" y="552.5"/>
    </contour>
    <component base="sterlira"/>
  </outline>
</glyph>
<glyph name="currency" format="2">
  <advance width="974.0"/>
  <unicode hex="00A4"/>
  <outline>
    <contour>
      <point x="38.5" y="69.0" type="curve"/>
      <point x="117.0" y="133.5"/>
      <point x="287.5" y="291.0"/>
      <point x="340.5" y="337.5" type="curve"/>
      <point x="226.5" y="430.5" type="line"/>
      <point x="136.5" y="362.5"/>
      <point x="14.5" y="266.5"/>
      <point x="-68.0" y="197.5" type="curve"/>
      <point x="-51.5" y="173.5"/>
      <point x="22.5" y="91.0"/>
    </contour>
    <contour>
      <point x="684.5" y="90.5" type="curve"/>
      <point x="723.0" y="116.5"/>
      <point x="812.5" y="193.0"/>
      <point x="839.5" y="221.0" type="curve"/>
      <point x="800.0" y="266.5"/>
      <point x="738.5" y="352.0"/>
      <point x="689.0" y="409.5" type="curve"/>
      <point x="540.0" y="309.0" type="line"/>
      <point x="571.5" y="276.5"/>
      <point x="635.5" y="159.5"/>
    </contour>
    <contour>
      <point x="284.0" y="670.0" type="curve"/>
      <point x="426.0" y="789.0" type="line"/>
      <point x="390.5" y="863.0"/>
      <point x="328.0" y="961.5"/>
      <point x="282.0" y="1013.5" type="curve"/>
      <point x="245.5" y="991.5"/>
      <point x="141.0" y="912.5"/>
      <point x="118.0" y="890.0" type="curve"/>
      <point x="164.5" y="822.5"/>
      <point x="227.0" y="735.0"/>
    </contour>
    <contour>
      <point x="753.5" y="674.5" type="line"/>
      <point x="838.5" y="733.5"/>
      <point x="931.5" y="809.5"/>
      <point x="1024.0" y="882.0" type="curve"/>
      <point x="1012.5" y="904.5"/>
      <point x="950.5" y="992.5"/>
      <point x="934.0" y="1011.5" type="curve"/>
      <point x="841.5" y="936.0"/>
      <point x="738.0" y="850.5"/>
      <point x="665.0" y="789.5" type="curve"/>
    </contour>
    <component base="degree" xOffset="-126.0" yOffset="-656.0"/>
  </outline>
</glyph>
<glyph name="yen" format="2">
  <advance width="1065.0"/>
  <unicode hex="00A5"/>
  <anchor x="404.0" y="0.0" name="bottom"/>
  <anchor x="750.0" y="1291.0" name="top"/>
  <anchor x="237.0" y="1291.0" name="topleft"/>
  <outline>
    <contour>
      <point x="123.5" y="492.0" type="curve"/>
      <point x="229.0" y="494.5"/>
      <point x="844.5" y="503.5"/>
      <point x="938.5" y="503.5" type="curve"/>
      <point x="949.5" y="545.0"/>
      <point x="957.5" y="603.5"/>
      <point x="962.5" y="655.5" type="curve"/>
      <point x="883.5" y="665.5"/>
      <point x="762.0" y="670.0"/>
      <point x="626.5" y="670.0" type="curve" smooth="yes"/>
      <point x="459.5" y="670.0"/>
      <point x="331.5" y="665.0"/>
      <point x="187.0" y="654.5" type="curve"/>
      <point x="174.0" y="628.0"/>
      <point x="139.0" y="548.0"/>
    </contour>
    <contour>
      <point x="871.0" y="239.0" type="curve"/>
      <point x="886.0" y="289.0"/>
      <point x="896.0" y="356.0"/>
      <point x="900.0" y="388.0" type="curve"/>
      <point x="816.5" y="393.5"/>
      <point x="698.0" y="397.0"/>
      <point x="575.5" y="397.0" type="curve" smooth="yes"/>
      <point x="385.5" y="397.0"/>
      <point x="234.5" y="392.5"/>
      <point x="99.5" y="383.5" type="curve"/>
      <point x="77.5" y="337.5"/>
      <point x="57.5" y="291.5"/>
      <point x="44.5" y="243.0" type="curve"/>
      <point x="139.0" y="244.0"/>
      <point x="764.0" y="240.5"/>
    </contour>
    <component base="Y" xOffset="-7.0"/>
  </outline>
</glyph>
<glyph name="brokenbar" format="2">
  <advance width="432.0"/>
  <unicode hex="00A6"/>
  <outline>
    <contour>
      <point x="35.5" y="274.5" type="curve"/>
      <point x="-7.0" y="117.0"/>
      <point x="-107.5" y="-332.5"/>
      <point x="-130.5" y="-457.5" type="curve"/>
      <point x="-81.0" y="-457.5"/>
      <point x="26.0" y="-452.0"/>
      <point x="60.5" y="-440.5" type="curve"/>
      <point x="85.0" y="-326.5"/>
      <point x="217.0" y="182.0"/>
      <point x="243.0" y="281.0" type="curve"/>
      <point x="183.5" y="281.0"/>
      <point x="97.5" y="279.5"/>
    </contour>
    <contour>
      <point x="167.5" y="739.5" type="curve"/>
      <point x="187.5" y="737.5"/>
      <point x="289.0" y="733.0"/>
      <point x="373.5" y="734.5" type="curve"/>
      <point x="407.0" y="866.0"/>
      <point x="535.0" y="1330.0"/>
      <point x="580.5" y="1482.0" type="curve"/>
      <point x="550.0" y="1498.5"/>
      <point x="456.0" y="1502.0"/>
      <point x="402.0" y="1502.0" type="curve"/>
      <point x="356.5" y="1371.0"/>
      <point x="237.5" y="1001.0"/>
    </contour>
  </outline>
</glyph>
<glyph name="section" format="2">
  <advance width="1000.0"/>
  <unicode hex="00A7"/>
  <outline>
    <contour>
      <point x="576.5" y="714.5" type="curve"/>
      <point x="432.5" y="822.0" type="line"/>
      <point x="259.5" y="776.0"/>
      <point x="114.5" y="680.5"/>
      <point x="114.5" y="504.0" type="curve" smooth="yes"/>
      <point x="114.5" y="362.0"/>
      <point x="231.0" y="284.5"/>
      <point x="376.5" y="227.0" type="curve" smooth="yes"/>
      <point x="516.5" y="171.0"/>
      <point x="593.0" y="118.5"/>
      <point x="593.0" y="34.5" type="curve" smooth="yes"/>
      <point x="593.0" y="-86.0"/>
      <point x="467.5" y="-154.0"/>
      <point x="335.0" y="-154.0" type="curve" smooth="yes"/>
      <point x="206.0" y="-154.0"/>
      <point x="67.0" y="-77.0"/>
      <point x="-6.0" y="11.0" type="curve"/>
      <point x="-51.0" y="-21.0"/>
      <point x="-141.5" y="-125.5"/>
      <point x="-172.5" y="-169.0" type="curve"/>
      <point x="-107.5" y="-260.5"/>
      <point x="91.5" y="-352.0"/>
      <point x="302.0" y="-352.0" type="curve" smooth="yes"/>
      <point x="565.5" y="-352.0"/>
      <point x="807.0" y="-197.0"/>
      <point x="807.0" y="56.0" type="curve" smooth="yes"/>
      <point x="807.0" y="209.0"/>
      <point x="702.0" y="315.5"/>
      <point x="533.5" y="375.5" type="curve" smooth="yes"/>
      <point x="419.5" y="418.5"/>
      <point x="337.5" y="473.5"/>
      <point x="337.5" y="545.0" type="curve" smooth="yes"/>
      <point x="337.5" y="646.0"/>
      <point x="476.0" y="705.5"/>
    </contour>
    <contour>
      <point x="551.5" y="341.5" type="curve"/>
      <point x="638.0" y="200.5" type="line"/>
      <point x="814.0" y="266.5"/>
      <point x="965.0" y="385.5"/>
      <point x="965.0" y="569.5" type="curve" smooth="yes"/>
      <point x="965.0" y="722.5"/>
      <point x="841.0" y="818.0"/>
      <point x="674.5" y="881.0" type="curve" smooth="yes"/>
      <point x="562.5" y="925.5"/>
      <point x="485.5" y="972.0"/>
      <point x="485.5" y="1039.0" type="curve" smooth="yes"/>
      <point x="485.5" y="1137.5"/>
      <point x="603.0" y="1175.5"/>
      <point x="714.0" y="1175.5" type="curve" smooth="yes"/>
      <point x="813.0" y="1175.5"/>
      <point x="912.5" y="1131.0"/>
      <point x="963.0" y="1087.5" type="curve"/>
      <point x="1024.0" y="1142.0"/>
      <point x="1088.5" y="1232.0"/>
      <point x="1102.0" y="1252.0" type="curve"/>
      <point x="1031.5" y="1309.5"/>
      <point x="884.5" y="1359.5"/>
      <point x="732.0" y="1359.5" type="curve" smooth="yes"/>
      <point x="483.5" y="1359.5"/>
      <point x="274.5" y="1239.0"/>
      <point x="274.5" y="994.0" type="curve" smooth="yes"/>
      <point x="274.5" y="856.0"/>
      <point x="363.0" y="789.0"/>
      <point x="506.5" y="732.5" type="curve" smooth="yes"/>
      <point x="644.0" y="678.5"/>
      <point x="750.5" y="626.0"/>
      <point x="750.5" y="547.5" type="curve" smooth="yes"/>
      <point x="750.5" y="455.5"/>
      <point x="649.0" y="368.0"/>
    </contour>
  </outline>
</glyph>
<glyph name="copyright" format="2">
  <advance width="1745.0"/>
  <unicode hex="00A9"/>
  <outline>
    <contour>
      <point x="746.5" y="-68.0" type="curve" smooth="yes"/>
      <point x="1289.5" y="-68.0"/>
      <point x="1696.0" y="272.0"/>
      <point x="1696.0" y="806.5" type="curve" smooth="yes"/>
      <point x="1696.0" y="1149.0"/>
      <point x="1470.0" y="1350.0"/>
      <point x="1079.5" y="1350.0" type="curve" smooth="yes"/>
      <point x="509.0" y="1350.0"/>
      <point x="80.5" y="1002.5"/>
      <point x="80.5" y="452.5" type="curve" smooth="yes"/>
      <point x="80.5" y="133.5"/>
      <point x="329.0" y="-68.0"/>
    </contour>
    <contour>
      <point x="766.5" y="113.5" type="curve" smooth="yes"/>
      <point x="501.5" y="113.5"/>
      <point x="327.5" y="251.5"/>
      <point x="327.5" y="502.0" type="curve" smooth="yes"/>
      <point x="327.5" y="893.0"/>
      <point x="643.0" y="1175.0"/>
      <point x="1039.0" y="1175.0" type="curve" smooth="yes"/>
      <point x="1326.0" y="1175.0"/>
      <point x="1471.0" y="1032.5"/>
      <point x="1471.0" y="792.0" type="curve" smooth="yes"/>
      <point x="1471.0" y="375.0"/>
      <point x="1181.0" y="113.5"/>
    </contour>
    <contour>
      <point x="819.0" y="285.0" type="curve" smooth="yes"/>
      <point x="972.0" y="285.0"/>
      <point x="1127.0" y="359.0"/>
      <point x="1230.0" y="496.0" type="curve"/>
      <point x="1199.5" y="530.5"/>
      <point x="1152.5" y="571.5"/>
      <point x="1113.5" y="594.0" type="curve"/>
      <point x="1048.5" y="524.0"/>
      <point x="962.0" y="462.5"/>
      <point x="865.0" y="462.5" type="curve" smooth="yes"/>
      <point x="795.5" y="462.5"/>
      <point x="716.5" y="483.5"/>
      <point x="716.5" y="582.0" type="curve" smooth="yes"/>
      <point x="716.5" y="716.5"/>
      <point x="838.0" y="827.0"/>
      <point x="975.5" y="827.0" type="curve" smooth="yes"/>
      <point x="1055.5" y="827.0"/>
      <point x="1117.0" y="798.5"/>
      <point x="1130.0" y="769.0" type="curve"/>
      <point x="1166.5" y="796.5"/>
      <point x="1224.0" y="848.5"/>
      <point x="1275.5" y="902.0" type="curve"/>
      <point x="1239.5" y="961.0"/>
      <point x="1142.0" y="990.0"/>
      <point x="1029.5" y="990.0" type="curve" smooth="yes"/>
      <point x="764.5" y="990.0"/>
      <point x="536.5" y="798.5"/>
      <point x="536.5" y="536.0" type="curve" smooth="yes"/>
      <point x="536.5" y="379.0"/>
      <point x="635.0" y="285.0"/>
    </contour>
  </outline>
</glyph>
<glyph name="ordfeminine" format="2">
  <advance width="750.0"/>
  <unicode hex="00AA"/>
  <outline>
    <contour>
      <point x="585.5" y="719.0" type="curve"/>
      <point x="608.0" y="715.0"/>
      <point x="657.5" y="713.0"/>
      <point x="692.5" y="713.0" type="curve" smooth="yes"/>
      <point x="706.0" y="713.0"/>
      <point x="735.5" y="713.5"/>
      <point x="740.5" y="714.5" type="curve"/>
      <point x="800.0" y="857.5"/>
      <point x="867.5" y="1052.0"/>
      <point x="867.5" y="1184.5" type="curve" smooth="yes"/>
      <point x="867.5" y="1336.5"/>
      <point x="788.0" y="1424.5"/>
      <point x="593.0" y="1424.5" type="curve" smooth="yes"/>
      <point x="452.0" y="1424.5"/>
      <point x="336.0" y="1376.5"/>
      <point x="252.0" y="1311.0" type="curve"/>
      <point x="332.0" y="1200.5" type="line"/>
      <point x="379.5" y="1241.5"/>
      <point x="467.0" y="1277.5"/>
      <point x="557.5" y="1277.5" type="curve" smooth="yes"/>
      <point x="652.0" y="1277.5"/>
      <point x="714.5" y="1240.0"/>
      <point x="714.5" y="1156.5" type="curve" smooth="yes"/>
      <point x="714.5" y="1146.5"/>
      <point x="713.5" y="1136.0"/>
      <point x="711.5" y="1125.0" type="curve"/>
      <point x="697.5" y="1137.5"/>
      <point x="586.0" y="1153.5"/>
      <point x="530.0" y="1153.5" type="curve" smooth="yes"/>
      <point x="353.0" y="1153.5"/>
      <point x="152.0" y="1078.0"/>
      <point x="152.0" y="903.0" type="curve" smooth="yes"/>
      <point x="152.0" y="777.5"/>
      <point x="242.0" y="722.5"/>
      <point x="393.0" y="722.5" type="curve" smooth="yes"/>
      <point x="476.0" y="722.5"/>
      <point x="572.5" y="759.5"/>
      <point x="618.0" y="795.5" type="curve"/>
      <point x="609.5" y="774.5"/>
      <point x="590.5" y="730.0"/>
    </contour>
    <contour>
      <point x="459.5" y="855.5" type="curve" smooth="yes"/>
      <point x="380.5" y="855.5"/>
      <point x="333.0" y="871.0"/>
      <point x="333.0" y="920.0" type="curve" smooth="yes"/>
      <point x="333.0" y="1003.0"/>
      <point x="436.0" y="1039.5"/>
      <point x="525.5" y="1039.5" type="curve" smooth="yes"/>
      <point x="587.0" y="1039.5"/>
      <point x="666.0" y="1027.5"/>
      <point x="684.0" y="1021.0" type="curve"/>
      <point x="682.0" y="1008.0"/>
      <point x="678.5" y="990.0"/>
      <point x="675.0" y="977.5" type="curve" smooth="yes"/>
      <point x="671.0" y="962.5"/>
      <point x="665.5" y="945.0"/>
      <point x="657.5" y="922.0" type="curve"/>
      <point x="608.5" y="884.5"/>
      <point x="532.0" y="855.5"/>
    </contour>
  </outline>
</glyph>
<glyph name="guillemetleft" format="2">
  <advance width="1214.0"/>
  <unicode hex="00AB"/>
  <outline>
    <contour>
      <point x="1258.0" y="1135.0" type="curve"/>
      <point x="1044.5" y="984.0"/>
      <point x="803.5" y="788.0"/>
      <point x="559.0" y="571.0" type="curve"/>
      <point x="993.5" y="150.5" type="line"/>
      <point x="1003.0" y="156.0"/>
      <point x="1088.0" y="310.0"/>
      <point x="1096.5" y="360.0" type="curve"/>
      <point x="1057.0" y="402.0"/>
      <point x="903.5" y="519.5"/>
      <point x="799.5" y="596.5" type="curve"/>
      <point x="1320.5" y="991.5" type="line"/>
      <point x="1316.0" y="1012.0"/>
      <point x="1302.5" y="1096.5"/>
    </contour>
    <contour>
      <point x="764.0" y="1120.5" type="curve"/>
      <point x="526.0" y="924.5"/>
      <point x="297.5" y="719.5"/>
      <point x="90.5" y="525.5" type="curve"/>
      <point x="222.5" y="332.5"/>
      <point x="388.0" y="155.0"/>
      <point x="564.0" y="0.0" type="curve"/>
      <point x="567.5" y="3.5"/>
      <point x="651.0" y="122.0"/>
      <point x="679.5" y="173.5" type="curve"/>
      <point x="655.5" y="188.5"/>
      <point x="462.5" y="392.5"/>
      <point x="323.0" y="542.0" type="curve"/>
      <point x="856.5" y="1005.0" type="line"/>
      <point x="844.0" y="1025.0"/>
      <point x="803.0" y="1084.0"/>
    </contour>
  </outline>
</glyph>
<glyph name="logicalnot" format="2">
  <advance width="1000.0"/>
  <unicode hex="00AC"/>
  <outline>
    <contour>
      <point x="985.5" y="820.5" type="curve"/>
      <point x="850.0" y="820.5"/>
      <point x="271.5" y="802.0"/>
      <point x="129.5" y="792.0" type="curve"/>
      <point x="115.0" y="740.5"/>
      <point x="92.5" y="652.5"/>
      <point x="81.5" y="604.0" type="curve"/>
      <point x="188.0" y="606.0"/>
      <point x="611.5" y="621.5"/>
      <point x="746.5" y="630.0" type="curve"/>
      <point x="727.0" y="568.0"/>
      <point x="660.5" y="362.5"/>
      <point x="637.0" y="282.0" type="curve"/>
      <point x="668.5" y="280.0"/>
      <point x="781.5" y="280.5"/>
      <point x="817.5" y="283.0" type="curve"/>
      <point x="866.0" y="434.0"/>
      <point x="969.0" y="767.0"/>
    </contour>
  </outline>
</glyph>
<glyph name="softhyphen" format="2">
  <advance width="739.5"/>
  <unicode hex="00AD"/>
  <outline>
    <contour>
      <point x="754.0" y="787.0" type="curve"/>
      <point x="692.5" y="795.0"/>
      <point x="601.0" y="797.5"/>
      <point x="487.0" y="797.5" type="curve" smooth="yes"/>
      <point x="356.5" y="797.5"/>
      <point x="221.5" y="785.5"/>
      <point x="116.5" y="772.0" type="curve"/>
      <point x="102.5" y="737.0"/>
      <point x="64.0" y="619.5"/>
      <point x="51.0" y="564.5" type="curve"/>
      <point x="198.5" y="576.0"/>
      <point x="577.0" y="588.5"/>
      <point x="709.5" y="588.5" type="curve"/>
      <point x="724.0" y="642.0"/>
      <point x="746.5" y="725.5"/>
    </contour>
  </outline>
</glyph>
<glyph name="registered" format="2">
  <advance width="1400.0"/>
  <unicode hex="00AE"/>
  <outline>
    <contour>
      <point x="674.0" y="267.0" type="curve" smooth="yes"/>
      <point x="1096.5" y="267.0"/>
      <point x="1388.5" y="506.5"/>
      <point x="1388.5" y="914.0" type="curve" smooth="yes"/>
      <point x="1388.5" y="1175.5"/>
      <point x="1198.0" y="1321.0"/>
      <point x="900.0" y="1321.0" type="curve" smooth="yes"/>
      <point x="490.0" y="1321.0"/>
      <point x="151.0" y="1064.5"/>
      <point x="151.0" y="666.0" type="curve" smooth="yes"/>
      <point x="151.0" y="400.0"/>
      <point x="376.5" y="267.0"/>
    </contour>
    <contour>
      <point x="683.0" y="410.0" type="curve" smooth="yes"/>
      <point x="502.0" y="410.0"/>
      <point x="340.5" y="477.0"/>
      <point x="340.5" y="682.5" type="curve" smooth="yes"/>
      <point x="340.5" y="973.5"/>
      <point x="581.5" y="1181.5"/>
      <point x="878.0" y="1181.5" type="curve" smooth="yes"/>
      <point x="1086.5" y="1181.5"/>
      <point x="1198.0" y="1073.5"/>
      <point x="1198.0" y="906.0" type="curve" smooth="yes"/>
      <point x="1198.0" y="603.5"/>
      <point x="993.5" y="410.0"/>
    </contour>
    <contour>
      <point x="667.0" y="529.5" type="curve"/>
      <point x="679.5" y="572.0"/>
      <point x="721.0" y="723.5"/>
      <point x="727.0" y="755.0" type="curve"/>
      <point x="732.5" y="755.0"/>
      <point x="744.5" y="755.5"/>
      <point x="753.5" y="755.5" type="curve"/>
      <point x="768.5" y="680.5"/>
      <point x="779.5" y="597.0"/>
      <point x="795.0" y="529.5" type="curve"/>
      <point x="851.0" y="529.5"/>
      <point x="906.0" y="538.0"/>
      <point x="939.5" y="553.0" type="curve"/>
      <point x="929.5" y="593.5"/>
      <point x="894.0" y="739.5"/>
      <point x="872.0" y="792.5" type="curve"/>
      <point x="953.5" y="814.0"/>
      <point x="1030.0" y="878.5"/>
      <point x="1030.0" y="957.5" type="curve" smooth="yes"/>
      <point x="1030.0" y="1039.0"/>
      <point x="935.5" y="1065.0"/>
      <point x="840.0" y="1065.0" type="curve" smooth="yes"/>
      <point x="769.5" y="1065.0"/>
      <point x="705.5" y="1052.5"/>
      <point x="661.0" y="1030.5" type="curve"/>
      <point x="632.0" y="937.0"/>
      <point x="558.0" y="669.0"/>
      <point x="526.5" y="551.5" type="curve"/>
      <point x="560.5" y="539.0"/>
      <point x="616.0" y="529.5"/>
    </contour>
    <contour>
      <point x="746.5" y="854.5" type="curve"/>
      <point x="751.0" y="871.0"/>
      <point x="766.5" y="947.5"/>
      <point x="768.5" y="961.0" type="curve"/>
      <point x="784.5" y="963.5"/>
      <point x="807.5" y="965.5"/>
      <point x="829.0" y="965.5" type="curve" smooth="yes"/>
      <point x="861.5" y="965.5"/>
      <point x="890.5" y="960.0"/>
      <point x="890.5" y="936.5" type="curve" smooth="yes"/>
      <point x="890.5" y="878.5"/>
      <point x="818.5" y="854.5"/>
    </contour>
  </outline>
</glyph>
<glyph name="degree" format="2">
  <advance width="814.0"/>
  <unicode hex="00B0"/>
  <outline>
    <contour>
      <point x="514.0" y="887.5" type="curve" smooth="yes"/>
      <point x="733.0" y="887.5"/>
      <point x="941.0" y="1067.5"/>
      <point x="941.0" y="1278.5" type="curve" smooth="yes"/>
      <point x="941.0" y="1419.0"/>
      <point x="823.0" y="1512.5"/>
      <point x="652.0" y="1512.5" type="curve" smooth="yes"/>
      <point x="436.0" y="1512.5"/>
      <point x="235.5" y="1354.0"/>
      <point x="235.5" y="1141.5" type="curve" smooth="yes"/>
      <point x="235.5" y="995.0"/>
      <point x="349.0" y="887.5"/>
    </contour>
    <contour>
      <point x="543.5" y="1056.5" type="curve" smooth="yes"/>
      <point x="469.0" y="1056.5"/>
      <point x="429.0" y="1097.5"/>
      <point x="429.0" y="1164.0" type="curve" smooth="yes"/>
      <point x="429.0" y="1265.0"/>
      <point x="519.5" y="1343.5"/>
      <point x="616.5" y="1343.5" type="curve" smooth="yes"/>
      <point x="706.5" y="1343.5"/>
      <point x="743.0" y="1301.0"/>
      <point x="743.0" y="1241.0" type="curve" smooth="yes"/>
      <point x="743.0" y="1139.5"/>
      <point x="644.5" y="1056.5"/>
    </contour>
  </outline>
</glyph>
<glyph name="twosuperior" format="2">
  <advance width="735.5"/>
  <unicode hex="00B2"/>
  <outline>
    <contour>
      <point x="703.0" y="687.0" type="curve"/>
      <point x="611.5" y="682.0"/>
      <point x="436.5" y="669.0"/>
      <point x="375.5" y="661.5" type="curve"/>
      <point x="442.0" y="708.0"/>
      <point x="527.5" y="774.5"/>
      <point x="607.0" y="848.5" type="curve" smooth="yes"/>
      <point x="722.0" y="955.0"/>
      <point x="810.5" y="1073.5"/>
      <point x="810.5" y="1171.0" type="curve" smooth="yes"/>
      <point x="810.5" y="1263.5"/>
      <point x="728.0" y="1320.5"/>
      <point x="608.0" y="1320.5" type="curve" smooth="yes"/>
      <point x="460.0" y="1320.5"/>
      <point x="315.0" y="1236.0"/>
      <point x="216.5" y="1117.5" type="curve"/>
      <point x="237.5" y="1091.0"/>
      <point x="291.5" y="1039.5"/>
      <point x="326.0" y="1020.0" type="curve"/>
      <point x="375.0" y="1080.0"/>
      <point x="461.5" y="1140.0"/>
      <point x="548.0" y="1140.0" type="curve" smooth="yes"/>
      <point x="592.0" y="1140.0"/>
      <point x="623.0" y="1124.5"/>
      <point x="623.0" y="1090.5" type="curve" smooth="yes"/>
      <point x="623.0" y="1029.0"/>
      <point x="506.5" y="936.0"/>
      <point x="384.5" y="842.0" type="curve" smooth="yes"/>
      <point x="275.0" y="764.0"/>
      <point x="180.5" y="697.0"/>
      <point x="109.5" y="648.0" type="curve"/>
      <point x="98.5" y="600.5"/>
      <point x="96.0" y="507.0"/>
      <point x="96.0" y="490.0" type="curve"/>
      <point x="661.5" y="516.0" type="line"/>
      <point x="669.0" y="538.0"/>
      <point x="700.5" y="654.5"/>
    </contour>
  </outline>
</glyph>
<glyph name="threesuperior" format="2">
  <advance width="781.5"/>
  <unicode hex="00B3"/>
  <outline>
    <contour>
      <point x="384.5" y="498.0" type="curve" smooth="yes"/>
      <point x="580.0" y="498.0"/>
      <point x="767.5" y="575.5"/>
      <point x="767.5" y="761.0" type="curve" smooth="yes"/>
      <point x="767.5" y="863.0"/>
      <point x="694.5" y="912.5"/>
      <point x="593.0" y="918.5" type="curve"/>
      <point x="704.0" y="943.5"/>
      <point x="818.0" y="1017.5"/>
      <point x="818.0" y="1132.5" type="curve" smooth="yes"/>
      <point x="818.0" y="1235.0"/>
      <point x="718.0" y="1291.5"/>
      <point x="589.5" y="1291.5" type="curve" smooth="yes"/>
      <point x="414.0" y="1291.5"/>
      <point x="277.0" y="1207.5"/>
      <point x="227.0" y="1171.5" type="curve"/>
      <point x="240.0" y="1150.5"/>
      <point x="294.0" y="1094.0"/>
      <point x="325.0" y="1065.0" type="curve"/>
      <point x="371.0" y="1099.5"/>
      <point x="470.5" y="1140.0"/>
      <point x="549.5" y="1140.0" type="curve" smooth="yes"/>
      <point x="611.0" y="1140.0"/>
      <point x="638.0" y="1116.0"/>
      <point x="638.0" y="1082.0" type="curve" smooth="yes"/>
      <point x="638.0" y="993.0"/>
      <point x="447.5" y="955.5"/>
      <point x="342.5" y="955.5" type="curve"/>
      <point x="332.0" y="915.5"/>
      <point x="325.5" y="868.5"/>
      <point x="325.5" y="837.0" type="curve"/>
      <point x="523.5" y="837.0"/>
      <point x="591.5" y="825.0"/>
      <point x="591.5" y="746.5" type="curve" smooth="yes"/>
      <point x="591.5" y="673.0"/>
      <point x="501.5" y="636.0"/>
      <point x="414.5" y="636.0" type="curve" smooth="yes"/>
      <point x="327.0" y="636.0"/>
      <point x="272.5" y="671.5"/>
      <point x="261.5" y="718.0" type="curve"/>
      <point x="217.0" y="702.0"/>
      <point x="145.5" y="666.5"/>
      <point x="103.0" y="641.5" type="curve"/>
      <point x="130.0" y="562.5"/>
      <point x="229.0" y="498.0"/>
    </contour>
  </outline>
</glyph>
<glyph name="micro" format="2">
  <advance width="1178.0"/>
  <unicode hex="00B5"/>
  <anchor x="441.7925" y="0.0" name="bottom"/>
  <anchor x="675.0" y="0.0" name="ogonek"/>
  <anchor x="726.2075" y="1063.0" name="top"/>
  <anchor x="1095.5" y="921.0" name="topright"/>
  <outline>
    <contour>
      <point x="-91.5" y="-400.0" type="curve"/>
      <point x="-21.5" y="-400.0"/>
      <point x="69.5" y="-394.5"/>
      <point x="127.5" y="-385.5" type="curve"/>
      <point x="145.5" y="-290.5"/>
      <point x="182.0" y="-120.0"/>
      <point x="216.5" y="21.0" type="curve" smooth="yes"/>
      <point x="273.0" y="253.5"/>
      <point x="321.5" y="440.0"/>
      <point x="393.0" y="686.5" type="curve"/>
      <point x="160.5" y="688.0" type="line"/>
      <point x="77.0" y="376.5"/>
      <point x="-56.5" y="-187.5"/>
    </contour>
    <component base="u"/>
  </outline>
</glyph>
<glyph name="paragraph" format="2">
  <advance width="1210.0"/>
  <unicode hex="00B6"/>
  <outline>
    <contour>
      <point x="782.0" y="-356.0" type="curve"/>
      <point x="890.5" y="-67.5"/>
      <point x="1068.5" y="477.5"/>
      <point x="1162.5" y="825.5" type="curve" smooth="yes"/>
      <point x="1203.5" y="977.5"/>
      <point x="1233.0" y="1109.5"/>
      <point x="1244.0" y="1194.0" type="curve"/>
      <point x="1133.0" y="1263.5"/>
      <point x="884.0" y="1314.0"/>
      <point x="711.5" y="1314.0" type="curve" smooth="yes"/>
      <point x="393.5" y="1314.0"/>
      <point x="177.0" y="1108.0"/>
      <point x="177.0" y="797.5" type="curve" smooth="yes"/>
      <point x="177.0" y="628.0"/>
      <point x="287.0" y="525.5"/>
      <point x="487.5" y="525.5" type="curve" smooth="yes"/>
      <point x="513.0" y="525.5"/>
      <point x="541.0" y="529.5"/>
      <point x="567.5" y="536.5" type="curve"/>
      <point x="542.5" y="463.0"/>
      <point x="359.0" y="-118.5"/>
      <point x="301.0" y="-310.0" type="curve"/>
      <point x="326.0" y="-311.0"/>
      <point x="453.5" y="-314.5"/>
      <point x="502.5" y="-313.5" type="curve"/>
      <point x="510.0" y="-290.0"/>
      <point x="777.0" y="575.0"/>
      <point x="933.0" y="1089.0" type="curve"/>
      <point x="969.5" y="1084.5"/>
      <point x="1011.0" y="1074.0"/>
      <point x="1033.0" y="1066.5" type="curve"/>
      <point x="1021.0" y="1005.0"/>
      <point x="1005.0" y="936.5"/>
      <point x="985.0" y="864.5" type="curve" smooth="yes"/>
      <point x="895.5" y="548.5"/>
      <point x="697.0" y="-88.0"/>
      <point x="606.0" y="-335.5" type="curve"/>
      <point x="634.5" y="-340.5"/>
      <point x="735.5" y="-356.0"/>
    </contour>
  </outline>
</glyph>
<glyph name="periodcentered" format="2">
  <advance width="450.0"/>
  <unicode hex="00B7"/>
  <outline>
    <contour>
      <point x="294.5" y="702.0" type="curve" smooth="yes"/>
      <point x="378.5" y="702.0"/>
      <point x="465.0" y="768.5"/>
      <point x="465.0" y="860.5" type="curve" smooth="yes"/>
      <point x="465.0" y="925.0"/>
      <point x="429.0" y="982.0"/>
      <point x="351.5" y="982.0" type="curve" smooth="yes"/>
      <point x="254.5" y="982.0"/>
      <point x="173.5" y="913.5"/>
      <point x="173.5" y="815.5" type="curve" smooth="yes"/>
      <point x="173.5" y="755.5"/>
      <point x="208.0" y="702.0"/>
    </contour>
  </outline>
</glyph>
<glyph name="onesuperior" format="2">
  <advance width="556.0"/>
  <unicode hex="00B9"/>
  <outline>
    <contour>
      <point x="379.0" y="660.0" type="curve"/>
      <point x="406.0" y="739.5"/>
      <point x="431.0" y="826.5"/>
      <point x="451.5" y="901.5" type="curve" smooth="yes"/>
      <point x="501.0" y="1083.0"/>
      <point x="537.5" y="1234.5"/>
      <point x="541.0" y="1262.5" type="curve"/>
      <point x="510.5" y="1268.5"/>
      <point x="437.0" y="1271.5"/>
      <point x="404.0" y="1271.5" type="curve"/>
      <point x="344.5" y="1232.5"/>
      <point x="214.0" y="1135.0"/>
      <point x="181.0" y="1107.0" type="curve"/>
      <point x="186.5" y="1072.5"/>
      <point x="199.5" y="1026.5"/>
      <point x="212.5" y="993.5" type="curve"/>
      <point x="235.5" y="1010.5"/>
      <point x="323.5" y="1073.0"/>
      <point x="345.0" y="1085.0" type="curve"/>
      <point x="327.0" y="1015.5"/>
      <point x="245.0" y="716.5"/>
      <point x="227.5" y="653.5" type="curve"/>
      <point x="205.0" y="651.5"/>
      <point x="133.5" y="643.5"/>
      <point x="104.5" y="638.5" type="curve"/>
      <point x="91.0" y="609.5"/>
      <point x="69.0" y="531.0"/>
      <point x="60.0" y="493.0" type="curve"/>
      <point x="109.5" y="498.5"/>
      <point x="381.5" y="505.0"/>
      <point x="440.0" y="505.0" type="curve"/>
      <point x="451.5" y="532.5"/>
      <point x="482.5" y="628.0"/>
      <point x="489.5" y="653.0" type="curve"/>
      <point x="465.0" y="657.0"/>
      <point x="404.0" y="660.0"/>
    </contour>
  </outline>
</glyph>
<glyph name="ordmasculine" format="2">
  <advance width="750.0"/>
  <unicode hex="00BA"/>
  <outline>
    <contour>
      <point x="465.0" y="750.5" type="curve" smooth="yes"/>
      <point x="707.5" y="750.5"/>
      <point x="862.5" y="913.0"/>
      <point x="862.5" y="1160.5" type="curve" smooth="yes"/>
      <point x="862.5" y="1316.0"/>
      <point x="782.0" y="1432.0"/>
      <point x="607.5" y="1432.0" type="curve" smooth="yes"/>
      <point x="348.5" y="1432.0"/>
      <point x="192.5" y="1259.5"/>
      <point x="192.5" y="995.5" type="curve" smooth="yes"/>
      <point x="192.5" y="841.5"/>
      <point x="276.5" y="750.5"/>
    </contour>
    <contour>
      <point x="481.5" y="910.0" type="curve" smooth="yes"/>
      <point x="400.0" y="910.0"/>
      <point x="367.0" y="962.5"/>
      <point x="367.0" y="1036.0" type="curve" smooth="yes"/>
      <point x="367.0" y="1176.5"/>
      <point x="451.5" y="1300.5"/>
      <point x="589.0" y="1300.5" type="curve" smooth="yes"/>
      <point x="670.5" y="1300.5"/>
      <point x="709.5" y="1243.0"/>
      <point x="709.5" y="1165.0" type="curve" smooth="yes"/>
      <point x="709.5" y="1023.0"/>
      <point x="620.5" y="910.0"/>
    </contour>
  </outline>
</glyph>
<glyph name="guillemetright" format="2">
  <advance width="1313.0"/>
  <unicode hex="00BB"/>
  <outline>
    <contour>
      <point x="299.0" y="1012.0" type="curve"/>
      <point x="366.5" y="943.5"/>
      <point x="508.5" y="801.0"/>
      <point x="596.5" y="708.0" type="curve"/>
      <point x="387.5" y="570.0"/>
      <point x="102.0" y="377.0"/>
      <point x="83.0" y="363.5" type="curve"/>
      <point x="85.5" y="317.5"/>
      <point x="98.5" y="241.0"/>
      <point x="110.0" y="200.0" type="curve"/>
      <point x="347.5" y="338.5"/>
      <point x="601.0" y="512.0"/>
      <point x="828.5" y="689.0" type="curve"/>
      <point x="738.5" y="836.0"/>
      <point x="545.5" y="1089.0"/>
      <point x="501.0" y="1121.0" type="curve"/>
      <point x="457.0" y="1102.0"/>
      <point x="355.5" y="1048.0"/>
    </contour>
    <contour>
      <point x="768.5" y="1092.5" type="curve"/>
      <point x="838.0" y="1030.0"/>
      <point x="987.5" y="840.0"/>
      <point x="1081.5" y="706.5" type="curve"/>
      <point x="864.0" y="535.5"/>
      <point x="560.5" y="298.5"/>
      <point x="506.5" y="261.0" type="curve"/>
      <point x="515.0" y="226.5"/>
      <point x="566.0" y="153.5"/>
      <point x="587.5" y="132.0" type="curve"/>
      <point x="843.0" y="309.0"/>
      <point x="1084.5" y="497.0"/>
      <point x="1324.0" y="693.0" type="curve"/>
      <point x="1303.0" y="728.0"/>
      <point x="1066.5" y="1072.0"/>
      <point x="947.0" y="1190.0" type="curve"/>
      <point x="906.5" y="1173.5"/>
      <point x="819.0" y="1124.0"/>
    </contour>
  </outline>
</glyph>
<glyph name="questiondown" format="2">
  <advance width="1036.0"/>
  <unicode hex="00BF"/>
  <outline>
    <contour>
      <point x="488.5" y="670.5" type="curve"/>
      <point x="438.0" y="485.5"/>
      <point x="335.0" y="379.0"/>
      <point x="228.5" y="308.0" type="curve" smooth="yes"/>
      <point x="71.5" y="203.0"/>
      <point x="-35.0" y="84.0"/>
      <point x="-35.0" y="-111.5" type="curve" smooth="yes"/>
      <point x="-35.0" y="-292.5"/>
      <point x="103.0" y="-379.0"/>
      <point x="325.5" y="-379.0" type="curve" smooth="yes"/>
      <point x="561.0" y="-379.0"/>
      <point x="775.0" y="-266.5"/>
      <point x="900.0" y="-36.5" type="curve"/>
      <point x="727.5" y="68.0" type="line"/>
      <point x="650.0" y="-49.5"/>
      <point x="556.5" y="-170.5"/>
      <point x="368.5" y="-170.5" type="curve" smooth="yes"/>
      <point x="266.0" y="-170.5"/>
      <point x="218.5" y="-131.5"/>
      <point x="218.5" y="-54.5" type="curve" smooth="yes"/>
      <point x="218.5" y="53.5"/>
      <point x="299.0" y="137.5"/>
      <point x="422.5" y="215.5" type="curve" smooth="yes"/>
      <point x="596.5" y="327.0"/>
      <point x="684.5" y="482.0"/>
      <point x="731.0" y="656.0" type="curve"/>
      <point x="651.5" y="665.5"/>
      <point x="586.5" y="670.5"/>
    </contour>
    <contour>
      <point x="702.0" y="1103.0" type="curve" smooth="yes"/>
      <point x="598.0" y="1103.0"/>
      <point x="493.5" y="1018.0"/>
      <point x="493.5" y="913.0" type="curve" smooth="yes"/>
      <point x="493.5" y="841.5"/>
      <point x="548.5" y="793.0"/>
      <point x="638.5" y="793.0" type="curve" smooth="yes"/>
      <point x="733.5" y="793.0"/>
      <point x="841.5" y="860.5"/>
      <point x="841.5" y="973.5" type="curve" smooth="yes"/>
      <point x="841.5" y="1054.0"/>
      <point x="784.0" y="1103.0"/>
    </contour>
  </outline>
</glyph>
